<svg width="476" height="151" viewBox="0 0 476 151" fill="none" xmlns="http://www.w3.org/2000/svg">
<mask id="mask0_7080_2734" style="mask-type:luminance" maskUnits="userSpaceOnUse" x="0" y="0" width="476" height="151">
<path d="M476 0H0V150.824H476V0Z" fill="white"/>
<path d="M72.9491 43.6838C72.9491 51.4261 71.2831 57.2809 67.9511 61.248C64.6195 65.1512 59.2513 67.7426 51.8468 69.0227V70.5584C54.7469 70.9423 57.4002 71.6141 59.8066 72.5739C62.2747 73.5337 64.4652 74.8774 66.3777 76.605C68.2288 78.2689 69.8022 80.2845 71.098 82.6517C72.3938 85.019 73.3193 87.5145 73.8746 90.1381C74.4921 93.0175 74.8002 96.217 74.8002 99.736C74.8002 103.447 74.3996 106.902 73.597 110.102C72.8565 113.301 71.7155 116.148 70.1724 118.644C68.5064 121.268 66.5628 123.442 64.3418 125.17C62.1205 126.834 59.6832 128.082 57.0299 128.914C54.1915 129.81 51.1064 130.257 47.7744 130.257H15.1023V16.0418H46.9414C50.0883 16.0418 53.0192 16.4578 55.7342 17.2896C58.5108 18.0574 60.9481 19.2091 63.046 20.7448C65.0823 22.3444 66.81 24.2001 68.2288 26.3116C69.7097 28.4231 70.9129 31.0146 71.8384 34.0859C72.2086 35.5576 72.4863 37.0933 72.6714 38.6929C72.8565 40.2925 72.9491 41.9562 72.9491 43.6838ZM41.3881 37.1572H36.8528V60.8641H41.3881C43.9179 60.8641 45.985 60.1602 47.5893 58.7526C48.3297 58.1127 48.9467 57.3449 49.4404 56.4491C49.9957 55.5532 50.4585 54.4335 50.8287 53.0898C50.9521 52.45 51.0446 51.8101 51.1064 51.1702C51.1681 50.4663 51.1989 49.7625 51.1989 49.0587C51.1989 46.1153 50.6436 43.6518 49.5329 41.6683C48.9776 40.7724 48.2989 39.9727 47.4967 39.2688C46.6945 38.501 45.7999 37.9571 44.8126 37.6371C43.6402 37.3172 42.4987 37.1572 41.3881 37.1572ZM36.8528 109.142H42.4987C45.152 109.142 47.3424 108.374 49.0702 106.839C49.9957 106.071 50.7362 105.143 51.2915 104.055C51.8468 102.903 52.2787 101.623 52.5873 100.216C52.8958 98.6803 53.0501 97.1124 53.0501 95.513C53.0501 93.9773 52.8649 92.4738 52.4947 91.0019C52.1862 89.4663 51.7543 88.1548 51.1989 87.0668C49.9032 84.7633 48.2063 83.2598 46.1084 82.5558C44.9977 82.1718 43.7945 81.9799 42.4987 81.9799H36.8528V109.142ZM78.5785 72.4779C78.5785 66.143 79.5351 60.1602 81.4477 54.5295C83.3609 48.8347 86.045 43.5558 89.5 38.6929C92.8941 33.894 96.9355 29.7348 101.625 26.2156C106.376 22.6964 111.467 19.977 116.896 18.0574C119.612 17.0976 122.419 16.3618 125.319 15.8499C128.281 15.338 131.274 15.082 134.297 15.082C140.529 15.082 146.391 16.1058 151.882 18.1534C157.374 20.1369 162.403 22.8243 166.969 26.2156C172.214 30.2467 176.472 34.7578 179.742 39.7487C183.012 44.6756 185.45 49.5706 187.054 54.4335C187.979 57.3129 188.689 60.2562 189.182 63.2636C189.676 66.271 189.923 69.3428 189.923 72.4779C189.923 78.7488 188.967 84.8593 187.054 90.81C185.202 96.7607 182.58 102.199 179.186 107.126C175.731 111.989 171.628 116.244 166.876 119.892C162.187 123.475 157.158 126.226 151.79 128.145C146.175 130.193 140.344 131.217 134.297 131.217C128.127 131.217 122.265 130.193 116.711 128.145C111.158 126.097 106.099 123.315 101.532 119.796C96.9044 116.212 92.8631 112.021 89.4074 107.222C86.014 102.423 83.3609 96.9849 81.4477 90.906C80.5221 88.0266 79.8127 85.0512 79.3189 81.9799C78.8257 78.8448 78.5785 75.6775 78.5785 72.4779ZM100.329 72.6699C100.329 76.5728 100.915 80.412 102.088 84.1874C103.26 87.9628 104.864 91.2899 106.9 94.1692C109.122 97.3688 111.652 100.088 114.49 102.327C117.329 104.503 120.383 106.134 123.653 107.222C127.109 108.502 130.687 109.142 134.389 109.142C138.092 109.142 141.64 108.534 145.033 107.318C148.427 106.038 151.512 104.279 154.289 102.04C157.066 99.8642 159.503 97.2728 161.601 94.2652C163.699 91.1939 165.303 87.8346 166.414 84.1874C166.969 82.396 167.401 80.5402 167.709 78.6206C168.018 76.701 168.172 74.7177 168.172 72.6699C168.172 68.8945 167.586 65.2152 166.414 61.632C165.241 57.9847 163.637 54.7215 161.601 51.8421C157.282 45.7634 151.728 41.4763 144.941 38.9809C141.547 37.7651 138.03 37.1572 134.389 37.1572C131.428 37.1572 128.219 37.6692 124.764 38.6929C121.309 39.6527 117.853 41.4443 114.397 44.0678C111.559 46.2433 109.06 48.8027 106.9 51.7461C104.803 54.6894 103.198 57.9208 102.088 61.44C101.532 63.2316 101.101 65.0872 100.792 67.0068C100.484 68.8629 100.329 70.7503 100.329 72.6699ZM256.072 43.6838C256.072 51.4261 254.406 57.2809 251.074 61.248C247.742 65.1512 242.374 67.7426 234.969 69.0227V70.5584C237.869 70.9423 240.523 71.6141 242.929 72.5739C245.397 73.5337 247.587 74.8774 249.501 76.605C251.352 78.2689 252.925 80.2845 254.221 82.6517C255.517 85.019 256.442 87.5145 256.998 90.1381C257.615 93.0175 257.923 96.217 257.923 99.736C257.923 103.447 257.522 106.902 256.72 110.102C255.98 113.301 254.838 116.148 253.295 118.644C251.629 121.268 249.686 123.442 247.464 125.17C245.243 126.834 242.806 128.082 240.153 128.914C237.314 129.81 234.229 130.257 230.897 130.257H198.225V16.0418H230.064C233.211 16.0418 236.142 16.4578 238.857 17.2896C241.633 18.0574 244.07 19.2091 246.169 20.7448C248.205 22.3444 249.932 24.2001 251.352 26.3116C252.833 28.4231 254.036 31.0146 254.962 34.0859C255.332 35.5576 255.609 37.0933 255.794 38.6929C255.98 40.2925 256.072 41.9562 256.072 43.6838ZM224.511 37.1572H219.976V60.8641H224.511C227.04 60.8641 229.107 60.1602 230.712 58.7526C231.452 58.1127 232.069 57.3449 232.563 56.4491C233.118 55.5532 233.581 54.4335 233.951 53.0898C234.074 52.45 234.167 51.8101 234.229 51.1702C234.291 50.4663 234.322 49.7625 234.322 49.0587C234.322 46.1153 233.766 43.6518 232.656 41.6683C232.1 40.7724 231.421 39.9727 230.619 39.2688C229.817 38.501 228.922 37.9571 227.935 37.6371C226.762 37.3172 225.621 37.1572 224.511 37.1572ZM219.976 109.142H225.621C228.274 109.142 230.465 108.374 232.193 106.839C233.118 106.071 233.859 105.143 234.414 104.055C234.969 102.903 235.401 101.623 235.71 100.216C236.018 98.6803 236.173 97.1124 236.173 95.513C236.173 93.9773 235.988 92.4738 235.617 91.0019C235.309 89.4663 234.877 88.1548 234.322 87.0668C233.026 84.7633 231.329 83.2598 229.231 82.5558C228.12 82.1718 226.917 81.9799 225.621 81.9799H219.976V109.142ZM260.302 130.257L277.517 16.0418H308.616L325.831 130.257H304.081L300.841 104.055H285.292L282.052 130.257H260.302ZM287.883 82.9397H298.25L294.547 47.1391C294.424 45.6674 294.331 44.3557 294.27 43.2039C294.208 41.9882 294.146 40.7085 294.085 39.3648C294.023 37.9571 293.992 36.2614 293.992 34.2779H292.141V37.0613C292.141 37.5092 292.141 37.9571 292.141 38.405C292.08 38.9169 292.048 39.3968 292.048 39.8447C292.048 40.4845 292.017 41.1564 291.956 41.8602C291.894 42.5001 291.863 43.14 291.863 43.7798C291.863 45.0596 291.771 46.1793 291.586 47.1391L287.883 82.9397ZM391.04 45.7954C391.04 51.4902 389.899 56.3531 387.615 60.3842C386.567 62.3038 385.271 63.9994 383.728 65.4711C382.247 66.9428 380.396 68.1905 378.175 69.2146C376.077 70.1107 373.825 70.6866 371.418 70.9423V72.4779C373.639 72.4779 375.892 73.2136 378.175 74.6855C380.335 76.1574 382.032 78.1085 383.265 80.5402C383.574 81.1798 383.821 81.8201 384.006 82.4598C384.253 83.0994 384.468 83.7397 384.654 84.3794L395.668 130.257H373.917L361.052 81.9799H354.018V130.257H332.267V16.0418H364.662C367.623 16.0418 370.462 16.5217 373.177 17.4815C375.953 18.3773 378.452 19.721 380.674 21.5126C382.895 23.3683 384.746 25.4798 386.227 27.8473C387.77 30.2147 388.973 32.9342 389.837 36.0055C390.639 39.1408 391.04 42.4041 391.04 45.7954ZM354.018 60.8641H359.108C360.281 60.8641 361.392 60.7042 362.44 60.3842C363.551 60.0643 364.569 59.5524 365.495 58.8486C367.099 57.5048 368.241 55.5853 368.919 53.0898C369.166 52.002 369.289 50.6583 369.289 49.0587C369.289 45.4115 368.395 42.5321 366.605 40.4205C364.816 38.245 362.317 37.1572 359.108 37.1572H354.018V60.8641ZM402.588 16.0418H432.299C439.888 16.0418 446.243 18.3453 451.365 22.9523C453.771 25.1919 455.838 28.0392 457.566 31.4945C459.355 34.9497 460.651 38.6929 461.453 42.724C462.317 47.0751 462.749 51.8101 462.749 56.929V89.3703C462.749 94.6814 462.317 99.4481 461.453 103.671C460.589 107.894 459.294 111.637 457.566 114.901C455.838 118.292 453.771 121.107 451.365 123.347C448.958 125.522 446.12 127.218 442.85 128.433C439.703 129.649 436.186 130.257 432.299 130.257H402.588V16.0418ZM424.339 109.142H427.393C436.464 109.142 440.999 102.552 440.999 89.3703V56.929C440.999 43.7478 436.464 37.1572 427.393 37.1572H424.339V109.142Z" fill="black"/>
</mask>
<g mask="url(#mask0_7080_2734)">
<path d="M67.9508 61.2474L77.8516 70.3363L77.8866 70.2945L77.9217 70.2534L67.9508 61.2474ZM51.8466 69.0221L49.6728 55.497L38.6244 57.4065V69.0221H51.8466ZM51.8466 70.5577H38.6244V82.6299L50.1722 84.1587L51.8466 70.5577ZM59.8064 72.5733L55.0598 85.3708L55.1117 85.3913L55.1637 85.4119L59.8064 72.5733ZM66.3773 76.6044L57.6936 86.9441L57.7182 86.9661L66.3773 76.6044ZM73.8743 90.1375L60.96 93.0772L60.9674 93.1122L73.8743 90.1375ZM73.5967 110.101L60.8003 106.651L60.769 106.775L60.74 106.902L73.5967 110.101ZM70.1721 118.643L81.2153 126.185L81.2603 126.114L81.3039 126.043L70.1721 118.643ZM64.3416 125.17L72.0827 136.286L72.1793 136.213L72.2745 136.139L64.3416 125.17ZM57.0297 128.913L53.2033 115.789L53.1798 115.796L57.0297 128.913ZM15.102 130.257H1.87976V143.968H15.102V130.257ZM15.102 16.0412V2.32991H1.87976V16.0412H15.102ZM55.7339 17.2889L51.9874 30.4383L52.1566 30.4901L52.327 30.5373L55.7339 17.2889ZM63.0458 20.7442L71.0302 9.81498L70.8524 9.6756L70.6706 9.54253L63.0458 20.7442ZM68.2285 26.311L57.3814 34.151L57.4574 34.2641L57.5356 34.3756L68.2285 26.311ZM71.8381 34.0853L84.6326 30.6243L84.5526 30.3078L84.4587 29.9956L71.8381 34.0853ZM36.8526 37.1566V23.4453H23.6304V37.1566H36.8526ZM36.8526 60.8635H23.6304V74.5752H36.8526V60.8635ZM47.589 58.752L39.1244 48.2187L39.0861 48.2516L39.0482 48.285L47.589 58.752ZM49.4401 56.4485L38.3179 49.0339L38.1312 49.335L37.96 49.6457L49.4401 56.4485ZM50.8285 53.0892L63.5419 56.856L63.6889 56.3224L63.7939 55.7782L50.8285 53.0892ZM51.1061 51.1696L64.2627 52.534L64.2687 52.4725L64.274 52.411L51.1061 51.1696ZM49.5327 41.6677L60.9671 34.7827L60.8168 34.5143L60.6549 34.2531L49.5327 41.6677ZM47.4965 39.2682L38.5281 49.3433L38.7378 49.5441L38.9556 49.7352L47.4965 39.2682ZM44.8124 37.6365L48.7562 24.5494L48.4686 24.4562L48.1773 24.3767L44.8124 37.6365ZM36.8526 109.141H23.6304V122.853H36.8526V109.141ZM49.0699 106.838L40.8101 96.1314L40.6351 96.2761L40.465 96.4276L49.0699 106.838ZM51.2912 104.054L62.9768 110.47L63.0488 110.329L63.1175 110.186L51.2912 104.054ZM52.587 100.215L65.4804 103.254L65.5069 103.133L65.5313 103.012L52.587 100.215ZM52.4945 91.0013L39.5502 93.7977L39.6173 94.1323L39.7004 94.4621L52.4945 91.0013ZM51.1987 87.0662L62.8843 80.6507L62.7569 80.4011L62.6197 80.1577L51.1987 87.0662ZM46.1081 82.5551L41.9269 95.5631L41.9824 95.5823L42.0381 95.6008L46.1081 82.5551ZM36.8526 81.9793V68.2676H23.6304V81.9793H36.8526ZM59.727 43.6832C59.727 49.6391 58.4188 51.7205 57.9806 52.2421L67.9508 61.2474L77.9217 70.2534C84.1473 62.8401 86.171 53.212 86.171 43.6832H59.727ZM67.9508 61.2474L58.0509 52.159C57.5093 52.7935 55.5052 54.489 49.6728 55.497L51.8466 69.0221L54.0202 82.5469C62.9968 80.9955 71.729 77.508 77.8516 70.3363L67.9508 61.2474ZM51.8466 69.0221H38.6244V70.5577H51.8466H65.0688V69.0221H51.8466ZM51.8466 70.5577L50.1722 84.1587C52.1585 84.4219 53.7643 84.8539 55.0598 85.3708L59.8064 72.5733L64.5529 59.7756C61.0355 58.3727 57.3348 57.4614 53.5209 56.9565L51.8466 70.5577ZM59.8064 72.5733L55.1637 85.4119C56.2103 85.8184 57.0196 86.3354 57.6936 86.9441L66.3773 76.6044L75.0617 66.2647C71.9102 63.4182 68.3382 61.2473 64.4489 59.7347L59.8064 72.5733ZM66.3773 76.6044L57.7182 86.9661C58.3535 87.5372 58.9923 88.3105 59.5989 89.419L82.597 75.8832C80.6124 72.2566 78.1041 68.9995 75.0372 66.2426L66.3773 76.6044ZM59.5989 89.419C60.2495 90.6078 60.6927 91.8144 60.96 93.0772L73.8743 90.1375L86.7891 87.1978C85.9462 83.2133 84.5381 79.4297 82.597 75.8832L59.5989 89.419ZM73.8743 90.1375L60.9674 93.1122C61.3396 94.8487 61.5781 97.0309 61.5781 99.7354H88.0221C88.0221 95.4013 87.644 91.1851 86.7819 87.1628L73.8743 90.1375ZM61.5781 99.7354C61.5781 102.423 61.2879 104.706 60.8003 106.651L73.5967 110.101L86.3938 113.552C87.5104 109.098 88.0221 104.471 88.0221 99.7354H61.5781ZM73.5967 110.101L60.74 106.902C60.3068 108.773 59.7035 110.172 59.0411 111.244L70.1721 118.643L81.3039 126.043C83.7269 122.123 85.4061 117.827 86.454 113.301L73.5967 110.101ZM70.1721 118.643L59.1297 111.102C58.2258 112.525 57.3042 113.504 56.4082 114.201L64.3416 125.17L72.2745 136.139C75.8213 133.38 78.7871 130.008 81.2153 126.185L70.1721 118.643ZM64.3416 125.17L56.6 114.054C55.5813 114.817 54.4697 115.392 53.2033 115.789L57.0297 128.913L60.856 142.038C64.8962 140.771 68.6588 138.85 72.0827 136.286L64.3416 125.17ZM57.0297 128.913L53.1798 115.796C51.7323 116.253 49.9598 116.546 47.7741 116.546V143.968C52.2524 143.968 56.6503 143.365 60.8795 142.03L57.0297 128.913ZM47.7741 116.546H15.102V130.257V143.968H47.7741V116.546ZM15.102 130.257H28.3243V16.0412H15.102H1.87976V130.257H15.102ZM15.102 16.0412V29.7525H46.9411V2.32991H15.102V16.0412ZM46.9411 29.7525C48.9594 29.7525 50.6159 30.0181 51.9874 30.4383L55.7339 17.2889L59.4804 4.13956C55.4219 2.89612 51.2166 2.32991 46.9411 2.32991V29.7525ZM55.7339 17.2889L52.327 30.5373C53.7707 30.9365 54.744 31.4505 55.4207 31.9459L63.0458 20.7442L70.6706 9.54253C67.1515 6.96652 63.2504 5.17703 59.1408 4.0406L55.7339 17.2889ZM63.0458 20.7442L55.0614 31.6733C56.0257 32.4309 56.7777 33.2528 57.3814 34.151L68.2285 26.311L79.076 18.4709C76.8414 15.1461 74.1381 12.2568 71.0302 9.81498L63.0458 20.7442ZM68.2285 26.311L57.5356 34.3756C57.9993 35.0367 58.6261 36.2102 59.2182 38.175L71.8381 34.0853L84.4587 29.9956C83.2 25.8177 81.4203 21.8083 78.9219 18.2463L68.2285 26.311ZM71.8381 34.0853L59.0445 37.5463C59.2551 38.3832 59.4256 39.3064 59.5435 40.3259L85.7995 37.0587C85.5469 34.8788 85.1622 32.7308 84.6326 30.6243L71.8381 34.0853ZM59.5435 40.3259C59.6616 41.3462 59.727 42.4627 59.727 43.6832H86.171C86.171 41.4485 86.0513 39.2377 85.7995 37.0587L59.5435 40.3259ZM41.3878 23.4453H36.8526V37.1566V50.868H41.3878V23.4453ZM36.8526 37.1566H23.6304V60.8635H36.8526H50.0748V37.1566H36.8526ZM36.8526 60.8635V74.5752H41.3878V47.1522H36.8526V60.8635ZM41.3878 74.5752C46.3799 74.5752 51.6754 73.1279 56.1298 69.2195L47.589 58.752L39.0482 48.285C39.5913 47.8084 40.185 47.4875 40.7105 47.3086C41.2049 47.1403 41.4745 47.1522 41.3878 47.1522V74.5752ZM47.589 58.752L56.0536 69.2853C58.0449 67.5646 59.6697 65.5205 60.9202 63.2512L49.4401 56.4485L37.96 49.6457C38.2233 49.168 38.614 48.6596 39.1244 48.2187L47.589 58.752ZM49.4401 56.4485L60.5623 63.8629C61.9964 61.5497 62.9204 59.1118 63.5419 56.856L50.8285 53.0892L38.115 49.3224C38.0614 49.5168 38.0329 49.5783 38.0506 49.5356C38.068 49.4935 38.1468 49.3099 38.3179 49.0339L49.4401 56.4485ZM50.8285 53.0892L63.7939 55.7782C64.0006 54.7067 64.1575 53.6248 64.2627 52.534L51.1061 51.1696L37.9495 49.8053C37.9313 49.9941 37.9032 50.1919 37.863 50.4002L50.8285 53.0892ZM51.1061 51.1696L64.274 52.411C64.3718 51.2961 64.4209 50.178 64.4209 49.0581H37.9765C37.9765 49.3458 37.9638 49.6354 37.9382 49.9282L51.1061 51.1696ZM64.4209 49.0581C64.4209 44.3676 63.5359 39.3703 60.9671 34.7827L49.5327 41.6677L38.0983 48.5526C37.9325 48.2566 37.8969 48.0791 37.9071 48.1241C37.9202 48.1824 37.9765 48.4707 37.9765 49.0581H64.4209ZM49.5327 41.6677L60.6549 34.2531C59.3735 32.1861 57.8177 30.3634 56.0372 28.8012L47.4965 39.2682L38.9556 49.7352C38.7795 49.5806 38.5812 49.3576 38.4104 49.0822L49.5327 41.6677ZM47.4965 39.2682L56.4648 29.193C54.3052 27.1259 51.7159 25.5085 48.7562 24.5494L44.8124 37.6365L40.8685 50.7237C39.8833 50.4044 39.0834 49.8748 38.5281 49.3433L47.4965 39.2682ZM44.8124 37.6365L48.1773 24.3767C46.0061 23.7841 43.7326 23.4453 41.3878 23.4453V50.868C41.3294 50.868 41.3062 50.8644 41.3062 50.8644C41.3062 50.8644 41.3584 50.8721 41.4474 50.8964L44.8124 37.6365ZM36.8526 109.141V122.853H42.4985V95.4301H36.8526V109.141ZM42.4985 122.853C47.7549 122.853 53.1617 121.259 57.6748 117.248L49.0699 106.838L40.465 96.4276C40.9066 96.0347 41.4162 95.7448 41.8971 95.5761C42.3505 95.4171 42.5939 95.4301 42.4985 95.4301V122.853ZM49.0699 106.838L57.3298 117.544C59.6704 115.603 61.576 113.214 62.9768 110.47L51.2912 104.054L39.6056 97.639C39.8958 97.0706 40.3205 96.5373 40.8101 96.1314L49.0699 106.838ZM51.2912 104.054L63.1175 110.186C64.2 107.942 64.9649 105.606 65.4804 103.254L52.587 100.215L39.6936 97.1769C39.592 97.6396 39.4931 97.8638 39.4649 97.9228L51.2912 104.054ZM52.587 100.215L65.5313 103.012C66.0282 100.538 66.2716 98.0332 66.2716 95.5123H39.8276C39.8276 96.1911 39.7628 96.8211 39.6427 97.4189L52.587 100.215ZM66.2716 95.5123C66.2716 92.8201 65.9458 90.1533 65.2885 87.5406L52.4945 91.0013L39.7004 94.4621C39.7836 94.7932 39.8276 95.1332 39.8276 95.5123H66.2716ZM52.4945 91.0013L65.4388 88.2049C64.9426 85.7355 64.1549 83.1399 62.8843 80.6507L51.1987 87.0662L39.513 93.4817C39.4273 93.3137 39.4076 93.2397 39.4263 93.2966C39.4449 93.3528 39.4929 93.5126 39.5502 93.7977L52.4945 91.0013ZM51.1987 87.0662L62.6197 80.1577C59.9744 75.4547 55.877 71.4216 50.1782 69.5095L46.1081 82.5551L42.0381 95.6008C41.4078 95.3889 40.8245 95.042 40.3643 94.6348C39.9287 94.2482 39.765 93.9527 39.7776 93.9746L51.1987 87.0662ZM46.1081 82.5551L50.2893 69.5472C47.6946 68.6505 45.0647 68.2676 42.4985 68.2676V95.6906C42.5237 95.6906 42.3003 95.692 41.9269 95.5631L46.1081 82.5551ZM42.4985 68.2676H36.8526V81.9793V95.6906H42.4985V68.2676ZM36.8526 81.9793H23.6304V109.141H36.8526H50.0748V81.9793H36.8526ZM81.4474 54.5289L93.9186 59.0846L93.9338 59.0389L81.4474 54.5289ZM89.4997 38.6923L100.144 46.8259L100.162 46.8007L89.4997 38.6923ZM101.624 26.215L93.9391 15.0574L93.8729 15.1073L101.624 26.215ZM125.319 15.8493L123.145 2.32443L123.1 2.33236L125.319 15.8493ZM151.882 18.1528L147.408 31.0554L147.471 31.0786L147.533 31.1011L151.882 18.1528ZM166.969 26.215L174.842 15.1995L174.755 15.1329L174.668 15.0679L166.969 26.215ZM179.741 39.7481L168.805 47.4543L168.85 47.5222L179.741 39.7481ZM187.053 54.4329L199.597 50.097L199.581 50.0458L199.563 49.9947L187.053 54.4329ZM187.053 90.8094L174.51 86.4732L174.49 86.5369L174.47 86.6L187.053 90.8094ZM179.186 107.126L189.831 115.259L189.889 115.178L189.946 115.096L179.186 107.126ZM166.876 119.891L174.72 130.929L174.743 130.912L166.876 119.891ZM151.79 128.145L147.479 115.183L147.404 115.211L151.79 128.145ZM101.532 119.795L93.6211 130.782L93.6449 130.8L101.532 119.795ZM89.4071 107.222L78.7448 115.33L78.7785 115.378L78.8128 115.425L89.4071 107.222ZM81.4474 90.9053L94.0177 86.6521L93.9913 86.5691L81.4474 90.9053ZM79.3186 81.9793L66.2689 84.1889L66.2762 84.2334L79.3186 81.9793ZM91.8004 72.4773C91.8004 67.5987 92.5329 63.1645 93.9186 59.0846L81.4474 54.5289L68.9762 49.9732C66.5367 57.1548 65.3563 64.686 65.3563 72.4773H91.8004ZM81.4474 54.5289L93.9338 59.0389C95.4107 54.643 97.4734 50.5853 100.144 46.8259L89.4997 38.6923L78.8551 30.5588C74.6154 36.5252 71.3099 43.0252 68.961 50.0188L81.4474 54.5289ZM89.4997 38.6923L100.162 46.8007C102.735 43.1626 105.792 40.0128 109.377 37.3228L101.624 26.215L93.8729 15.1073C88.0783 19.4557 83.0519 24.6241 78.8373 30.5839L89.4997 38.6923ZM101.624 26.215L109.31 37.3724C113.032 34.6155 116.973 32.5156 121.163 31.0347L112.63 5.07889C105.959 7.43709 99.7198 10.7759 93.9391 15.0574L101.624 26.215ZM121.163 31.0347C123.193 30.3169 125.315 29.7584 127.537 29.3661L125.319 15.8493L123.1 2.33236C119.523 2.96386 116.029 3.87712 112.63 5.07889L121.163 31.0347ZM125.319 15.8493L127.492 29.374C129.731 28.9872 131.997 28.7927 134.297 28.7927V1.37012C130.55 1.37012 126.83 1.68752 123.145 2.32443L125.319 15.8493ZM134.297 28.7927C139.108 28.7927 143.447 29.5783 147.408 31.0554L151.882 18.1528L156.356 5.25011C149.334 2.63213 141.95 1.37012 134.297 1.37012V28.7927ZM151.882 18.1528L147.533 31.1011C151.874 32.6688 155.767 34.761 159.27 37.3622L166.969 26.215L174.668 15.0679C169.038 10.8864 162.874 7.60382 156.232 5.20443L151.882 18.1528ZM166.969 26.215L159.096 37.2305C163.292 40.4554 166.464 43.8822 168.805 47.4543L179.741 39.7481L190.678 32.042C186.478 25.6321 181.136 20.0368 174.842 15.1995L166.969 26.215ZM179.741 39.7481L168.85 47.5222C171.546 51.583 173.387 55.3662 174.543 58.8711L187.053 54.4329L199.563 49.9947C197.511 43.7737 194.478 37.767 190.633 31.974L179.741 39.7481ZM187.053 54.4329L174.51 58.7688C175.221 60.9804 175.767 63.2432 176.148 65.5637L202.217 60.9622C201.61 57.2681 200.738 53.6442 199.597 50.097L187.053 54.4329ZM176.148 65.5637C176.513 67.7902 176.7 70.0916 176.7 72.4773H203.145C203.145 68.5922 202.839 64.7505 202.217 60.9622L176.148 65.5637ZM176.7 72.4773C176.7 77.2735 175.973 81.9203 174.51 86.4732L187.053 90.8094L199.597 95.1456C201.959 87.797 203.145 80.2222 203.145 72.4773H176.7ZM187.053 90.8094L174.47 86.6C173.022 91.2515 171.003 95.415 168.427 99.1561L179.186 107.126L189.946 115.096C194.156 108.982 197.382 102.269 199.637 95.0187L187.053 90.8094ZM179.186 107.126L168.541 98.9923C165.88 102.738 162.717 106.025 159.01 108.871L166.876 119.891L174.743 130.912C180.538 126.463 185.582 121.239 189.831 115.259L179.186 107.126ZM166.876 119.891L159.033 108.853C155.393 111.634 151.55 113.726 147.479 115.183L151.79 128.145L156.1 141.107C162.765 138.724 168.981 135.314 174.72 130.929L166.876 119.891ZM151.79 128.145L147.404 115.211C143.22 116.736 138.874 117.505 134.297 117.505V144.928C141.813 144.928 149.129 143.65 156.176 141.08L151.79 128.145ZM134.297 117.505C129.564 117.505 125.206 116.725 121.14 115.226L112.282 141.064C119.323 143.66 126.689 144.928 134.297 144.928V117.505ZM121.14 115.226C116.78 113.619 112.893 111.468 109.42 108.79L101.532 119.795L93.6449 130.8C99.3027 135.161 105.535 138.577 112.282 141.064L121.14 115.226ZM101.532 119.795L109.443 108.808C105.834 106.015 102.696 102.761 100.002 99.0183L89.4071 107.222L78.8128 115.425C83.0287 121.281 87.9745 126.409 93.6211 130.782L101.532 119.795ZM89.4071 107.222L100.07 99.1136C97.5646 95.5706 95.5277 91.4517 94.0177 86.6521L81.4474 90.9053L68.8777 95.1586C71.1929 102.516 74.4627 109.275 78.7448 115.33L89.4071 107.222ZM81.4474 90.9053L93.9913 86.5691C93.2899 84.387 92.7438 82.1082 92.361 79.7251L79.3186 81.9793L66.2762 84.2334C66.8804 87.9931 67.7544 91.6649 68.9041 95.2415L81.4474 90.9053ZM79.3186 81.9793L92.3683 79.7697C91.9901 77.3702 91.8004 74.9419 91.8004 72.4773H65.3563C65.3563 76.4118 65.6594 80.3175 66.2689 84.1889L79.3186 81.9793ZM251.074 61.2474L260.974 70.3363L261.009 70.2945L261.044 70.2534L251.074 61.2474ZM234.969 69.0221L232.796 55.497L221.747 57.4065V69.0221H234.969ZM234.969 70.5577H221.747V82.6299L233.295 84.1587L234.969 70.5577ZM242.929 72.5733L238.182 85.3708L238.234 85.3913L238.286 85.4119L242.929 72.5733ZM249.5 76.6044L240.816 86.9441L240.841 86.9661L249.5 76.6044ZM256.997 90.1375L244.083 93.0772L244.09 93.1122L256.997 90.1375ZM256.72 110.101L243.923 106.651L243.892 106.775L243.863 106.902L256.72 110.101ZM253.295 118.643L264.338 126.185L264.383 126.114L264.426 126.043L253.295 118.643ZM247.464 125.17L255.205 136.286L255.302 136.213L255.398 136.139L247.464 125.17ZM240.152 128.913L236.326 115.789L236.302 115.796L240.152 128.913ZM198.225 130.257H185.002V143.968H198.225V130.257ZM198.225 16.0412V2.32991H185.002V16.0412H198.225ZM238.857 17.2889L235.11 30.4383L235.279 30.4901L235.449 30.5373L238.857 17.2889ZM246.168 20.7442L254.153 9.81498L253.975 9.6756L253.793 9.54253L246.168 20.7442ZM251.352 26.311L240.504 34.151L240.58 34.2641L240.658 34.3756L251.352 26.311ZM254.961 34.0853L267.755 30.6243L267.675 30.3078L267.581 29.9956L254.961 34.0853ZM219.975 37.1566V23.4453H206.753V37.1566H219.975ZM219.975 60.8635H206.753V74.5752H219.975V60.8635ZM230.712 58.752L222.247 48.2187L222.208 48.2516L222.171 48.285L230.712 58.752ZM232.563 56.4485L221.44 49.0339L221.254 49.335L221.083 49.6457L232.563 56.4485ZM233.951 53.0892L246.664 56.856L246.811 56.3224L246.916 55.7782L233.951 53.0892ZM234.229 51.1696L247.385 52.534L247.391 52.4725L247.396 52.411L234.229 51.1696ZM232.655 41.6677L244.089 34.7827L243.939 34.5143L243.777 34.2531L232.655 41.6677ZM230.619 39.2682L221.651 49.3433L221.86 49.5441L222.078 49.7352L230.619 39.2682ZM227.935 37.6365L231.879 24.5494L231.591 24.4562L231.299 24.3767L227.935 37.6365ZM219.975 109.141H206.753V122.853H219.975V109.141ZM232.193 106.838L223.933 96.1314L223.757 96.2761L223.588 96.4276L232.193 106.838ZM234.414 104.054L246.099 110.47L246.171 110.329L246.24 110.186L234.414 104.054ZM235.71 100.215L248.603 103.254L248.629 103.133L248.654 103.012L235.71 100.215ZM235.617 91.0013L222.673 93.7977L222.74 94.1323L222.823 94.4621L235.617 91.0013ZM234.321 87.0662L246.007 80.6507L245.88 80.4011L245.742 80.1577L234.321 87.0662ZM229.231 82.5551L225.049 95.5631L225.105 95.5823L225.16 95.6008L229.231 82.5551ZM219.975 81.9793V68.2676H206.753V81.9793H219.975ZM242.85 43.6832C242.85 49.6391 241.541 51.7205 241.103 52.2421L251.074 61.2474L261.044 70.2534C267.27 62.8401 269.294 53.212 269.294 43.6832H242.85ZM251.074 61.2474L241.173 52.159C240.632 52.7935 238.628 54.489 232.796 55.497L234.969 69.0221L237.143 82.5469C246.12 80.9955 254.852 77.508 260.974 70.3363L251.074 61.2474ZM234.969 69.0221H221.747V70.5577H234.969H248.191V69.0221H234.969ZM234.969 70.5577L233.295 84.1587C235.281 84.4219 236.886 84.8539 238.182 85.3708L242.929 72.5733L247.675 59.7756C244.158 58.3727 240.457 57.4614 236.643 56.9565L234.969 70.5577ZM242.929 72.5733L238.286 85.4119C239.333 85.8184 240.142 86.3354 240.816 86.9441L249.5 76.6044L258.184 66.2647C255.033 63.4182 251.461 61.2473 247.571 59.7347L242.929 72.5733ZM249.5 76.6044L240.841 86.9661C241.476 87.5372 242.115 88.3105 242.721 89.419L265.72 75.8832C263.735 72.2566 261.227 68.9995 258.16 66.2426L249.5 76.6044ZM242.721 89.419C243.372 90.6078 243.815 91.8144 244.083 93.0772L256.997 90.1375L269.912 87.1978C269.069 83.2133 267.661 79.4297 265.72 75.8832L242.721 89.419ZM256.997 90.1375L244.09 93.1122C244.462 94.8487 244.701 97.0309 244.701 99.7354H271.145C271.145 95.4013 270.766 91.1851 269.904 87.1628L256.997 90.1375ZM244.701 99.7354C244.701 102.423 244.411 104.706 243.923 106.651L256.72 110.101L269.516 113.552C270.633 109.098 271.145 104.471 271.145 99.7354H244.701ZM256.72 110.101L243.863 106.902C243.429 108.773 242.826 110.172 242.163 111.244L253.295 118.643L264.426 126.043C266.849 122.123 268.529 117.827 269.576 113.301L256.72 110.101ZM253.295 118.643L242.252 111.102C241.348 112.525 240.427 113.504 239.531 114.201L247.464 125.17L255.398 136.139C258.944 133.38 261.91 130.008 264.338 126.185L253.295 118.643ZM247.464 125.17L239.723 114.054C238.704 114.817 237.592 115.392 236.326 115.789L240.152 128.913L243.978 142.038C248.018 140.771 251.781 138.85 255.205 136.286L247.464 125.17ZM240.152 128.913L236.302 115.796C234.855 116.253 233.082 116.546 230.897 116.546V143.968C235.375 143.968 239.773 143.365 244.002 142.03L240.152 128.913ZM230.897 116.546H198.225V130.257V143.968H230.897V116.546ZM198.225 130.257H211.447V16.0412H198.225H185.002V130.257H198.225ZM198.225 16.0412V29.7525H230.064V2.32991H198.225V16.0412ZM230.064 29.7525C232.082 29.7525 233.738 30.0181 235.11 30.4383L238.857 17.2889L242.602 4.13956C238.545 2.89612 234.339 2.32991 230.064 2.32991V29.7525ZM238.857 17.2889L235.449 30.5373C236.893 30.9365 237.866 31.4505 238.543 31.9459L246.168 20.7442L253.793 9.54253C250.274 6.96652 246.373 5.17703 242.263 4.0406L238.857 17.2889ZM246.168 20.7442L238.184 31.6733C239.148 32.4309 239.9 33.2528 240.504 34.151L251.352 26.311L262.199 18.4709C259.964 15.1461 257.261 12.2568 254.153 9.81498L246.168 20.7442ZM251.352 26.311L240.658 34.3756C241.122 35.0367 241.748 36.2102 242.341 38.175L254.961 34.0853L267.581 29.9956C266.322 25.8177 264.543 21.8083 262.044 18.2463L251.352 26.311ZM254.961 34.0853L242.167 37.5463C242.378 38.3832 242.548 39.3064 242.666 40.3259L268.922 37.0587C268.67 34.8788 268.285 32.7308 267.755 30.6243L254.961 34.0853ZM242.666 40.3259C242.784 41.3462 242.85 42.4627 242.85 43.6832H269.294C269.294 41.4485 269.174 39.2377 268.922 37.0587L242.666 40.3259ZM224.51 23.4453H219.975V37.1566V50.868H224.51V23.4453ZM219.975 37.1566H206.753V60.8635H219.975H233.197V37.1566H219.975ZM219.975 60.8635V74.5752H224.51V47.1522H219.975V60.8635ZM224.51 74.5752C229.503 74.5752 234.798 73.1279 239.252 69.2195L230.712 58.752L222.171 48.285C222.714 47.8084 223.307 47.4875 223.833 47.3086C224.327 47.1403 224.597 47.1522 224.51 47.1522V74.5752ZM230.712 58.752L239.176 69.2853C241.167 67.5646 242.792 65.5205 244.042 63.2512L232.563 56.4485L221.083 49.6457C221.346 49.168 221.736 48.6596 222.247 48.2187L230.712 58.752ZM232.563 56.4485L243.685 63.8629C245.119 61.5497 246.043 59.1118 246.664 56.856L233.951 53.0892L221.237 49.3224C221.184 49.5168 221.155 49.5783 221.173 49.5356C221.19 49.4935 221.269 49.3099 221.44 49.0339L232.563 56.4485ZM233.951 53.0892L246.916 55.7782C247.123 54.7067 247.28 53.6248 247.385 52.534L234.229 51.1696L221.072 49.8053C221.054 49.9941 221.026 50.1919 220.985 50.4002L233.951 53.0892ZM234.229 51.1696L247.396 52.411C247.494 51.2961 247.544 50.178 247.544 49.0581H221.099C221.099 49.3458 221.087 49.6354 221.061 49.9282L234.229 51.1696ZM247.544 49.0581C247.544 44.3676 246.658 39.3703 244.089 34.7827L232.655 41.6677L221.221 48.5526C221.055 48.2566 221.019 48.0791 221.03 48.1241C221.042 48.1824 221.099 48.4707 221.099 49.0581H247.544ZM232.655 41.6677L243.777 34.2531C242.496 32.1861 240.94 30.3634 239.159 28.8012L230.619 39.2682L222.078 49.7352C221.902 49.5806 221.703 49.3576 221.533 49.0822L232.655 41.6677ZM230.619 39.2682L239.587 29.193C237.427 27.1259 234.838 25.5085 231.879 24.5494L227.935 37.6365L223.991 50.7237C223.006 50.4044 222.206 49.8748 221.651 49.3433L230.619 39.2682ZM227.935 37.6365L231.299 24.3767C229.128 23.7841 226.855 23.4453 224.51 23.4453V50.868C224.452 50.868 224.429 50.8644 224.429 50.8644C224.429 50.8644 224.481 50.8721 224.57 50.8964L227.935 37.6365ZM219.975 109.141V122.853H225.621V95.4301H219.975V109.141ZM225.621 122.853C230.877 122.853 236.284 121.259 240.797 117.248L232.193 106.838L223.588 96.4276C224.029 96.0347 224.539 95.7448 225.02 95.5761C225.473 95.4171 225.716 95.4301 225.621 95.4301V122.853ZM232.193 106.838L240.452 117.544C242.793 115.603 244.698 113.214 246.099 110.47L234.414 104.054L222.728 97.639C223.018 97.0706 223.443 96.5373 223.933 96.1314L232.193 106.838ZM234.414 104.054L246.24 110.186C247.322 107.942 248.087 105.606 248.603 103.254L235.71 100.215L222.816 97.1769C222.714 97.6396 222.616 97.8638 222.587 97.9228L234.414 104.054ZM235.71 100.215L248.654 103.012C249.151 100.538 249.395 98.0332 249.395 95.5123H222.95C222.95 96.1911 222.885 96.8211 222.765 97.4189L235.71 100.215ZM249.395 95.5123C249.395 92.8201 249.068 90.1533 248.411 87.5406L235.617 91.0013L222.823 94.4621C222.906 94.7932 222.95 95.1332 222.95 95.5123H249.395ZM235.617 91.0013L248.561 88.2049C248.065 85.7355 247.277 83.1399 246.007 80.6507L234.321 87.0662L222.636 93.4817C222.55 93.3137 222.53 93.2397 222.549 93.2966C222.567 93.3528 222.615 93.5126 222.673 93.7977L235.617 91.0013ZM234.321 87.0662L245.742 80.1577C243.097 75.4547 238.999 71.4216 233.301 69.5095L229.231 82.5551L225.16 95.6008C224.53 95.3889 223.947 95.042 223.487 94.6348C223.051 94.2482 222.887 93.9527 222.9 93.9746L234.321 87.0662ZM229.231 82.5551L233.412 69.5472C230.817 68.6505 228.187 68.2676 225.621 68.2676V95.6906C225.646 95.6906 225.423 95.692 225.049 95.5631L229.231 82.5551ZM225.621 68.2676H219.975V81.9793V95.6906H225.621V68.2676ZM219.975 81.9793H206.753V109.141H219.975H233.197V81.9793H219.975ZM260.302 130.257L247.238 128.139L244.852 143.968H260.302V130.257ZM277.517 16.0412V2.32991H266.201L264.453 13.9238L277.517 16.0412ZM308.616 16.0412L321.679 13.9238L319.932 2.32991H308.616V16.0412ZM325.831 130.257V143.968H341.281L338.895 128.139L325.831 130.257ZM304.08 130.257L290.965 132L292.445 143.968H304.08V130.257ZM300.841 104.054L313.956 102.311L312.477 90.3432H300.841V104.054ZM285.292 104.054V90.3432H273.656L272.177 102.311L285.292 104.054ZM282.052 130.257V143.968H293.688L295.167 132L282.052 130.257ZM287.883 82.9391L274.736 81.4768L273.168 96.6504H287.883V82.9391ZM298.249 82.9391V96.6504H312.965L311.396 81.4768L298.249 82.9391ZM294.547 47.1385L281.375 48.3263L281.387 48.4635L281.4 48.6004L294.547 47.1385ZM294.27 43.2033L281.066 43.924L281.068 43.9639L294.27 43.2033ZM294.084 39.3642L280.876 39.9868L280.877 40.0163L294.084 39.3642ZM293.992 34.2773H307.214V20.566H293.992V34.2773ZM292.141 34.2773V20.566H278.919V34.2773H292.141ZM292.141 38.4044L305.261 40.1051L305.363 39.258V38.4044H292.141ZM291.956 41.8596L305.112 43.224L305.118 43.1625L305.124 43.101L291.956 41.8596ZM291.585 47.1385L278.62 44.4495L278.503 45.0587L278.439 45.6764L291.585 47.1385ZM260.302 130.257L273.365 132.375L290.581 18.1586L277.517 16.0412L264.453 13.9238L247.238 128.139L260.302 130.257ZM277.517 16.0412V29.7525H308.616V16.0412V2.32991H277.517V16.0412ZM308.616 16.0412L295.552 18.1586L312.767 132.375L325.831 130.257L338.895 128.139L321.679 13.9238L308.616 16.0412ZM325.831 130.257V116.546H304.08V130.257V143.968H325.831V130.257ZM304.08 130.257L317.196 128.513L313.956 102.311L300.841 104.054L287.726 105.798L290.965 132L304.08 130.257ZM300.841 104.054V90.3432H285.292V104.054V117.766H300.841V104.054ZM285.292 104.054L272.177 102.311L268.937 128.513L282.052 130.257L295.167 132L298.407 105.798L285.292 104.054ZM282.052 130.257V116.546H260.302V130.257V143.968H282.052V130.257ZM287.883 82.9391V96.6504H298.249V82.9391V69.2277H287.883V82.9391ZM298.249 82.9391L311.396 81.4768L307.694 45.6764L294.547 47.1385L281.4 48.6004L285.103 84.4014L298.249 82.9391ZM294.547 47.1385L307.72 45.9507C307.605 44.5841 307.524 43.419 307.471 42.4428L294.27 43.2033L281.068 43.9639C281.139 45.2912 281.242 46.7496 281.375 48.3263L294.547 47.1385ZM294.27 43.2033L307.473 42.4827C307.413 41.292 307.352 40.0352 307.292 38.712L294.084 39.3642L280.877 40.0163C280.94 41.3806 281.002 42.6832 281.066 43.924L294.27 43.2033ZM294.084 39.3642L307.293 38.7415C307.243 37.6056 307.214 36.1295 307.214 34.2773H293.992H280.77C280.77 36.3922 280.802 38.3074 280.876 39.9868L294.084 39.3642ZM293.992 34.2773V20.566H292.141V34.2773V47.9886H293.992V34.2773ZM292.141 34.2773H278.919V37.0607H305.363V34.2773H292.141ZM278.919 37.0607V38.3991L292.141 38.4044H305.363V37.0607H278.919ZM292.141 38.4044L279.02 36.7037C278.901 37.6971 278.826 38.75 278.826 39.8441H305.27C305.27 40.0423 305.257 40.1354 305.261 40.1051L292.141 38.4044ZM278.826 39.8441C278.826 40.0293 278.817 40.2851 278.788 40.6183L291.956 41.8596L305.124 43.101C305.218 42.0265 305.27 40.9386 305.27 39.8441H278.826ZM291.956 41.8596L278.799 40.4953C278.694 41.5862 278.641 42.6814 278.641 43.7792H305.085C305.085 43.5973 305.094 43.4127 305.112 43.224L291.956 41.8596ZM278.641 43.7792C278.641 44.0806 278.63 44.2863 278.62 44.4079C278.61 44.531 278.603 44.5381 278.62 44.4495L291.585 47.1385L304.551 49.8275C304.95 47.7605 305.085 45.7033 305.085 43.7792H278.641ZM291.585 47.1385L278.439 45.6764L274.736 81.4768L287.883 82.9391L301.03 84.4014L304.732 48.6004L291.585 47.1385ZM387.615 60.3836L376.214 53.4399L376.162 53.5314L376.112 53.6237L387.615 60.3836ZM383.728 65.4705L374.776 55.3799L374.677 55.4745L374.579 55.5711L383.728 65.4705ZM378.174 69.214L383.209 81.8929L383.378 81.8202L383.545 81.7434L378.174 69.214ZM371.418 70.9417L370.069 57.3016L358.196 58.5644V70.9417H371.418ZM371.418 72.4773H358.196V86.1886H371.418V72.4773ZM378.174 74.6849L385.436 63.2259L385.297 63.1309L385.155 63.0397L378.174 74.6849ZM383.265 80.5396L395.092 74.4079L395.03 74.2797L394.966 74.1535L383.265 80.5396ZM384.006 82.4592L371.341 86.3991L371.511 86.9839L371.729 87.5516L384.006 82.4592ZM384.653 84.3788L397.484 81.0661L397.408 80.7507L397.318 80.4388L384.653 84.3788ZM395.668 130.257V143.968H412.585L408.498 126.944L395.668 130.257ZM373.917 130.257L361.173 133.909L363.854 143.968H373.917V130.257ZM361.052 81.9793L373.797 78.3273L371.116 68.2676H361.052V81.9793ZM354.018 81.9793V68.2676H340.795V81.9793H354.018ZM354.018 130.257V143.968H367.24V130.257H354.018ZM332.267 130.257H319.045V143.968H332.267V130.257ZM332.267 16.0412V2.32991H319.045V16.0412H332.267ZM373.177 17.4809L368.91 30.4588L369.079 30.5184L369.249 30.5732L373.177 17.4809ZM380.673 21.512L388.968 10.8343L388.881 10.7609L388.791 10.689L380.673 21.512ZM386.227 27.8467L375.134 35.3082L375.202 35.4163L375.272 35.5231L386.227 27.8467ZM389.837 36.0049L402.617 32.4888L402.575 32.3267L402.53 32.1657L389.837 36.0049ZM354.018 60.8635H340.795V74.5752H354.018V60.8635ZM362.44 60.3836L358.902 47.1725L358.805 47.2002L358.709 47.2295L362.44 60.3836ZM365.494 58.8479L373.314 69.9051L373.563 69.7159L373.803 69.515L365.494 58.8479ZM368.919 53.0892L381.645 56.8113L381.723 56.5221L381.79 56.2296L368.919 53.0892ZM366.605 40.4199L356.546 49.3178L356.609 49.3949L356.673 49.471L366.605 40.4199ZM354.018 37.1566V23.4453H340.795V37.1566H354.018ZM377.818 45.7948C377.818 49.5796 377.07 51.9292 376.214 53.4399L387.615 60.3836L399.017 67.3273C402.728 60.7758 404.262 53.3995 404.262 45.7948H377.818ZM387.615 60.3836L376.112 53.6237C375.731 54.3212 375.291 54.8887 374.776 55.3799L383.728 65.4705L392.681 75.5617C395.25 73.1094 397.402 70.2856 399.119 67.1434L387.615 60.3836ZM383.728 65.4705L374.579 55.5711C374.385 55.7642 373.882 56.1877 372.805 56.6842L378.174 69.214L383.545 81.7434C386.91 80.1927 390.11 78.1202 392.877 75.3704L383.728 65.4705ZM378.174 69.214L373.14 56.5351C372.295 56.896 371.293 57.1714 370.069 57.3016L371.418 70.9417L372.767 84.5817C376.356 84.1998 379.858 83.3237 383.209 81.8929L378.174 69.214ZM371.418 70.9417H358.196V72.4773H371.418H384.64V70.9417H371.418ZM371.418 72.4773V86.1886C371.267 86.1886 371.131 86.1756 371.019 86.1571C370.907 86.1386 370.833 86.1173 370.8 86.1071C370.736 86.0858 370.866 86.118 371.194 86.3299L378.174 74.6849L385.155 63.0397C381.22 60.5026 376.581 58.7657 371.418 58.7657V72.4773ZM378.174 74.6849L370.914 86.1434C371.155 86.3079 371.345 86.493 371.565 86.9256L383.265 80.5396L394.966 74.1535C392.718 69.7234 389.515 66.005 385.436 63.2259L378.174 74.6849ZM383.265 80.5396L371.439 86.6713C371.432 86.6562 371.389 86.5643 371.341 86.3991L384.006 82.4592L396.67 78.5192C396.253 77.0741 395.716 75.7022 395.092 74.4079L383.265 80.5396ZM384.006 82.4592L371.729 87.5516C371.835 87.8251 371.92 88.0808 371.989 88.3187L384.653 84.3788L397.318 80.4388C397.017 79.3968 396.67 78.3725 396.282 77.3668L384.006 82.4592ZM384.653 84.3788L371.823 87.6914L382.837 133.569L395.668 130.257L408.498 126.944L397.484 81.0661L384.653 84.3788ZM395.668 130.257V116.546H373.917V130.257V143.968H395.668V130.257ZM373.917 130.257L386.662 126.605L373.797 78.3273L361.052 81.9793L348.307 85.6313L361.173 133.909L373.917 130.257ZM361.052 81.9793V68.2676H354.018V81.9793V95.6906H361.052V81.9793ZM354.018 81.9793H340.795V130.257H354.018H367.24V81.9793H354.018ZM354.018 130.257V116.546H332.267V130.257V143.968H354.018V130.257ZM332.267 130.257H345.489V16.0412H332.267H319.045V130.257H332.267ZM332.267 16.0412V29.7525H364.661V2.32991H332.267V16.0412ZM364.661 29.7525C366.22 29.7525 367.614 30.0004 368.91 30.4588L373.177 17.4809L377.443 4.50301C373.31 3.04184 369.027 2.32991 364.661 2.32991V29.7525ZM373.177 17.4809L369.249 30.5732C370.56 30.9963 371.63 31.5884 372.556 32.3351L380.673 21.512L388.791 10.689C385.275 7.85241 381.347 5.75713 377.105 4.38857L373.177 17.4809ZM380.673 21.512L372.379 32.1898C373.562 33.1781 374.452 34.2176 375.134 35.3082L386.227 27.8467L397.32 20.3851C395.041 16.7408 392.228 13.5572 388.968 10.8343L380.673 21.512ZM386.227 27.8467L375.272 35.5231C375.96 36.581 376.618 37.976 377.143 39.8441L389.837 36.0049L402.53 32.1657C401.328 27.891 399.579 23.8473 397.183 20.1702L386.227 27.8467ZM389.837 36.0049L377.057 39.521C377.552 41.458 377.818 43.5364 377.818 45.7948H404.262C404.262 41.2706 403.726 36.8224 402.617 32.4888L389.837 36.0049ZM354.018 60.8635V74.5752H359.108V47.1522H354.018V60.8635ZM359.108 74.5752C361.452 74.5752 363.826 74.2529 366.171 73.5379L362.44 60.3836L358.709 47.2295C358.957 47.1541 359.108 47.1522 359.108 47.1522V74.5752ZM362.44 60.3836L365.979 73.5948C368.623 72.8331 371.093 71.5936 373.314 69.9051L365.494 58.8479L357.675 47.7911C358.045 47.5101 358.479 47.2944 358.902 47.1725L362.44 60.3836ZM365.494 58.8479L373.803 69.515C377.956 66.0356 380.383 61.4488 381.645 56.8113L368.919 53.0892L356.193 49.3671C356.138 49.5703 356.139 49.4732 356.3 49.2035C356.472 48.9148 356.762 48.537 357.187 48.1814L365.494 58.8479ZM368.919 53.0892L381.79 56.2296C382.347 53.7764 382.511 51.3025 382.511 49.0581H356.067C356.067 49.5006 356.05 49.7961 356.035 49.9656C356.018 50.1404 356.009 50.1199 356.048 49.9487L368.919 53.0892ZM382.511 49.0581C382.511 43.0936 381.015 36.6519 376.538 31.3689L366.605 40.4199L356.673 49.471C356.493 49.2576 356.345 49.036 356.232 48.8259C356.12 48.6181 356.061 48.4561 356.033 48.3683C355.982 48.2032 356.067 48.3783 356.067 49.0581H382.511ZM366.605 40.4199L376.665 31.522C371.941 25.7782 365.485 23.4453 359.108 23.4453V50.868C359.273 50.868 358.912 50.8938 358.272 50.6152C357.58 50.314 356.969 49.8325 356.546 49.3178L366.605 40.4199ZM359.108 23.4453H354.018V37.1566V50.868H359.108V23.4453ZM354.018 37.1566H340.795V60.8635H354.018H367.24V37.1566H354.018ZM402.588 16.0412V2.32991H389.366V16.0412H402.588ZM451.365 22.9517L460.196 12.7471L460.113 12.67L460.029 12.5943L451.365 22.9517ZM457.566 31.4939L445.828 37.8054L445.872 37.8936L445.917 37.981L457.566 31.4939ZM457.566 114.9L445.975 108.302L445.924 108.398L445.875 108.496L457.566 114.9ZM451.365 123.346L460.053 133.681L460.125 133.617L460.196 133.551L451.365 123.346ZM442.85 128.433L438.387 115.526L438.311 115.555L438.233 115.584L442.85 128.433ZM402.588 130.257H389.366V143.968H402.588V130.257ZM424.339 109.141H411.116V122.853H424.339V109.141ZM424.339 37.1566V23.4453H411.116V37.1566H424.339ZM402.588 16.0412V29.7525H432.298V2.32991H402.588V16.0412ZM432.298 29.7525C437.111 29.7525 440.274 31.1265 442.7 33.3091L451.365 22.9517L460.029 12.5943C452.212 5.56295 442.664 2.32991 432.298 2.32991V29.7525ZM451.365 22.9517L442.533 33.1563C443.578 34.1284 444.718 35.5867 445.828 37.8054L457.566 31.4939L469.304 25.1823C466.958 20.4905 463.964 16.2541 460.196 12.7471L451.365 22.9517ZM457.566 31.4939L445.917 37.981C447.073 40.2127 447.947 42.6962 448.503 45.4944L474.404 39.9585C473.357 34.6944 471.638 29.6856 469.215 25.0067L457.566 31.4939ZM448.503 45.4944C449.161 48.8106 449.527 52.6011 449.527 56.9284H475.971C475.971 51.0178 475.473 45.3444 474.404 39.9585L448.503 45.4944ZM449.527 56.9284V89.3697H475.971V56.9284H449.527ZM449.527 89.3697C449.527 93.9335 449.153 97.7226 448.519 100.825L474.387 106.516C475.481 101.172 475.971 95.4273 475.971 89.3697H449.527ZM448.519 100.825C447.881 103.941 446.99 106.385 445.975 108.302L457.566 114.9L469.156 121.499C471.597 116.889 473.297 111.847 474.387 106.516L448.519 100.825ZM457.566 114.9L445.875 108.496C444.773 110.658 443.623 112.128 442.533 113.142L451.365 123.346L460.196 133.551C463.919 130.086 466.904 125.925 469.257 121.305L457.566 114.9ZM451.365 123.346L442.676 113.011C441.617 113.968 440.244 114.836 438.387 115.526L442.85 128.433L447.312 141.34C451.995 139.599 456.299 137.075 460.053 133.681L451.365 123.346ZM442.85 128.433L438.233 115.584C436.776 116.148 434.854 116.546 432.298 116.546V143.968C437.517 143.968 442.629 143.15 447.466 141.282L442.85 128.433ZM432.298 116.546H402.588V130.257V143.968H432.298V116.546ZM402.588 130.257H415.81V16.0412H402.588H389.366V130.257H402.588ZM424.339 109.141V122.853H427.393V95.4301H424.339V109.141ZM427.393 122.853C435.408 122.853 443.184 119.685 448.36 112.163C452.949 105.493 454.221 97.1762 454.221 89.3697H427.776C427.776 91.8939 427.555 93.6689 427.284 94.8467C427.016 96.019 426.758 96.3446 426.834 96.2342C426.968 96.0389 427.302 95.6995 427.749 95.4829C428.127 95.2998 428.122 95.4301 427.393 95.4301V122.853ZM454.221 89.3697V56.9284H427.776V89.3697H454.221ZM454.221 56.9284C454.221 49.1215 452.949 40.8048 448.36 34.1351C443.184 26.6134 435.408 23.4453 427.393 23.4453V50.868C428.122 50.868 428.127 50.998 427.749 50.8152C427.302 50.5985 426.968 50.2594 426.834 50.064C426.758 49.9538 427.016 50.2791 427.284 51.4511C427.555 52.629 427.776 54.4043 427.776 56.9284H454.221ZM427.393 23.4453H424.339V37.1566V50.868H427.393V23.4453ZM424.339 37.1566H411.116V109.141H424.339H437.561V37.1566H424.339Z" fill="white"/>
</g>
<path d="M161.08 84.7699C161.08 96.4451 145.159 112.069 133.9 112.069C122.641 112.069 106.72 96.4451 106.72 84.7699C106.72 73.0954 122.641 84.7692 133.9 84.7692C145.159 84.7692 161.08 73.0954 161.08 84.7699Z" fill="white"/>
<path d="M127.105 55.6975C127.105 61.535 122.542 66.2671 116.913 66.2671C111.284 66.2671 106.72 61.535 106.72 55.6975C106.72 49.8601 111.284 45.1279 116.913 45.1279C122.542 45.1279 127.105 49.8601 127.105 55.6975Z" fill="white"/>
<path d="M161.081 55.6975C161.081 61.535 156.517 66.2671 150.888 66.2671C145.259 66.2671 140.696 61.535 140.696 55.6975C140.696 49.8601 145.259 45.1279 150.888 45.1279C156.517 45.1279 161.081 49.8601 161.081 55.6975Z" fill="white"/>
</svg>
