<svg width="64" height="76" viewBox="0 0 64 76" fill="none" xmlns="http://www.w3.org/2000/svg">
<path d="M63.8225 55.4511C62.0982 59.3687 61.2673 61.1197 59.0494 64.5771C55.9443 69.4085 51.5648 75.4414 46.1544 75.4797C41.3375 75.5245 40.0942 72.2652 33.553 72.3227C27.018 72.3547 25.656 75.5436 20.8329 75.4925C15.4162 75.4414 11.2741 70.0093 8.16904 65.1842C-0.515103 51.655 -1.4335 35.7932 3.93318 27.3574C7.73171 21.3757 13.7356 17.8608 19.3772 17.8608C25.125 17.8608 28.7361 21.0881 33.4843 21.0881C38.095 21.0881 40.9002 17.8544 47.5476 17.8544C52.5706 17.8544 57.8811 20.6535 61.6796 25.4849C49.2594 32.4508 51.2774 50.5942 63.8225 55.4511ZM42.4995 12.4542C44.9173 9.27801 46.7541 4.7981 46.0856 0.235107C42.1434 0.50991 37.5327 3.08538 34.84 6.42135C32.3972 9.46334 30.373 13.9752 31.1602 18.3401C35.4647 18.4807 39.9193 15.8541 42.4995 12.4542Z" fill="black"/>
</svg>
