<svg width="615" height="188" viewBox="0 0 615 188" fill="none" xmlns="http://www.w3.org/2000/svg">
<mask id="mask0_6990_119" style="mask-type:luminance" maskUnits="userSpaceOnUse" x="0" y="-1" width="615" height="189">
<path d="M615 -0.00012207H0V187.917H615V-0.00012207Z" fill="white"/>
</mask>
<g mask="url(#mask0_6990_119)">
<mask id="mask1_6990_119" style="mask-type:luminance" maskUnits="userSpaceOnUse" x="0" y="-1" width="615" height="189">
<path d="M615 -0.00012207H0V187.917H615V-0.00012207Z" fill="white"/>
<path d="M94.2512 54.4265C94.2512 64.0728 92.0987 71.3674 87.7937 76.3102C83.4893 81.1733 76.5534 84.402 66.9868 85.9969V87.9102C70.7337 88.3886 74.1618 89.2257 77.2709 90.4215C80.4598 91.6173 83.2899 93.2915 85.7608 95.444C88.1525 97.5171 90.1854 100.028 91.8596 102.978C93.5337 105.927 94.7296 109.036 95.4471 112.305C96.2449 115.893 96.6429 119.879 96.6429 124.264C96.6429 128.887 96.1253 133.192 95.0883 137.179C94.1317 141.165 92.6574 144.712 90.6637 147.821C88.5112 151.09 86 153.8 83.1305 155.952C80.2605 158.025 77.1115 159.581 73.6834 160.617C70.0162 161.733 66.0301 162.291 61.7251 162.291H19.5122V19.9865H60.6489C64.7147 19.9865 68.5015 20.5047 72.0093 21.5411C75.5968 22.4977 78.7457 23.9327 81.4563 25.8461C84.0872 27.8391 86.3195 30.1511 88.1525 32.7819C90.0658 35.4127 91.6204 38.6415 92.8162 42.4682C93.2946 44.3018 93.6533 46.2151 93.8925 48.2082C94.1317 50.2012 94.2512 52.274 94.2512 54.4265ZM53.4739 46.2948H47.6143V75.8319H53.4739C56.7424 75.8319 59.4131 74.9549 61.4859 73.2011C62.4426 72.4039 63.2398 71.4472 63.8776 70.3311C64.5951 69.2149 65.193 67.8198 65.6714 66.1456C65.8307 65.3485 65.9503 64.5512 66.0301 63.754C66.1098 62.877 66.1497 62.0001 66.1497 61.1232C66.1497 57.456 65.4322 54.3866 63.9972 51.9152C63.2797 50.7991 62.4027 49.8026 61.3664 48.9257C60.3299 47.969 59.174 47.2914 57.8984 46.8927C56.3837 46.4941 54.9089 46.2948 53.4739 46.2948ZM47.6143 135.983H54.9089C58.3369 135.983 61.167 135.026 63.3993 133.113C64.5951 132.156 65.5518 131 66.2693 129.645C66.9868 128.21 67.5448 126.615 67.9434 124.861C68.342 122.948 68.5413 120.995 68.5413 119.002C68.5413 117.089 68.3022 115.215 67.8238 113.381C67.4252 111.468 66.8672 109.834 66.1497 108.479C64.4755 105.609 62.2831 103.735 59.5726 102.858C58.1376 102.38 56.583 102.141 54.9089 102.141H47.6143V135.983ZM101.524 90.3019C101.524 82.409 102.76 74.9549 105.232 67.9394C107.704 60.8441 111.171 54.267 115.635 48.2082C120.021 42.229 125.242 37.047 131.301 32.6623C137.44 28.2776 144.017 24.8894 151.032 22.4977C154.54 21.3019 158.168 20.3851 161.914 19.7473C165.741 19.1095 169.608 18.7906 173.514 18.7906C181.566 18.7906 189.14 20.0662 196.234 22.6173C203.33 25.0887 209.828 28.437 215.726 32.6623C222.503 37.6848 228.004 43.3052 232.229 49.5236C236.455 55.6622 239.604 61.761 241.676 67.8198C242.872 71.4073 243.789 75.0745 244.426 78.8215C245.065 82.5685 245.383 86.3958 245.383 90.3019C245.383 98.115 244.148 105.728 241.676 113.142C239.284 120.556 235.897 127.333 231.511 133.471C227.048 139.53 221.746 144.832 215.607 149.376C209.548 153.841 203.051 157.268 196.115 159.659C188.86 162.211 181.327 163.486 173.514 163.486C165.542 163.486 157.968 162.211 150.793 159.659C143.618 157.108 137.081 153.641 131.181 149.257C125.202 144.792 119.98 139.57 115.516 133.591C111.131 127.612 107.704 120.836 105.232 113.262C104.036 109.674 103.119 105.967 102.481 102.141C101.844 98.2346 101.524 94.2883 101.524 90.3019ZM129.627 90.5411C129.627 95.4039 130.384 100.187 131.899 104.891C133.414 109.595 135.486 113.74 138.117 117.328C140.987 121.314 144.256 124.702 147.923 127.492C151.591 130.203 155.537 132.236 159.762 133.591C164.226 135.186 168.85 135.983 173.633 135.983C178.417 135.983 183.001 135.225 187.385 133.711C191.771 132.116 195.756 129.924 199.344 127.134C202.931 124.423 206.08 121.195 208.791 117.447C211.502 113.621 213.574 109.435 215.009 104.891C215.726 102.659 216.285 100.347 216.683 97.9552C217.082 95.5636 217.281 93.0925 217.281 90.5411C217.281 85.8372 216.524 81.253 215.009 76.7886C213.495 72.2444 211.421 68.1786 208.791 64.5911C203.21 57.0174 196.035 51.6761 187.266 48.5669C182.881 47.0522 178.337 46.2948 173.633 46.2948C169.807 46.2948 165.661 46.9326 161.197 48.2082C156.733 49.404 152.268 51.6362 147.803 54.9048C144.136 57.6153 140.908 60.8043 138.117 64.4715C135.407 68.1387 133.334 72.1647 131.899 76.5494C131.181 78.7816 130.623 81.0936 130.224 83.4852C129.826 85.7979 129.627 88.1494 129.627 90.5411ZM330.849 54.4265C330.849 64.0728 328.697 71.3674 324.392 76.3102C320.087 81.1733 313.151 84.402 303.584 85.9969V87.9102C307.331 88.3886 310.759 89.2257 313.868 90.4215C317.057 91.6173 319.887 93.2915 322.359 95.444C324.751 97.5171 326.784 100.028 328.458 102.978C330.132 105.927 331.328 109.036 332.045 112.305C332.842 115.893 333.241 119.879 333.241 124.264C333.241 128.887 332.723 133.192 331.686 137.179C330.73 141.165 329.255 144.712 327.262 147.821C325.109 151.09 322.598 153.8 319.728 155.952C316.858 158.025 313.709 159.581 310.281 160.617C306.613 161.733 302.628 162.291 298.323 162.291H256.11V19.9865H297.246C301.312 19.9865 305.099 20.5047 308.607 21.5411C312.194 22.4977 315.343 23.9327 318.054 25.8461C320.685 27.8391 322.917 30.1511 324.751 32.7819C326.664 35.4127 328.219 38.6415 329.414 42.4682C329.893 44.3018 330.251 46.2151 330.491 48.2082C330.73 50.2012 330.849 52.274 330.849 54.4265ZM290.071 46.2948H284.212V75.8319H290.071C293.339 75.8319 296.01 74.9549 298.083 73.2011C299.04 72.4039 299.837 71.4472 300.475 70.3311C301.193 69.2149 301.791 67.8198 302.269 66.1456C302.428 65.3485 302.547 64.5512 302.628 63.754C302.707 62.877 302.747 62.0001 302.747 61.1232C302.747 57.456 302.03 54.3866 300.595 51.9152C299.877 50.7991 299 49.8026 297.964 48.9257C296.927 47.969 295.771 47.2914 294.496 46.8927C292.981 46.4941 291.506 46.2948 290.071 46.2948ZM284.212 135.983H291.506C294.934 135.983 297.764 135.026 299.997 133.113C301.193 132.156 302.149 131 302.867 129.645C303.584 128.21 304.142 126.615 304.541 124.861C304.939 122.948 305.139 120.995 305.139 119.002C305.139 117.089 304.9 115.215 304.421 113.381C304.022 111.468 303.465 109.834 302.747 108.479C301.073 105.609 298.88 103.735 296.17 102.858C294.735 102.38 293.181 102.141 291.506 102.141H284.212V135.983ZM336.314 162.291L358.557 19.9865H398.737L420.979 162.291H392.877L388.692 129.645H368.602L364.416 162.291H336.314ZM371.95 103.336H385.343L380.56 58.7315C380.4 56.8978 380.281 55.2636 380.201 53.8286C380.122 52.3139 380.042 50.7194 379.962 49.0452C379.883 47.2914 379.843 45.1787 379.843 42.7073H377.451V46.1752C377.451 46.7333 377.451 47.2914 377.451 47.8494C377.371 48.4872 377.331 49.0851 377.331 49.6432C377.331 50.4403 377.291 51.2774 377.212 52.1544C377.132 52.9516 377.092 53.7489 377.092 54.5461C377.092 56.1405 376.973 57.5356 376.733 58.7315L371.95 103.336ZM505.23 57.0573C505.23 64.1526 503.756 70.2115 500.805 75.234C499.451 77.6256 497.776 79.7383 495.783 81.5719C493.87 83.4055 491.478 84.9601 488.608 86.2361C485.898 87.3525 482.987 88.07 479.878 88.3886V90.3019C482.748 90.3019 485.658 91.2184 488.608 93.0523C491.398 94.8862 493.591 97.3172 495.185 100.347C495.584 101.144 495.902 101.942 496.142 102.739C496.461 103.536 496.74 104.333 496.979 105.13L511.209 162.291H483.107L466.485 102.141H457.397V162.291H429.295V19.9865H471.149C474.975 19.9865 478.643 20.5844 482.15 21.7802C485.738 22.8964 488.967 24.5705 491.837 26.8027C494.707 29.1147 497.098 31.7455 499.012 34.6952C501.005 37.6449 502.56 41.0331 503.675 44.8598C504.712 48.7662 505.23 52.832 505.23 57.0573ZM457.397 75.8319H463.974C465.489 75.8319 466.924 75.6326 468.279 75.234C469.714 74.8353 471.029 74.1976 472.225 73.3206C474.298 71.6465 475.773 69.2548 476.65 66.1456C476.969 64.7903 477.128 63.1162 477.128 61.1232C477.128 56.579 475.972 52.9915 473.66 50.3606C471.349 47.6501 468.12 46.2948 463.974 46.2948H457.397V75.8319ZM520.15 19.9865H558.537C568.343 19.9865 576.554 22.8565 583.171 28.5965C586.28 31.3868 588.95 34.9344 591.183 39.2394C593.494 43.5444 595.168 48.2081 596.205 53.2306C597.321 58.6518 597.88 64.5512 597.88 70.929V111.349C597.88 117.966 597.321 123.905 596.205 129.166C595.089 134.428 593.415 139.092 591.183 143.158C588.95 147.383 586.28 150.891 583.171 153.681C580.062 156.391 576.394 158.504 572.169 160.018C568.103 161.533 563.559 162.291 558.537 162.291H520.15V19.9865ZM548.253 135.983H552.199C563.918 135.983 569.778 127.772 569.778 111.349V70.929C569.778 54.5062 563.918 46.2948 552.199 46.2948H548.253V135.983Z" fill="black"/>
</mask>
<g mask="url(#mask1_6990_119)">
<path d="M87.7935 76.3101L100.585 87.6342L100.631 87.5821L100.676 87.5308L87.7935 76.3101ZM66.9866 85.9967L64.1781 69.1454L49.9032 71.5246V85.9967H66.9866ZM66.9866 87.91H49.9032V102.951L64.8232 104.856L66.9866 87.91ZM77.2707 90.4213L71.1382 106.366L71.2051 106.392L71.2723 106.417L77.2707 90.4213ZM85.7606 95.4438L74.5411 108.326L74.5728 108.354L85.7606 95.4438ZM95.4468 112.305L78.7612 115.968L78.7708 116.011L95.4468 112.305ZM95.0881 137.178L78.555 132.879L78.5145 133.035L78.477 133.192L95.0881 137.178ZM90.6635 147.821L104.931 157.217L104.99 157.129L105.046 157.04L90.6635 147.821ZM83.1303 155.953L93.132 169.802L93.2567 169.712L93.3797 169.62L83.1303 155.953ZM73.6832 160.617L68.7395 144.265L68.7092 144.274L73.6832 160.617ZM19.512 162.291H2.42859V179.374H19.512V162.291ZM19.512 19.9863V2.90299H2.42859V19.9863H19.512ZM72.0091 21.5409L67.1685 37.9241L67.3871 37.9886L67.6073 38.0474L72.0091 21.5409ZM81.4561 25.8459L91.7722 12.2289L91.5424 12.0552L91.3075 11.8894L81.4561 25.8459ZM88.1522 32.7817L74.1376 42.5498L74.2359 42.6907L74.3369 42.8296L88.1522 32.7817ZM92.816 42.468L109.347 38.1558L109.243 37.7614L109.122 37.3724L92.816 42.468ZM47.6141 46.2946V29.2113H30.5307V46.2946H47.6141ZM47.6141 75.8317H30.5307V92.9155H47.6141V75.8317ZM61.4857 73.2009L50.5492 60.0771L50.4999 60.1182L50.4508 60.1597L61.4857 73.2009ZM63.8774 70.3309L49.5072 61.0929L49.2661 61.468L49.0449 61.8552L63.8774 70.3309ZM65.6711 66.1455L82.0971 70.8386L82.2871 70.1738L82.4227 69.4958L65.6711 66.1455ZM66.0299 63.7538L83.0284 65.4537L83.0361 65.3771L83.043 65.3004L66.0299 63.7538ZM63.997 51.9151L78.7704 43.3369L78.5762 43.0024L78.3671 42.6771L63.997 51.9151ZM61.3661 48.9255L49.7789 61.4784L50.0498 61.7285L50.3313 61.9666L61.3661 48.9255ZM57.8982 46.8926L62.9938 30.5869L62.6222 30.4708L62.2458 30.3717L57.8982 46.8926ZM47.6141 135.983H30.5307V153.066H47.6141V135.983ZM63.3991 133.113L52.7272 119.773L52.5011 119.953L52.2813 120.142L63.3991 133.113ZM66.2691 129.645L81.3671 137.638L81.46 137.462L81.5488 137.284L66.2691 129.645ZM67.9432 124.861L84.6017 128.647L84.6359 128.497L84.6675 128.345L67.9432 124.861ZM67.8236 113.381L51.0994 116.865L51.1861 117.282L51.2935 117.693L67.8236 113.381ZM66.1495 108.478L81.2475 100.485L81.0829 100.174L80.9056 99.8709L66.1495 108.478ZM59.5724 102.858L54.1701 119.065L54.2419 119.089L54.3138 119.112L59.5724 102.858ZM47.6141 102.14V85.0567H30.5307V102.14H47.6141ZM77.1682 54.4263C77.1682 61.8469 75.4779 64.4401 74.9118 65.0901L87.7935 76.3101L100.676 87.5308C108.72 78.2944 111.334 66.2985 111.334 54.4263H77.1682ZM87.7935 76.3101L75.0027 64.9865C74.3028 65.7771 71.7135 67.8895 64.1781 69.1454L66.9866 85.9967L69.795 102.848C81.3928 100.915 92.675 96.5696 100.585 87.6342L87.7935 76.3101ZM66.9866 85.9967H49.9032V87.91H66.9866H84.0699V85.9967H66.9866ZM66.9866 87.91L64.8232 104.856C67.3896 105.184 69.4642 105.722 71.1382 106.366L77.2707 90.4213L83.4033 74.4762C78.8588 72.7284 74.0774 71.5929 69.1498 70.9638L66.9866 87.91ZM77.2707 90.4213L71.2723 106.417C72.6246 106.924 73.6702 107.568 74.5411 108.326L85.7606 95.4438L96.9809 82.5612C92.9091 79.0147 88.294 76.3099 83.269 74.4252L77.2707 90.4213ZM85.7606 95.4438L74.5728 108.354C75.3936 109.065 76.2189 110.029 77.0027 111.41L106.717 94.5452C104.152 90.0267 100.912 85.9685 96.9493 82.5337L85.7606 95.4438ZM77.0027 111.41C77.8433 112.891 78.4159 114.394 78.7612 115.968L95.4468 112.305L112.133 108.642C111.044 103.678 109.225 98.9638 106.717 94.5452L77.0027 111.41ZM95.4468 112.305L78.7708 116.011C79.2517 118.175 79.5599 120.894 79.5599 124.263H113.726C113.726 118.863 113.237 113.61 112.124 108.599L95.4468 112.305ZM79.5599 124.263C79.5599 127.612 79.1849 130.457 78.555 132.879L95.0881 137.178L111.622 141.477C113.065 135.928 113.726 130.163 113.726 124.263H79.5599ZM95.0881 137.178L78.477 133.192C77.9172 135.524 77.1378 137.267 76.2819 138.602L90.6635 147.821L105.046 157.04C108.176 152.157 110.346 146.805 111.7 141.165L95.0881 137.178ZM90.6635 147.821L76.3965 138.425C75.2286 140.199 74.0379 141.418 72.8803 142.286L83.1303 155.953L93.3797 169.62C97.9623 166.182 101.794 161.981 104.931 157.217L90.6635 147.821ZM83.1303 155.953L73.1281 142.104C71.8118 143.054 70.3756 143.77 68.7395 144.265L73.6832 160.617L78.6269 176.969C83.8469 175.391 88.7083 172.997 93.132 169.802L83.1303 155.953ZM73.6832 160.617L68.7092 144.274C66.8389 144.843 64.5488 145.208 61.7249 145.208V179.374C67.5109 179.374 73.1931 178.623 78.6572 176.959L73.6832 160.617ZM61.7249 145.208H19.512V162.291V179.374H61.7249V145.208ZM19.512 162.291H36.5953V19.9863H19.512H2.42859V162.291H19.512ZM19.512 19.9863V37.0696H60.6486V2.90299H19.512V19.9863ZM60.6486 37.0696C63.2562 37.0696 65.3965 37.4005 67.1685 37.9241L72.0091 21.5409L76.8495 5.15769C71.606 3.60844 66.1726 2.90299 60.6486 2.90299V37.0696ZM72.0091 21.5409L67.6073 38.0474C69.4726 38.5448 70.73 39.1852 71.6044 39.8024L81.4561 25.8459L91.3075 11.8894C86.7608 8.67988 81.7204 6.4503 76.4108 5.03439L72.0091 21.5409ZM81.4561 25.8459L71.1402 39.4628C72.3861 40.4067 73.3576 41.4307 74.1376 42.5498L88.1522 32.7817L102.167 23.0136C99.2803 18.871 95.7876 15.2711 91.7722 12.2289L81.4561 25.8459ZM88.1522 32.7817L74.3369 42.8296C74.936 43.6533 75.7458 45.1154 76.5109 47.5635L92.816 42.468L109.122 37.3724C107.496 32.1671 105.196 27.1717 101.968 22.7337L88.1522 32.7817ZM92.816 42.468L76.2864 46.7801C76.5584 47.8228 76.7787 48.9731 76.9311 50.2434L110.854 46.1726C110.528 43.4567 110.031 40.7803 109.347 38.1558L92.816 42.468ZM76.9311 50.2434C77.0837 51.5145 77.1682 52.9056 77.1682 54.4263H111.334C111.334 51.642 111.18 48.8875 110.854 46.1726L76.9311 50.2434ZM53.4736 29.2113H47.6141V46.2946V63.378H53.4736V29.2113ZM47.6141 46.2946H30.5307V75.8317H47.6141H64.6974V46.2946H47.6141ZM47.6141 75.8317V92.9155H53.4736V58.7484H47.6141V75.8317ZM53.4736 92.9155C59.9235 92.9155 66.7653 91.1123 72.5205 86.2427L61.4857 73.2009L50.4508 60.1597C51.1525 59.566 51.9197 59.1662 52.5986 58.9433C53.2373 58.7335 53.5857 58.7484 53.4736 58.7484V92.9155ZM61.4857 73.2009L72.4221 86.3247C74.9949 84.1808 77.0942 81.634 78.7098 78.8066L63.8774 70.3309L49.0449 61.8552C49.385 61.26 49.8899 60.6265 50.5492 60.0771L61.4857 73.2009ZM63.8774 70.3309L78.2475 79.5688C80.1003 76.6867 81.2941 73.6492 82.0971 70.8386L65.6711 66.1455L49.2451 61.4523C49.1758 61.6946 49.1391 61.7712 49.1619 61.718C49.1844 61.6655 49.2863 61.4367 49.5072 61.0929L63.8774 70.3309ZM65.6711 66.1455L82.4227 69.4958C82.6897 68.1608 82.8925 66.8128 83.0284 65.4537L66.0299 63.7538L49.0313 62.0539C49.0078 62.2892 48.9714 62.5357 48.9195 62.7952L65.6711 66.1455ZM66.0299 63.7538L83.043 65.3004C83.1693 63.9114 83.2328 62.5183 83.2328 61.123H49.0661C49.0661 61.4815 49.0498 61.8423 49.0167 62.2072L66.0299 63.7538ZM83.2328 61.123C83.2328 55.279 82.0893 49.0527 78.7704 43.3369L63.997 51.9151L49.2235 60.4932C49.0093 60.1244 48.9634 59.9033 48.9765 59.9593C48.9935 60.0319 49.0661 60.3912 49.0661 61.123H83.2328ZM63.997 51.9151L78.3671 42.6771C76.7114 40.1017 74.7013 37.8308 72.4009 35.8843L61.3661 48.9255L50.3313 61.9666C50.1036 61.774 49.8475 61.4962 49.6268 61.153L63.997 51.9151ZM61.3661 48.9255L72.9533 36.3726C70.1631 33.797 66.8177 31.7818 62.9938 30.5869L57.8982 46.8926L52.8027 63.1982C51.5298 62.8005 50.4964 62.1406 49.7789 61.4784L61.3661 48.9255ZM57.8982 46.8926L62.2458 30.3717C59.4405 29.6334 56.5031 29.2113 53.4736 29.2113V63.378C53.3982 63.378 53.3682 63.3735 53.3682 63.3735C53.3682 63.3735 53.4356 63.3832 53.5506 63.4134L57.8982 46.8926ZM47.6141 135.983V153.066H54.9086V118.899H47.6141V135.983ZM54.9086 153.066C61.7 153.066 68.6857 151.081 74.5167 146.083L63.3991 133.113L52.2813 120.142C52.8519 119.653 53.5104 119.291 54.1317 119.081C54.7175 118.883 55.0319 118.899 54.9086 118.899V153.066ZM63.3991 133.113L74.0709 146.452C77.095 144.033 79.5572 141.056 81.3671 137.638L66.2691 129.645L51.171 121.651C51.546 120.943 52.0947 120.279 52.7272 119.773L63.3991 133.113ZM66.2691 129.645L81.5488 137.284C82.9473 134.488 83.9356 131.578 84.6017 128.647L67.9432 124.861L51.2847 121.076C51.1535 121.652 51.0257 121.932 50.9892 122.005L66.2691 129.645ZM67.9432 124.861L84.6675 128.345C85.3095 125.264 85.6239 122.142 85.6239 119.002H51.4578C51.4578 119.847 51.3741 120.632 51.219 121.377L67.9432 124.861ZM85.6239 119.002C85.6239 115.647 85.2029 112.325 84.3537 109.069L67.8236 113.381L51.2935 117.693C51.4009 118.106 51.4578 118.529 51.4578 119.002H85.6239ZM67.8236 113.381L84.5479 109.897C83.9068 106.82 82.8892 103.587 81.2475 100.485L66.1495 108.478L51.0514 116.472C50.9407 116.262 50.9152 116.17 50.9393 116.241C50.9634 116.311 51.0253 116.51 51.0994 116.865L67.8236 113.381ZM66.1495 108.478L80.9056 99.8709C77.4879 94.0114 72.194 88.9863 64.831 86.604L59.5724 102.858L54.3138 119.112C53.4994 118.848 52.7458 118.416 52.1513 117.908C51.5884 117.427 51.377 117.058 51.3932 117.086L66.1495 108.478ZM59.5724 102.858L64.9746 86.651C61.6221 85.5338 58.2243 85.0567 54.9086 85.0567V119.224C54.9413 119.224 54.6526 119.226 54.1701 119.065L59.5724 102.858ZM54.9086 85.0567H47.6141V102.14V119.224H54.9086V85.0567ZM47.6141 102.14H30.5307V135.983H47.6141H64.6974V102.14H47.6141ZM105.231 67.9392L121.344 73.6153L121.364 73.5584L105.231 67.9392ZM115.635 48.208L129.388 58.3418L129.411 58.3105L115.635 48.208ZM131.3 32.6621L121.371 18.7606L121.285 18.8227L131.3 32.6621ZM161.914 19.7471L159.105 2.89616L159.047 2.90604L161.914 19.7471ZM196.234 22.6171L190.454 38.6929L190.534 38.7218L190.615 38.7499L196.234 22.6171ZM215.726 32.6621L225.899 18.9376L225.787 18.8546L225.674 18.7736L215.726 32.6621ZM232.229 49.5234L218.098 59.1247L218.157 59.2094L232.229 49.5234ZM241.676 67.8196L257.883 62.4174L257.861 62.3536L257.839 62.2899L241.676 67.8196ZM241.676 113.142L225.47 107.74L225.443 107.819L225.418 107.898L241.676 113.142ZM231.511 133.471L245.264 143.605L245.339 143.503L245.413 143.401L231.511 133.471ZM215.607 149.376L225.741 163.129L225.771 163.107L215.607 149.376ZM196.115 159.66L190.545 143.509L190.448 143.544L196.115 159.66ZM131.181 149.256L120.96 162.945L120.991 162.967L131.181 149.256ZM115.515 133.591L101.739 143.693L101.783 143.753L101.827 143.812L115.515 133.591ZM105.231 113.262L121.472 107.962L121.438 107.859L105.231 113.262ZM102.481 102.14L85.6205 104.893L85.6299 104.949L102.481 102.14ZM118.608 90.3017C118.608 84.2233 119.554 78.6986 121.344 73.6153L105.231 67.9392L89.1183 62.2631C85.9664 71.2109 84.4413 80.5943 84.4413 90.3017H118.608ZM105.231 67.9392L121.364 73.5584C123.272 68.0814 125.937 63.0258 129.388 58.3418L115.635 48.208L101.882 38.0741C96.4043 45.5079 92.1335 53.6064 89.0986 62.32L105.231 67.9392ZM115.635 48.208L129.411 58.3105C132.735 53.7776 136.685 49.8532 141.316 46.5016L131.3 32.6621L121.285 18.8227C113.799 24.2406 107.304 30.68 101.859 38.1055L115.635 48.208ZM131.3 32.6621L141.23 46.5634C146.039 43.1285 151.132 40.5123 156.544 38.6671L145.52 6.32802C136.901 9.26618 128.84 13.4261 121.371 18.7606L131.3 32.6621ZM156.544 38.6671C159.168 37.7728 161.909 37.077 164.78 36.5882L161.914 19.7471L159.047 2.90604C154.425 3.69284 149.912 4.8307 145.52 6.32802L156.544 38.6671ZM161.914 19.7471L164.722 36.5981C167.614 36.116 170.542 35.8738 173.513 35.8738V1.70715C168.673 1.70715 163.866 2.10262 159.105 2.89616L161.914 19.7471ZM173.513 35.8738C179.73 35.8738 185.336 36.8525 190.454 38.6929L196.234 22.6171L202.014 6.54135C192.942 3.27954 183.401 1.70715 173.513 1.70715V35.8738ZM196.234 22.6171L190.615 38.7499C196.223 40.7031 201.254 43.3098 205.779 46.5507L215.726 32.6621L225.674 18.7736C218.4 13.5638 210.436 9.47391 201.854 6.48444L196.234 22.6171ZM215.726 32.6621L205.554 46.3867C210.975 50.4047 215.074 54.6743 218.098 59.1247L232.229 49.5234L246.359 39.9222C240.933 31.9359 234.03 24.9646 225.899 18.9376L215.726 32.6621ZM232.229 49.5234L218.157 59.2094C221.64 64.2689 224.019 68.9825 225.512 73.3493L241.676 67.8196L257.839 62.2899C255.188 54.539 251.269 47.0551 246.301 39.8374L232.229 49.5234ZM241.676 67.8196L225.47 73.2219C226.388 75.9773 227.094 78.7967 227.586 81.6879L261.268 75.9547C260.484 71.352 259.356 66.8369 257.883 62.4174L241.676 67.8196ZM227.586 81.6879C228.058 84.4619 228.3 87.3292 228.3 90.3017H262.466C262.466 85.4612 262.071 80.6746 261.268 75.9547L227.586 81.6879ZM228.3 90.3017C228.3 96.2775 227.36 102.067 225.47 107.74L241.676 113.142L257.883 118.545C260.935 109.389 262.466 99.9512 262.466 90.3017H228.3ZM241.676 113.142L225.418 107.898C223.548 113.693 220.939 118.88 217.611 123.542L231.511 133.471L245.413 143.401C250.853 135.784 255.02 127.42 257.934 118.387L241.676 113.142ZM231.511 133.471L217.758 123.337C214.319 128.005 210.233 132.1 205.443 135.645L215.607 149.376L225.771 163.107C233.258 157.564 239.774 151.055 245.264 143.605L231.511 133.471ZM215.607 149.376L205.473 135.623C200.77 139.088 195.805 141.695 190.545 143.509L196.115 159.66L201.684 175.81C210.295 172.841 218.326 168.592 225.741 163.129L215.607 149.376ZM196.115 159.66L190.448 143.544C185.043 145.445 179.428 146.403 173.513 146.403V180.57C183.225 180.57 192.677 178.978 201.782 175.776L196.115 159.66ZM173.513 146.403C167.399 146.403 161.769 145.431 156.515 143.564L145.07 175.756C154.167 178.991 163.684 180.57 173.513 180.57V146.403ZM156.515 143.564C150.882 141.561 145.86 138.882 141.372 135.545L131.181 149.256L120.991 162.967C128.301 168.401 136.353 172.657 145.07 175.756L156.515 143.564ZM131.181 149.256L141.402 135.567C136.739 132.087 132.685 128.033 129.204 123.37L115.515 133.591L101.827 143.812C107.274 151.107 113.664 157.497 120.96 162.945L131.181 149.256ZM115.515 133.591L129.291 123.489C126.055 119.074 123.423 113.942 121.472 107.962L105.231 113.262L88.991 118.561C91.9823 127.728 96.207 136.149 101.739 143.693L115.515 133.591ZM105.231 113.262L121.438 107.859C120.532 105.14 119.826 102.301 119.332 99.332L102.481 102.14L85.6299 104.949C86.4106 109.633 87.5398 114.208 89.0252 118.664L105.231 113.262ZM102.481 102.14L119.341 99.3875C118.853 96.3979 118.608 93.3724 118.608 90.3017H84.4413C84.4413 95.2038 84.8329 100.07 85.6205 104.893L102.481 102.14ZM324.392 76.3101L337.183 87.6342L337.228 87.5821L337.273 87.5308L324.392 76.3101ZM303.584 85.9967L300.776 69.1454L286.501 71.5246V85.9967H303.584ZM303.584 87.91H286.501V102.951L301.421 104.856L303.584 87.91ZM313.868 90.4213L307.735 106.366L307.802 106.392L307.87 106.417L313.868 90.4213ZM322.359 95.4438L311.138 108.326L311.17 108.354L322.359 95.4438ZM332.045 112.305L315.359 115.968L315.368 116.011L332.045 112.305ZM331.686 137.178L315.152 132.879L315.112 133.035L315.074 133.192L331.686 137.178ZM327.262 147.821L341.529 157.217L341.587 157.129L341.643 157.04L327.262 147.821ZM319.728 155.953L329.729 169.802L329.854 169.712L329.978 169.62L319.728 155.953ZM310.281 160.617L305.337 144.265L305.306 144.274L310.281 160.617ZM256.11 162.291H239.026V179.374H256.11V162.291ZM256.11 19.9863V2.90299H239.026V19.9863H256.11ZM308.607 21.5409L303.766 37.9241L303.985 37.9886L304.204 38.0474L308.607 21.5409ZM318.054 25.8459L328.369 12.2289L328.14 12.0552L327.905 11.8894L318.054 25.8459ZM324.75 32.7817L310.735 42.5498L310.833 42.6907L310.934 42.8296L324.75 32.7817ZM329.414 42.468L345.944 38.1558L345.841 37.7614L345.719 37.3724L329.414 42.468ZM284.212 46.2946V29.2113H267.128V46.2946H284.212ZM284.212 75.8317H267.128V92.9155H284.212V75.8317ZM298.083 73.2009L287.147 60.0771L287.097 60.1182L287.048 60.1597L298.083 73.2009ZM300.475 70.3309L286.104 61.0929L285.864 61.468L285.642 61.8552L300.475 70.3309ZM302.269 66.1455L318.694 70.8386L318.884 70.1738L319.02 69.4958L302.269 66.1455ZM302.627 63.7538L319.625 65.4537L319.633 65.3771L319.64 65.3004L302.627 63.7538ZM300.595 51.9151L315.367 43.3369L315.173 43.0024L314.964 42.6771L300.595 51.9151ZM297.964 48.9255L286.376 61.4784L286.647 61.7285L286.929 61.9666L297.964 48.9255ZM294.496 46.8926L299.591 30.5869L299.219 30.4708L298.843 30.3717L294.496 46.8926ZM284.212 135.983H267.128V153.066H284.212V135.983ZM299.997 133.113L289.325 119.773L289.098 119.953L288.879 120.142L299.997 133.113ZM302.867 129.645L317.964 137.638L318.057 137.462L318.146 137.284L302.867 129.645ZM304.541 124.861L321.199 128.647L321.233 128.497L321.265 128.345L304.541 124.861ZM304.421 113.381L287.697 116.865L287.784 117.282L287.891 117.693L304.421 113.381ZM302.747 108.478L317.844 100.485L317.68 100.174L317.503 99.8709L302.747 108.478ZM296.17 102.858L290.767 119.065L290.839 119.089L290.911 119.112L296.17 102.858ZM284.212 102.14V85.0567H267.128V102.14H284.212ZM313.766 54.4263C313.766 61.8469 312.075 64.4401 311.509 65.0901L324.392 76.3101L337.273 87.5308C345.317 78.2944 347.932 66.2985 347.932 54.4263H313.766ZM324.392 76.3101L311.6 64.9865C310.9 65.7771 308.311 67.8895 300.776 69.1454L303.584 85.9967L306.393 102.848C317.991 100.915 329.272 96.5696 337.183 87.6342L324.392 76.3101ZM303.584 85.9967H286.501V87.91H303.584H320.667V85.9967H303.584ZM303.584 87.91L301.421 104.856C303.986 105.184 306.061 105.722 307.735 106.366L313.868 90.4213L320 74.4762C315.456 72.7284 310.675 71.5929 305.747 70.9638L303.584 87.91ZM313.868 90.4213L307.87 106.417C309.222 106.924 310.267 107.568 311.138 108.326L322.359 95.4438L333.578 82.5612C329.506 79.0147 324.892 76.3099 319.866 74.4252L313.868 90.4213ZM322.359 95.4438L311.17 108.354C311.991 109.065 312.816 110.029 313.6 111.41L343.314 94.5452C340.75 90.0267 337.509 85.9685 333.547 82.5337L322.359 95.4438ZM313.6 111.41C314.441 112.891 315.013 114.394 315.359 115.968L332.045 112.305L348.73 108.642C347.641 103.678 345.822 98.9638 343.314 94.5452L313.6 111.41ZM332.045 112.305L315.368 116.011C315.849 118.175 316.157 120.894 316.157 124.263H350.324C350.324 118.863 349.835 113.61 348.721 108.599L332.045 112.305ZM316.157 124.263C316.157 127.612 315.783 130.457 315.152 132.879L331.686 137.178L348.219 141.477C349.662 135.928 350.324 130.163 350.324 124.263H316.157ZM331.686 137.178L315.074 133.192C314.514 135.524 313.735 137.267 312.879 138.602L327.262 147.821L341.643 157.04C344.774 152.157 346.944 146.805 348.297 141.165L331.686 137.178ZM327.262 147.821L312.994 138.425C311.826 140.199 310.635 141.418 309.478 142.286L319.728 155.953L329.978 169.62C334.56 166.182 338.391 161.981 341.529 157.217L327.262 147.821ZM319.728 155.953L309.726 142.104C308.409 143.054 306.973 143.77 305.337 144.265L310.281 160.617L315.224 176.969C320.444 175.391 325.306 172.997 329.729 169.802L319.728 155.953ZM310.281 160.617L305.306 144.274C303.436 144.843 301.146 145.208 298.322 145.208V179.374C304.108 179.374 309.791 178.623 315.255 176.959L310.281 160.617ZM298.322 145.208H256.11V162.291V179.374H298.322V145.208ZM256.11 162.291H273.193V19.9863H256.11H239.026V162.291H256.11ZM256.11 19.9863V37.0696H297.246V2.90299H256.11V19.9863ZM297.246 37.0696C299.853 37.0696 301.994 37.4005 303.766 37.9241L308.607 21.5409L313.446 5.15769C308.203 3.60844 302.77 2.90299 297.246 2.90299V37.0696ZM308.607 21.5409L304.204 38.0474C306.07 38.5448 307.327 39.1852 308.202 39.8024L318.054 25.8459L327.905 11.8894C323.358 8.67988 318.318 6.4503 313.008 5.03439L308.607 21.5409ZM318.054 25.8459L307.737 39.4628C308.983 40.4067 309.954 41.4307 310.735 42.5498L324.75 32.7817L338.766 23.0136C335.878 18.871 332.385 15.2711 328.369 12.2289L318.054 25.8459ZM324.75 32.7817L310.934 42.8296C311.533 43.6533 312.343 45.1154 313.108 47.5635L329.414 42.468L345.719 37.3724C344.093 32.1671 341.794 27.1717 338.566 22.7337L324.75 32.7817ZM329.414 42.468L312.883 46.7801C313.156 47.8228 313.376 48.9731 313.528 50.2434L347.452 46.1726C347.126 43.4567 346.628 40.7803 345.944 38.1558L329.414 42.468ZM313.528 50.2434C313.681 51.5145 313.766 52.9056 313.766 54.4263H347.932C347.932 51.642 347.778 48.8875 347.452 46.1726L313.528 50.2434ZM290.071 29.2113H284.212V46.2946V63.378H290.071V29.2113ZM284.212 46.2946H267.128V75.8317H284.212H301.295V46.2946H284.212ZM284.212 75.8317V92.9155H290.071V58.7484H284.212V75.8317ZM290.071 92.9155C296.521 92.9155 303.363 91.1123 309.117 86.2427L298.083 73.2009L287.048 60.1597C287.75 59.566 288.517 59.1662 289.196 58.9433C289.835 58.7335 290.183 58.7484 290.071 58.7484V92.9155ZM298.083 73.2009L309.019 86.3247C311.592 84.1808 313.691 81.634 315.307 78.8066L300.475 70.3309L285.642 61.8552C285.982 61.26 286.487 60.6265 287.147 60.0771L298.083 73.2009ZM300.475 70.3309L314.845 79.5688C316.697 76.6867 317.891 73.6492 318.694 70.8386L302.269 66.1455L285.842 61.4523C285.773 61.6946 285.736 61.7712 285.759 61.718C285.782 61.6655 285.883 61.4367 286.104 61.0929L300.475 70.3309ZM302.269 66.1455L319.02 69.4958C319.287 68.1608 319.49 66.8128 319.625 65.4537L302.627 63.7538L285.629 62.0539C285.605 62.2892 285.569 62.5357 285.517 62.7952L302.269 66.1455ZM302.627 63.7538L319.64 65.3004C319.766 63.9114 319.83 62.5183 319.83 61.123H285.664C285.664 61.4815 285.647 61.8423 285.614 62.2072L302.627 63.7538ZM319.83 61.123C319.83 55.279 318.687 49.0527 315.367 43.3369L300.595 51.9151L285.821 60.4932C285.607 60.1244 285.56 59.9033 285.574 59.9593C285.59 60.0319 285.664 60.3912 285.664 61.123H319.83ZM300.595 51.9151L314.964 42.6771C313.309 40.1017 311.299 37.8308 308.998 35.8843L297.964 48.9255L286.929 61.9666C286.701 61.774 286.444 61.4962 286.224 61.153L300.595 51.9151ZM297.964 48.9255L309.551 36.3726C306.76 33.797 303.415 31.7818 299.591 30.5869L294.496 46.8926L289.4 63.1982C288.127 62.8005 287.094 62.1406 286.376 61.4784L297.964 48.9255ZM294.496 46.8926L298.843 30.3717C296.038 29.6334 293.1 29.2113 290.071 29.2113V63.378C289.995 63.378 289.965 63.3735 289.965 63.3735C289.965 63.3735 290.033 63.3832 290.148 63.4134L294.496 46.8926ZM284.212 135.983V153.066H291.506V118.899H284.212V135.983ZM291.506 153.066C298.297 153.066 305.283 151.081 311.114 146.083L299.997 133.113L288.879 120.142C289.449 119.653 290.108 119.291 290.729 119.081C291.315 118.883 291.629 118.899 291.506 118.899V153.066ZM299.997 133.113L310.668 146.452C313.692 144.033 316.154 141.056 317.964 137.638L302.867 129.645L287.768 121.651C288.143 120.943 288.692 120.279 289.325 119.773L299.997 133.113ZM302.867 129.645L318.146 137.284C319.544 134.488 320.533 131.578 321.199 128.647L304.541 124.861L287.882 121.076C287.75 121.652 287.623 121.932 287.586 122.005L302.867 129.645ZM304.541 124.861L321.265 128.345C321.907 125.264 322.222 122.142 322.222 119.002H288.055C288.055 119.847 287.972 120.632 287.816 121.377L304.541 124.861ZM322.222 119.002C322.222 115.647 321.8 112.325 320.951 109.069L304.421 113.381L287.891 117.693C287.998 118.106 288.055 118.529 288.055 119.002H322.222ZM304.421 113.381L321.145 109.897C320.504 106.82 319.486 103.587 317.844 100.485L302.747 108.478L287.649 116.472C287.538 116.262 287.512 116.17 287.537 116.241C287.561 116.311 287.622 116.51 287.697 116.865L304.421 113.381ZM302.747 108.478L317.503 99.8709C314.085 94.0114 308.791 88.9863 301.428 86.604L296.17 102.858L290.911 119.112C290.097 118.848 289.343 118.416 288.749 117.908C288.185 117.427 287.974 117.058 287.99 117.086L302.747 108.478ZM296.17 102.858L301.572 86.651C298.219 85.5338 294.821 85.0567 291.506 85.0567V119.224C291.539 119.224 291.25 119.226 290.767 119.065L296.17 102.858ZM291.506 85.0567H284.212V102.14V119.224H291.506V85.0567ZM284.212 102.14H267.128V135.983H284.212H301.295V102.14H284.212ZM336.314 162.291L319.436 159.652L316.353 179.374H336.314V162.291ZM358.557 19.9863V2.90299H343.936L341.678 17.3481L358.557 19.9863ZM398.737 19.9863L415.615 17.3481L413.357 2.90299H398.737V19.9863ZM420.979 162.291V179.374H440.94L437.857 159.652L420.979 162.291ZM392.877 162.291L375.932 164.463L377.844 179.374H392.877V162.291ZM388.692 129.645L405.637 127.472L403.725 112.561H388.692V129.645ZM368.602 129.645V112.561H353.568L351.657 127.472L368.602 129.645ZM364.416 162.291V179.374H379.45L381.361 164.463L364.416 162.291ZM371.95 103.336L354.964 101.514L352.937 120.42H371.95V103.336ZM385.343 103.336V120.42H404.356L402.329 101.514L385.343 103.336ZM380.56 58.7313L363.541 60.2112L363.556 60.3822L363.574 60.5528L380.56 58.7313ZM380.201 53.8284L363.142 54.7263L363.144 54.776L380.201 53.8284ZM379.962 49.0451L362.897 49.8208L362.898 49.8576L379.962 49.0451ZM379.842 42.7071H396.926V25.6238H379.842V42.7071ZM377.451 42.7071V25.6238H360.367V42.7071H377.451ZM377.451 47.8492L394.403 49.9681L394.534 48.9127V47.8492H377.451ZM377.212 52.1542L394.21 53.8541L394.218 53.7775L394.225 53.7009L377.212 52.1542ZM376.733 58.7313L359.981 55.381L359.83 56.14L359.747 56.9097L376.733 58.7313ZM336.314 162.291L353.192 164.929L375.435 22.6244L358.557 19.9863L341.678 17.3481L319.436 159.652L336.314 162.291ZM358.557 19.9863V37.0696H398.737V19.9863V2.90299H358.557V19.9863ZM398.737 19.9863L381.858 22.6244L404.101 164.929L420.979 162.291L437.857 159.652L415.615 17.3481L398.737 19.9863ZM420.979 162.291V145.208H392.877V162.291V179.374H420.979V162.291ZM392.877 162.291L409.822 160.119L405.637 127.472L388.692 129.645L371.747 131.817L375.932 164.463L392.877 162.291ZM388.692 129.645V112.561H368.602V129.645V146.728H388.692V129.645ZM368.602 129.645L351.657 127.472L347.471 160.119L364.416 162.291L381.361 164.463L385.547 131.817L368.602 129.645ZM364.416 162.291V145.208H336.314V162.291V179.374H364.416V162.291ZM371.95 103.336V120.42H385.343V103.336V86.253H371.95V103.336ZM385.343 103.336L402.329 101.514L397.546 56.9097L380.56 58.7313L363.574 60.5528L368.357 105.158L385.343 103.336ZM380.56 58.7313L397.579 57.2514C397.431 55.5487 397.326 54.0971 397.258 52.8808L380.201 53.8284L363.144 54.776C363.236 56.4297 363.37 58.2467 363.541 60.2112L380.56 58.7313ZM380.201 53.8284L397.261 52.9305C397.183 51.447 397.104 49.8811 397.026 48.2325L379.962 49.0451L362.898 49.8576C362.979 51.5573 363.06 53.1803 363.142 54.7263L380.201 53.8284ZM379.962 49.0451L397.027 48.2693C396.963 46.8539 396.926 45.0149 396.926 42.7071H379.842H362.759C362.759 45.3422 362.801 47.7284 362.897 49.8208L379.962 49.0451ZM379.842 42.7071V25.6238H377.451V42.7071V59.7905H379.842V42.7071ZM377.451 42.7071H360.367V46.1751H394.534V42.7071H377.451ZM360.367 46.1751V47.8426L377.451 47.8492H394.534V46.1751H360.367ZM377.451 47.8492L360.499 45.7303C360.344 46.9681 360.248 48.2799 360.248 49.643H394.414C394.414 49.8899 394.397 50.0059 394.403 49.9681L377.451 47.8492ZM360.248 49.643C360.248 49.8738 360.236 50.1925 360.198 50.6076L377.212 52.1542L394.225 53.7009C394.346 52.3621 394.414 51.0066 394.414 49.643H360.248ZM377.212 52.1542L360.213 50.4543C360.077 51.8136 360.009 53.1781 360.009 54.5459H394.175C394.175 54.3192 394.186 54.0892 394.21 53.8541L377.212 52.1542ZM360.009 54.5459C360.009 54.9214 359.994 55.1777 359.981 55.3292C359.969 55.4826 359.96 55.4914 359.981 55.381L376.733 58.7313L393.485 62.0816C394 59.5063 394.175 56.9432 394.175 54.5459H360.009ZM376.733 58.7313L359.747 56.9097L354.964 101.514L371.95 103.336L388.936 105.158L393.719 60.5528L376.733 58.7313ZM500.805 75.2338L486.075 66.5825L486.008 66.6964L485.943 66.8115L500.805 75.2338ZM495.783 81.5717L484.216 68.9996L484.088 69.1174L483.963 69.2377L495.783 81.5717ZM488.608 86.2359L495.112 102.033L495.331 101.942L495.546 101.847L488.608 86.2359ZM479.878 88.3884L478.136 71.3938L462.795 72.9672V88.3884H479.878ZM479.878 90.3017H462.795V107.385H479.878V90.3017ZM488.608 93.0521L497.99 78.7751L497.81 78.6568L497.627 78.5431L488.608 93.0521ZM495.185 100.347L510.465 92.707L510.386 92.5473L510.303 92.3902L495.185 100.347ZM496.141 102.738L479.779 107.647L479.998 108.376L480.28 109.083L496.141 102.738ZM496.979 105.13L513.556 101.003L513.458 100.61L513.342 100.221L496.979 105.13ZM511.209 162.291V179.374H533.067L527.787 158.164L511.209 162.291ZM483.107 162.291L466.641 166.841L470.105 179.374H483.107V162.291ZM466.485 102.14L482.951 97.5903L479.488 85.0567H466.485V102.14ZM457.396 102.14V85.0567H440.313V102.14H457.396ZM457.396 162.291V179.374H474.48V162.291H457.396ZM429.294 162.291H412.211V179.374H429.294V162.291ZM429.294 19.9863V2.90299H412.211V19.9863H429.294ZM482.15 21.7801L476.638 37.9496L476.856 38.0238L477.076 38.0922L482.15 21.7801ZM491.836 26.8026L502.554 13.4988L502.44 13.4073L502.325 13.3178L491.836 26.8026ZM499.011 34.6951L484.679 43.9916L484.767 44.1263L484.857 44.2593L499.011 34.6951ZM503.675 44.8596L520.188 40.4789L520.134 40.2769L520.075 40.0763L503.675 44.8596ZM457.396 75.8317H440.313V92.9155H457.396V75.8317ZM468.279 75.2338L463.707 58.7737L463.582 58.8083L463.458 58.8447L468.279 75.2338ZM472.225 73.3205L482.328 87.0969L482.649 86.8611L482.959 86.6109L472.225 73.3205ZM476.649 66.1455L493.091 70.7829L493.193 70.4226L493.279 70.0582L476.649 66.1455ZM473.66 50.3605L460.663 61.4466L460.745 61.5426L460.828 61.6374L473.66 50.3605ZM457.396 46.2946V29.2113H440.313V46.2946H457.396ZM488.146 57.0571C488.146 61.7727 487.18 64.7002 486.075 66.5825L500.805 75.2338L515.536 83.8851C520.331 75.7224 522.313 66.5322 522.313 57.0571H488.146ZM500.805 75.2338L485.943 66.8115C485.451 67.6804 484.882 68.3876 484.216 68.9996L495.783 81.5717L507.35 94.1446C510.67 91.0893 513.45 87.571 515.669 83.6561L500.805 75.2338ZM495.783 81.5717L483.963 69.2377C483.712 69.4783 483.062 70.006 481.67 70.6245L488.608 86.2359L495.546 101.847C499.895 99.9145 504.028 97.3324 507.604 93.9063L495.783 81.5717ZM488.608 86.2359L482.103 70.4388C481.012 70.8885 479.717 71.2316 478.136 71.3938L479.878 88.3884L481.621 105.383C486.259 104.907 490.783 103.815 495.112 102.033L488.608 86.2359ZM479.878 88.3884H462.795V90.3017H479.878H496.961V88.3884H479.878ZM479.878 90.3017V107.385C479.683 107.385 479.507 107.369 479.362 107.346C479.218 107.323 479.122 107.296 479.079 107.283C478.997 107.257 479.165 107.297 479.589 107.561L488.608 93.0521L497.627 78.5431C492.542 75.3821 486.548 73.218 479.878 73.218V90.3017ZM488.608 93.0521L479.226 107.329C479.538 107.534 479.784 107.764 480.068 108.303L495.185 100.347L510.303 92.3902C507.398 86.8705 503.259 82.2376 497.99 78.7751L488.608 93.0521ZM495.185 100.347L479.905 107.986C479.896 107.968 479.841 107.853 479.779 107.647L496.141 102.738L512.505 97.8295C511.965 96.0289 511.271 94.3197 510.465 92.707L495.185 100.347ZM496.141 102.738L480.28 109.083C480.417 109.424 480.527 109.743 480.616 110.039L496.979 105.13L513.342 100.221C512.952 98.9228 512.505 97.6467 512.003 96.3936L496.141 102.738ZM496.979 105.13L480.402 109.257L494.632 166.418L511.209 162.291L527.787 158.164L513.556 101.003L496.979 105.13ZM511.209 162.291V145.208H483.107V162.291V179.374H511.209V162.291ZM483.107 162.291L499.573 157.741L482.951 97.5903L466.485 102.14L450.019 106.691L466.641 166.841L483.107 162.291ZM466.485 102.14V85.0567H457.396V102.14V119.224H466.485V102.14ZM457.396 102.14H440.313V162.291H457.396H474.48V102.14H457.396ZM457.396 162.291V145.208H429.294V162.291V179.374H457.396V162.291ZM429.294 162.291H446.378V19.9863H429.294H412.211V162.291H429.294ZM429.294 19.9863V37.0696H471.149V2.90299H429.294V19.9863ZM471.149 37.0696C473.163 37.0696 474.963 37.3784 476.638 37.9496L482.15 21.7801L487.663 5.61052C482.323 3.79 476.789 2.90299 471.149 2.90299V37.0696ZM482.15 21.7801L477.076 38.0922C478.77 38.6193 480.152 39.357 481.349 40.2873L491.836 26.8026L502.325 13.3178C497.781 9.78363 492.706 7.17306 487.226 5.46794L482.15 21.7801ZM491.836 26.8026L481.12 40.1063C482.648 41.3377 483.798 42.6327 484.679 43.9916L499.011 34.6951L513.344 25.3985C510.399 20.8579 506.765 16.8914 502.554 13.4988L491.836 26.8026ZM499.011 34.6951L484.857 44.2593C485.747 45.5774 486.597 47.3155 487.275 49.643L503.675 44.8596L520.075 40.0763C518.522 34.7503 516.262 29.7122 513.167 25.1308L499.011 34.6951ZM503.675 44.8596L487.163 49.2404C487.804 51.6538 488.146 54.2433 488.146 57.0571H522.313C522.313 51.4203 521.62 45.8782 520.188 40.4789L503.675 44.8596ZM457.396 75.8317V92.9155H463.974V58.7484H457.396V75.8317ZM463.974 92.9155C467.002 92.9155 470.07 92.514 473.099 91.6231L468.279 75.2338L463.458 58.8447C463.778 58.7508 463.974 58.7484 463.974 58.7484V92.9155ZM468.279 75.2338L472.851 91.694C476.268 90.745 479.459 89.2007 482.328 87.0969L472.225 73.3205L462.123 59.5444C462.6 59.1943 463.16 58.9255 463.707 58.7737L468.279 75.2338ZM472.225 73.3205L482.959 86.6109C488.326 82.2758 491.461 76.561 493.091 70.7829L476.649 66.1455L460.208 61.508C460.137 61.7612 460.138 61.6402 460.345 61.3042C460.567 60.9445 460.942 60.4738 461.491 60.0307L472.225 73.3205ZM476.649 66.1455L493.279 70.0582C493.998 67.0017 494.211 63.9193 494.211 61.123H460.044C460.044 61.6743 460.022 62.0425 460.003 62.2537C459.981 62.4715 459.97 62.446 460.02 62.2327L476.649 66.1455ZM494.211 61.123C494.211 53.6916 492.277 45.6658 486.493 39.0835L473.66 50.3605L460.828 61.6374C460.594 61.3715 460.403 61.0955 460.257 60.8337C460.113 60.5748 460.037 60.373 460.001 60.2636C459.935 60.0579 460.044 60.2761 460.044 61.123H494.211ZM473.66 50.3605L486.658 39.2743C480.554 32.1179 472.213 29.2113 463.974 29.2113V63.378C464.186 63.378 463.72 63.4102 462.893 63.063C461.999 62.6878 461.209 62.0879 460.663 61.4466L473.66 50.3605ZM463.974 29.2113H457.396V46.2946V63.378H463.974V29.2113ZM457.396 46.2946H440.313V75.8317H457.396H474.48V46.2946H457.396ZM520.15 19.9863V2.90299H503.067V19.9863H520.15ZM583.171 28.5963L594.581 15.8821L594.473 15.786L594.365 15.6917L583.171 28.5963ZM591.183 39.2392L576.017 47.1029L576.074 47.2128L576.132 47.3218L591.183 39.2392ZM591.183 143.158L576.208 134.936L576.142 135.057L576.078 135.178L591.183 143.158ZM583.171 153.681L594.396 166.557L594.489 166.477L594.581 166.395L583.171 153.681ZM572.169 160.019L566.404 143.937L566.304 143.973L566.204 144.01L572.169 160.019ZM520.15 162.291H503.067V179.374H520.15V162.291ZM548.252 135.983H531.169V153.066H548.252V135.983ZM548.252 46.2946V29.2113H531.169V46.2946H548.252ZM520.15 19.9863V37.0696H558.537V2.90299H520.15V19.9863ZM558.537 37.0696C564.755 37.0696 568.841 38.7815 571.976 41.5009L583.171 28.5963L594.365 15.6917C584.266 6.93112 571.929 2.90299 558.537 2.90299V37.0696ZM583.171 28.5963L571.76 41.3105C573.11 42.5216 574.583 44.3386 576.017 47.1029L591.183 39.2392L606.349 31.3755C603.317 25.5298 599.449 20.2515 594.581 15.8821L583.171 28.5963ZM591.183 39.2392L576.132 47.3218C577.626 50.1023 578.755 53.1966 579.474 56.6828L612.938 49.7855C611.585 43.2268 609.364 36.9862 606.233 31.1567L591.183 39.2392ZM579.474 56.6828C580.324 60.8146 580.796 65.5374 580.796 70.9288H614.963C614.963 63.5647 614.319 56.496 612.938 49.7855L579.474 56.6828ZM580.796 70.9288V111.348H614.963V70.9288H580.796ZM580.796 111.348C580.796 117.035 580.314 121.756 579.494 125.622L612.916 132.711C614.329 126.054 614.963 118.896 614.963 111.348H580.796ZM579.494 125.622C578.67 129.503 577.519 132.548 576.208 134.936L591.183 143.158L606.157 151.379C609.311 145.635 611.508 139.353 612.916 132.711L579.494 125.622ZM591.183 143.158L576.078 135.178C574.654 137.872 573.169 139.703 571.76 140.967L583.171 153.681L594.581 166.395C599.391 162.078 603.247 156.893 606.288 151.137L591.183 143.158ZM583.171 153.681L571.944 140.804C570.576 141.997 568.803 143.078 566.404 143.937L572.169 160.019L577.934 176.1C583.986 173.931 589.546 170.786 594.396 166.557L583.171 153.681ZM572.169 160.019L566.204 144.01C564.322 144.712 561.838 145.208 558.537 145.208V179.374C565.279 179.374 571.884 178.355 578.133 176.028L572.169 160.019ZM558.537 145.208H520.15V162.291V179.374H558.537V145.208ZM520.15 162.291H537.234V19.9863H520.15H503.067V162.291H520.15ZM548.252 135.983V153.066H552.199V118.899H548.252V135.983ZM552.199 153.066C562.555 153.066 572.6 149.119 579.289 139.747C585.218 131.438 586.861 121.075 586.861 111.348H552.694C552.694 114.493 552.408 116.705 552.059 118.172C551.712 119.633 551.379 120.039 551.477 119.901C551.65 119.658 552.082 119.235 552.659 118.965C553.147 118.737 553.141 118.899 552.199 118.899V153.066ZM586.861 111.348V70.9288H552.694V111.348H586.861ZM586.861 70.9288C586.861 61.2021 585.218 50.84 579.289 42.5301C572.6 33.1585 562.555 29.2113 552.199 29.2113V63.378C553.141 63.378 553.147 63.54 552.659 63.3122C552.082 63.0423 551.65 62.6198 551.477 62.3763C551.379 62.2389 551.712 62.6442 552.059 64.1045C552.408 65.5721 552.694 67.784 552.694 70.9288H586.861ZM552.199 29.2113H548.252V46.2946V63.378H552.199V29.2113ZM548.252 46.2946H531.169V135.983H548.252H565.336V46.2946H548.252Z" fill="white"/>
</g>
<path d="M204.999 107.845C204.999 121.998 184.985 140.937 170.832 140.937C156.68 140.937 136.666 121.998 136.666 107.845C136.666 93.693 156.68 107.844 170.832 107.844C184.985 107.844 204.999 93.693 204.999 107.845Z" fill="white"/>
<path d="M162.291 72.6045C162.291 79.6807 156.554 85.417 149.478 85.417C142.402 85.417 136.666 79.6807 136.666 72.6045C136.666 65.5283 142.402 59.792 149.478 59.792C156.554 59.792 162.291 65.5283 162.291 72.6045Z" fill="white"/>
<path d="M204.999 72.6045C204.999 79.6807 199.263 85.417 192.187 85.417C185.111 85.417 179.374 79.6807 179.374 72.6045C179.374 65.5283 185.111 59.792 192.187 59.792C199.263 59.792 204.999 65.5283 204.999 72.6045Z" fill="white"/>
</g>
</svg>
