<svg width="63" height="71" viewBox="0 0 63 71" fill="none" xmlns="http://www.w3.org/2000/svg">
<path d="M3.52517 0.154053L36.7126 33.1021L45.8116 24.0031L5.58442 0.776617C4.91396 0.387515 4.19562 0.172012 3.52517 0.154053ZM0.747572 1.68652C0.448263 2.21929 0.268677 2.84784 0.268677 3.55421V67.5826C0.268677 68.0974 0.376429 68.5583 0.556014 68.9714L34.5097 35.2571L0.747572 1.68652ZM48.5892 25.5834L38.8677 35.2571L48.5892 44.8829L60.4658 38.0826C62.1539 37.1068 62.3934 35.8677 62.3814 35.2092C62.3635 34.1197 61.6751 33.1021 60.5137 32.4795C59.5021 31.9348 51.9894 27.5589 48.5892 25.5834ZM36.7126 37.4121L3.23783 70.5996C3.79454 70.5697 4.39915 70.4499 4.96185 70.1207C6.27283 69.3604 32.7857 54.0298 32.7857 54.0298L45.8595 46.5111L36.7126 37.4121Z" fill="black"/>
</svg>
