<svg width="206" height="206" viewBox="0 0 206 206" fill="none" xmlns="http://www.w3.org/2000/svg">
<path d="M103.182 205.519C159.575 205.519 205.682 159.767 205.682 103.02C205.682 46.2731 159.93 0.520996 103.182 0.520996C46.4347 0.520996 0.682129 46.2731 0.682129 103.02C0.682129 159.767 46.4347 205.519 103.182 205.519Z" fill="#FFFF55"/>
<path d="M116.66 92.025C116.66 89.5423 118.078 87.4142 119.852 86.3502L139.004 76.7741C140.068 76.4194 140.777 76.0649 141.841 76.0649C145.388 76.0649 148.225 78.9021 148.225 82.0941C148.225 85.2861 146.807 86.7049 144.679 87.7689L136.521 91.6702L144.679 95.5716C146.807 96.6356 148.225 98.7635 148.225 101.246C148.225 104.793 145.388 107.276 142.196 107.276C139.004 107.276 140.423 107.276 139.359 106.566L120.206 96.9902C118.078 95.9262 117.014 93.7982 117.014 91.6702L116.66 92.025ZM113.822 50.5289C113.822 47.3369 116.66 44.4995 120.206 44.4995C125.526 44.4995 130.847 45.9182 135.457 48.7555C140.423 51.5929 147.871 59.3956 147.871 63.6516C147.871 67.9076 145.033 69.3262 141.841 69.3262C138.649 69.3262 137.94 68.2622 136.876 66.4889C132.975 60.4595 127.3 56.5583 119.852 56.5583C112.404 56.5583 113.822 53.7207 113.822 50.1741L113.822 50.5289ZM74.0991 152.673C74.0991 144.87 77.2911 138.132 83.3205 133.166C86.8672 130.329 93.606 126.427 103.182 126.427C112.758 126.427 117.724 128.91 123.044 133.166C129.073 137.777 132.265 144.87 132.265 152.673C132.265 160.476 129.428 159.057 126.236 159.057C123.044 159.057 123.044 158.348 121.98 157.284C117.724 154.092 113.113 150.545 103.537 150.545C93.9607 150.545 89.3499 154.092 85.0939 157.284C84.0299 158.348 82.6112 159.057 80.8379 159.057C77.2912 159.057 74.8084 156.22 74.8084 152.673L74.0991 152.673ZM58.1389 63.6516C58.1389 59.0409 65.9417 51.2382 70.5524 48.7555C75.1632 46.2729 80.4832 44.4995 85.8033 44.4995C91.1233 44.4995 92.1873 47.3369 92.1873 50.5289C92.1873 53.7209 89.7047 56.9128 86.158 56.9128C78.7098 56.9128 73.035 60.8141 69.1337 66.8435C68.0696 68.6168 65.9416 69.6808 64.1683 69.6808C60.9762 69.6808 58.1389 67.1982 58.1389 64.0062L58.1389 63.6516ZM58.1389 101.601C58.1389 99.4728 59.5576 96.9902 61.6856 95.9262L69.843 92.025L61.6856 88.1235C59.5576 87.0595 58.1389 84.9316 58.1389 82.4489C58.1389 79.9662 60.6216 76.4195 64.523 76.4195C68.4244 76.4195 66.2963 76.4196 67.3603 77.1289L86.5126 86.7049C88.6407 87.769 89.7047 89.8969 89.7047 92.3795C89.7047 94.8622 88.286 96.6355 86.5126 97.6995L67.3603 107.276C66.2963 107.63 65.587 107.985 64.523 107.985C61.3309 107.985 58.4935 105.502 58.4935 101.956L58.1389 101.601ZM13.0956 103.374C13.0956 53.7207 53.5281 13.2888 103.182 13.2888C152.836 13.2888 193.269 53.7207 193.269 103.374C193.269 153.028 152.836 193.46 103.182 193.46C53.5281 193.46 13.0956 153.028 13.0956 103.374ZM0.682129 103.374C0.682129 159.766 46.4347 205.873 103.182 205.873C159.93 205.873 205.682 160.121 205.682 103.374C205.682 46.6274 159.93 0.875488 103.182 0.875488C46.4347 0.875488 0.682129 46.6274 0.682129 103.374ZM112.758 119.689C109.212 119.689 106.729 116.852 106.729 113.66C106.729 110.468 105.31 110.467 103.182 110.467C101.054 110.467 99.9901 111.886 99.9901 113.66C99.9901 116.852 97.1527 119.689 93.9607 119.689C90.7686 119.689 87.9313 116.852 87.9313 113.66C87.9313 104.793 95.0247 98.0541 103.537 98.0541C112.049 98.0541 119.142 104.793 119.142 113.66C119.142 122.526 116.305 119.689 113.113 119.689L112.758 119.689Z" fill="black"/>
</svg>
