<svg width="83" height="81" viewBox="0 0 83 81" fill="none" xmlns="http://www.w3.org/2000/svg">
<path d="M32.2091 40.7065C32.2091 46.4451 36.0025 50.666 41.2343 50.666C46.4661 50.666 50.2122 46.3661 50.2122 40.7065C50.2122 35.047 46.4187 30.6522 41.2343 30.6522C36.0499 30.6522 32.2091 34.9205 32.2091 40.7065ZM0.265137 41.0701C0.265137 65.5262 17.304 80.9082 42.5462 80.9082C50.5599 80.9082 56.7084 79.7067 62.6041 76.9718C66.034 75.3909 68.2943 72.1502 68.2943 68.4984C68.2943 67.8502 68.1994 67.1546 68.0571 66.5064C78.663 63.7715 82.9622 51.9149 82.9622 39.3153C82.9622 14.4482 67.4091 0.172852 42.4514 0.172852C17.4937 0.172852 0.265137 16.2029 0.265137 41.0701ZM42.4356 5.64272C64.7537 5.64272 77.4933 17.9103 77.4933 39.3153C77.4933 52.5157 72.5461 61.4951 63.837 61.4951C57.5778 61.4951 53.5156 58.6652 51.7928 53.812C48.9161 57.938 44.8539 59.9299 38.9267 59.9299C28.7792 59.9299 21.7929 52.0572 21.7929 40.7065C21.7929 29.3558 28.7792 21.4356 38.9267 21.4356C43.6526 21.4356 47.4935 22.9691 50.0857 25.704C50.4967 23.3011 52.4408 21.7202 55.0804 21.7202C58.0519 21.7202 60.0751 23.8544 60.0751 26.9529V48.2631C60.0751 51.9149 61.7347 53.8594 64.9908 53.8594C69.0213 53.8594 70.4597 48.8165 70.4597 39.4577C70.4597 22.0838 60.5493 12.5511 42.3092 12.5511C24.069 12.5511 13.3683 23.2536 13.3683 41.0859C13.3683 57.9381 24.7644 68.1822 43.6052 68.1822C48.5209 68.1822 53.4682 67.3917 56.8981 65.9531C58.0993 65.542 59.0319 65.305 59.9487 65.305C61.4345 65.305 62.7779 66.8384 62.7779 68.4984C62.7779 69.937 61.8454 71.2806 60.2806 71.9762C55.1436 74.3791 49.7222 75.4541 42.5462 75.4541C19.9436 75.4541 5.78142 62.159 5.78142 41.0859C5.78142 20.0128 20.0385 5.65854 42.4514 5.65854L42.4356 5.64272Z" fill="#FFFF55"/>
<path d="M42.5306 80.9082C50.5443 80.9082 56.6928 79.7067 62.5885 76.9718C66.0184 75.3909 68.2786 72.1502 68.2786 68.4984C68.2786 67.8502 68.1838 67.1546 68.0416 66.5064C78.6474 63.7715 82.9466 51.9149 82.9466 39.3153C82.9466 14.4482 67.3935 0.172852 42.4358 0.172852C17.4781 0.172852 0.249512 16.2029 0.249512 41.0701C0.249512 65.9373 17.2884 80.9082 42.5306 80.9082Z" fill="#83BBFF"/>
<path d="M32.2091 40.7065C32.2091 46.4451 36.0025 50.666 41.2343 50.666C46.4661 50.666 50.2122 46.3661 50.2122 40.7065C50.2122 35.047 46.4187 30.6522 41.2343 30.6522C36.0499 30.6522 32.2091 34.9205 32.2091 40.7065ZM0.265137 41.0701C0.265137 65.5262 17.304 80.9082 42.5462 80.9082C50.5599 80.9082 56.7084 79.7067 62.6041 76.9718C66.034 75.3909 68.2943 72.1502 68.2943 68.4984C68.2943 67.8502 68.1994 67.1546 68.0571 66.5064C78.663 63.7715 82.9622 51.9149 82.9622 39.3153C82.9622 14.4482 67.4091 0.172852 42.4514 0.172852C17.4937 0.172852 0.265137 16.2029 0.265137 41.0701ZM42.4356 5.64272C64.7537 5.64272 77.4933 17.9103 77.4933 39.3153C77.4933 52.5157 72.5461 61.4951 63.837 61.4951C57.5778 61.4951 53.5156 58.6652 51.7928 53.812C48.9161 57.938 44.8539 59.9299 38.9267 59.9299C28.7792 59.9299 21.7929 52.0572 21.7929 40.7065C21.7929 29.3558 28.7792 21.4356 38.9267 21.4356C43.6526 21.4356 47.4935 22.9691 50.0857 25.704C50.4967 23.3011 52.4408 21.7202 55.0804 21.7202C58.0519 21.7202 60.0751 23.8544 60.0751 26.9529V48.2631C60.0751 51.9149 61.7347 53.8594 64.9908 53.8594C69.0213 53.8594 70.4597 48.8165 70.4597 39.4577C70.4597 22.0838 60.5493 12.5511 42.3092 12.5511C24.069 12.5511 13.3683 23.2536 13.3683 41.0859C13.3683 57.9381 24.7644 68.1822 43.6052 68.1822C48.5209 68.1822 53.4682 67.3917 56.8981 65.9531C58.0993 65.542 59.0319 65.305 59.9487 65.305C61.4345 65.305 62.7779 66.8384 62.7779 68.4984C62.7779 69.937 61.8454 71.2806 60.2806 71.9762C55.1436 74.3791 49.7222 75.4541 42.5462 75.4541C19.9436 75.4541 5.78142 62.159 5.78142 41.0859C5.78142 20.0128 20.0385 5.65854 42.4514 5.65854L42.4356 5.64272Z" fill="black"/>
</svg>
