<svg width="163" height="166" viewBox="0 0 163 166" fill="none" xmlns="http://www.w3.org/2000/svg">
<path d="M81.5001 165.815C47.0837 165.815 17.9253 143.11 8.12612 111.8C6.45309 111.8 4.30207 110.605 4.30207 108.454C4.30207 106.303 5.01906 105.825 6.45308 105.347C5.49707 101.762 5.01907 97.9379 4.78007 94.1139H3.34605C1.43402 94.1139 0 92.6798 0 90.7678C0 88.8558 1.43402 87.4218 3.34605 87.4218H4.54107C4.54107 83.3587 5.01907 79.5346 5.73608 75.7106C4.54107 74.9936 4.06305 74.0376 4.06305 72.8425C4.06305 71.1695 5.49708 69.7355 6.9311 69.7355V69.2575C4.78007 55.6343 4.06305 46.5522 4.06305 39.1431C4.06305 18.1108 11.9502 0.424547 30.1144 0.424547C48.2787 0.424547 50.9077 5.68262 58.3168 15.9598C65.4869 13.8087 73.135 12.6137 81.0221 12.6137C88.9092 12.6137 96.5573 13.8087 103.727 15.9598C111.137 5.68262 120.697 0.185547 131.93 0.185547C150.333 0.185547 157.981 17.8718 157.981 38.9041C157.981 59.9364 157.503 55.3953 155.113 69.2575V69.7355C156.786 69.7355 158.22 71.1695 158.22 72.8425C158.22 74.5156 157.742 74.9936 156.547 75.7106C157.264 79.5346 157.742 83.3587 157.742 87.4218H158.937C160.849 87.4218 162.283 88.8558 162.283 90.7678C162.283 92.6798 160.849 94.1139 158.937 94.1139H157.503C157.264 97.9379 156.786 101.762 155.83 105.347C157.264 105.825 157.981 107.02 157.981 108.454C157.981 110.605 155.83 111.8 154.157 111.8C144.597 142.871 115.439 165.815 80.7831 165.815H81.5001Z" fill="#F6EA54"/>
<path d="M123.087 25.0411C128.584 28.3872 133.603 32.6893 137.905 37.4693V35.5573C137.905 29.5822 136.232 22.4121 129.301 22.4121C122.37 22.4121 125.238 22.8901 123.087 25.0411ZM76.7203 90.05C76.7203 91.9621 78.6323 93.3961 81.7394 93.3961C84.8464 93.3961 86.7585 91.9621 86.7585 90.05C86.7585 88.138 84.6074 86.943 81.7394 86.943C78.8713 86.943 76.7203 88.377 76.7203 90.05ZM25.3346 35.5573V37.2303C29.6367 32.4503 34.6557 28.3872 40.1528 24.8021C38.0018 22.8901 35.8507 22.4121 33.9387 22.4121C27.0076 22.4121 25.3346 29.5822 25.3346 35.5573Z" fill="#F9CBCC"/>
<path d="M110.659 85.5107C113.288 86.2278 115.2 86.7058 117.112 87.4228L121.653 88.8568C125.955 90.2908 129.54 93.1588 129.54 97.2219C129.54 101.285 126.433 104.392 122.37 104.392C118.307 104.392 114.961 100.329 113.527 95.5489L112.571 91.9638C112.093 90.0518 111.376 87.9008 110.659 85.5107ZM52.5809 85.5107C51.6248 87.9008 51.1468 90.0518 50.6688 91.9638L49.7128 95.5489C48.2788 100.329 45.4107 104.392 40.8697 104.392C36.3286 104.392 33.6996 101.285 33.6996 97.2219C33.6996 93.1588 37.0456 90.2908 41.5867 88.8568L46.1278 87.4228C48.0398 86.9448 50.1908 86.2278 52.5809 85.5107Z" fill="#8AB6E3"/>
<path d="M135.515 94.1139H147.943C147.943 96.7429 147.465 99.3719 146.748 102.001L135.515 97.9379V97.2209C135.515 96.0259 135.515 95.0699 135.276 94.1139H135.515ZM129.779 85.9877L147.465 79.5346C147.943 82.1637 148.182 84.7927 148.182 87.6607H131.93C131.452 87.1827 130.496 86.4657 129.779 85.9877ZM123.086 25.0419C125.237 23.1299 127.389 22.4128 129.301 22.4128C136.232 22.4128 137.905 29.5829 137.905 35.558V37.4701C133.603 32.69 128.584 28.3879 123.086 25.0419ZM113.765 19.7838C118.784 13.5697 124.998 10.2237 131.691 10.2237C144.119 10.2237 148.421 24.0859 148.421 39.1431C148.421 54.2003 148.421 46.5522 147.943 51.0933C146.748 49.1812 145.553 47.0302 144.358 45.1182C144.597 41.5331 144.836 38.9041 144.836 36.514C144.836 25.0419 140.534 15.4817 130.496 15.4817C120.457 15.4817 121.174 17.3938 117.589 21.2178C116.394 20.7398 115.199 20.0228 114.004 19.5448L113.765 19.7838ZM110.658 85.5097C113.287 86.2267 115.199 86.7048 117.111 87.4218L121.652 88.8558C125.954 90.2898 129.54 93.1578 129.54 97.2209C129.54 101.284 126.432 104.391 122.369 104.391C118.306 104.391 114.96 100.328 113.526 95.5479L112.57 91.9628C112.092 90.0508 111.375 87.8998 110.658 85.5097ZM89.626 71.4085C89.626 74.0376 91.777 76.4276 94.6451 76.4276C97.5131 76.4276 99.6641 74.2766 99.6641 71.4085C99.6641 68.5405 100.859 68.7795 102.293 68.7795C103.727 68.7795 105.161 69.9745 105.161 71.4085C105.161 74.0376 107.312 76.4276 110.18 76.4276C113.048 76.4276 115.199 74.2766 115.199 71.4085C115.199 64.2384 109.463 58.7414 102.532 58.7414C95.6011 58.7414 89.865 64.2384 89.865 71.4085H89.626ZM76.7198 90.0508C76.7198 88.3778 78.6318 86.9438 81.7389 86.9438C84.8459 86.9438 86.7579 88.3778 86.7579 90.0508C86.7579 91.7238 84.6069 93.3968 81.7389 93.3968C78.8708 93.3968 76.7198 91.9628 76.7198 90.0508ZM70.0277 90.0508C70.0277 96.0259 75.2858 99.8499 81.4999 99.8499C87.714 99.8499 92.972 95.7869 92.972 90.0508C92.972 84.3147 87.714 80.4906 81.4999 80.4906C75.2858 80.4906 70.0277 84.5537 70.0277 90.0508ZM54.4925 102.718C54.4925 117.058 66.2037 127.096 81.4999 127.096C96.7961 127.096 108.507 116.819 108.507 102.718C108.507 88.6168 107.073 99.3719 105.161 99.3719C103.249 99.3719 103.488 99.6109 101.098 101.523C98.2301 103.913 92.494 107.976 81.2609 107.976C70.0277 107.976 64.5306 103.674 61.6626 101.523C59.2726 99.6109 58.3165 99.3719 57.3605 99.3719C55.4485 99.3719 54.0145 100.806 54.0145 102.718H54.4925ZM48.5174 71.4085C48.5174 74.0376 50.6684 76.4276 53.5365 76.4276C56.4045 76.4276 58.5555 74.2766 58.5555 71.4085C58.5555 68.5405 59.7506 68.7795 61.1846 68.7795C62.6186 68.7795 64.0526 69.9745 64.0526 71.4085C64.0526 74.0376 66.2036 76.4276 69.0717 76.4276C71.9397 76.4276 74.0908 74.2766 74.0908 71.4085C74.0908 64.2384 68.3547 58.7414 61.4236 58.7414C54.4925 58.7414 48.7564 64.2384 48.7564 71.4085H48.5174ZM33.9382 97.2209C33.9382 93.1578 37.2843 90.2898 41.8253 88.8558L46.3664 87.4218C48.2784 86.9438 50.4294 86.2267 52.8195 85.5097C51.8635 87.8998 51.3855 90.0508 50.9074 91.9628L49.9514 95.5479C48.5174 100.328 45.6494 104.391 41.1083 104.391C36.5672 104.391 33.9382 101.284 33.9382 97.2209ZM25.3341 35.558C25.3341 29.5829 27.0071 22.4128 33.9382 22.4128C40.8693 22.4128 38.0013 22.8909 40.1523 24.8029C34.8942 28.3879 29.8751 32.451 25.3341 37.2311V35.558ZM16.969 72.8425C24.3781 43.9231 50.6684 22.4128 81.7389 22.4128C112.809 22.4128 139.1 43.9231 146.509 72.8425L122.13 81.9247H121.891L119.262 80.9687L113.526 79.0566C109.941 77.8616 106.834 77.1446 105.639 77.1446C104.444 77.1446 103.01 78.1006 103.01 80.0126C103.01 81.9247 103.966 85.2707 104.922 88.6168L106.834 95.0699C109.463 104.152 113.526 110.844 122.608 110.844C131.691 110.844 131.93 108.215 134.32 104.152L145.792 108.454C137.427 135.939 111.853 156.016 81.9779 156.016C52.1025 156.016 26.5291 135.939 18.164 108.454L29.8751 104.152C32.2652 107.976 36.5672 110.605 41.5863 110.605C50.6684 110.605 54.7315 103.913 57.3605 94.8308L59.2726 88.3778C60.2286 85.2707 61.1846 81.2077 61.1846 79.7737C61.1846 78.3396 59.9896 76.9056 58.5555 76.9056C57.1215 76.9056 54.2535 77.8616 50.6684 78.8176L44.9324 80.7297C43.9764 80.9687 43.0203 81.2076 42.0643 81.6857H41.8253L17.447 72.6036L16.969 72.8425ZM15.0569 94.1139H27.7241C27.7241 95.0699 27.4851 96.0259 27.4851 97.2209V97.9379L16.252 102.001C15.774 99.3719 15.296 96.7429 15.0569 94.1139ZM14.8179 87.6607C14.8179 84.7927 15.0569 82.1637 15.5349 79.5346L33.2212 85.9877C32.5042 86.4657 31.7872 86.9437 31.3092 87.6607H14.8179ZM14.5789 39.1431C14.5789 23.8469 18.881 10.2237 31.3092 10.2237C43.7373 10.2237 44.2153 13.5697 49.2344 19.7838C48.0394 20.2618 46.8444 20.9788 45.6494 21.6958C42.0643 18.1108 37.5232 15.9598 32.7432 15.9598C22.944 15.9598 18.403 25.5199 18.403 36.992C18.403 48.4642 18.403 41.7721 18.881 45.3572C17.447 47.2692 16.252 49.1812 15.2959 51.3322C14.8179 46.7912 14.8179 42.9671 14.8179 39.3821L14.5789 39.1431ZM81.4999 165.815C116.155 165.815 145.075 142.871 154.874 111.8C156.547 111.8 158.698 110.605 158.698 108.454C158.698 106.303 157.981 105.825 156.547 105.347C157.503 101.762 157.981 97.9379 158.22 94.1139H159.654C161.566 94.1139 163 92.6798 163 90.7678C163 88.8558 161.566 87.4218 159.654 87.4218H158.459C158.459 83.3587 157.981 79.5346 157.264 75.7106C158.459 74.9936 158.937 74.0376 158.937 72.8425C158.937 71.1695 157.503 69.7355 156.069 69.7355V69.2575C158.22 55.6343 158.937 46.5522 158.937 38.9041C158.937 17.8718 151.05 0.185547 132.886 0.185547C114.721 0.185547 112.092 5.44362 104.683 15.9598C97.5131 13.8087 89.865 12.6137 81.9779 12.6137C74.0908 12.6137 66.4427 13.8087 59.2726 15.9598C51.8635 5.68262 42.3033 0.424547 31.0702 0.424547C12.6669 0.424547 5.0188 18.1108 5.0188 39.1431C5.0188 60.1754 5.49682 55.6343 7.88685 69.2575V69.7355C6.21383 69.7355 5.0188 71.1695 5.0188 72.8425C5.0188 74.5156 5.49682 74.9936 6.69183 75.7106C5.97482 79.5346 5.49682 83.3587 5.49682 87.4218H4.3018C2.38977 87.4218 0.95575 88.8558 0.95575 90.7678C0.95575 92.6798 2.38977 94.1139 4.3018 94.1139H5.73582C5.97482 97.9379 6.45282 101.762 7.40883 105.347C5.97481 105.825 5.2578 107.02 5.2578 108.454C5.2578 110.605 7.40884 111.8 9.08187 111.8C18.642 142.871 47.8004 165.815 82.4559 165.815H81.4999Z" fill="black"/>
</svg>
