<svg width="55" height="59" viewBox="0 0 55 59" fill="none" xmlns="http://www.w3.org/2000/svg">
<path d="M46.9092 29.416C46.9659 19.9712 39.4624 8.98901 27.6969 8.98901C17.0371 8.98901 8.39966 18.1726 8.39966 29.416C8.39966 40.6593 17.0371 49.9333 27.6969 49.9333C38.3567 49.9333 46.8525 40.7498 46.9092 29.416Z" fill="white"/>
<path d="M39.6608 21.4883L46.9186 13.8019C47.3911 13.2995 47.7502 12.7167 47.9109 12.0938L48.4117 12.3048C50.7081 13.3397 51.8705 13.8923 51.8705 14.2741C51.8705 14.7162 51.7854 15.5703 51.3413 17.1277C50.8971 18.5946 50.1222 20.363 49.8198 20.4836C48.2983 21.0764 42.4581 21.3979 39.6608 21.4883ZM34.7278 16.3741C34.7845 13.2794 35.2571 5.8642 35.8335 5.36182C36.8825 4.47762 40.209 3.30205 41.4564 3.30205C41.9005 3.30205 42.7322 5.2714 43.6205 7.57232C43.0913 7.75318 42.5715 8.07473 42.1274 8.54698L34.7373 16.3741H34.7278ZM25.7596 29.7375C25.7596 29.2653 26.0053 28.8835 26.2605 28.6222C29.0861 25.618 38.8576 15.2286 43.6772 10.1345C44.0079 9.81294 44.3103 9.69237 44.5938 9.69237C45.3404 9.69237 45.898 10.3656 45.898 11.0488C45.898 11.5211 45.6523 11.9029 45.3971 12.1641C41.1634 16.6353 30.8911 27.5572 27.9804 30.6519C27.6497 30.9734 27.3473 31.0939 27.0638 31.0939C26.3172 31.0939 25.7596 30.4208 25.7596 29.7375ZM11.6127 29.416C11.6127 20.0515 18.8137 12.4053 27.6969 12.4053C29.4452 12.4053 31.1273 12.6966 32.6772 13.2593C32.5921 15.1482 32.5354 16.997 32.507 18.3535C31.0423 17.62 29.4074 17.2081 27.6875 17.2081C21.2897 17.2081 16.111 22.7142 16.111 29.426C16.111 36.1379 21.2897 41.7345 27.6875 41.7345C34.0853 41.7345 39.1789 36.2283 39.1789 29.426C39.1789 27.4567 38.7347 25.5677 37.9315 23.9199C39.1789 23.8898 40.9461 23.7993 42.7511 23.6888C43.3559 25.4873 43.6961 27.3964 43.6961 29.426C43.6961 38.8709 36.495 46.5272 27.6969 46.5272C18.8988 46.5272 11.6127 38.8709 11.6127 29.426V29.416ZM27.7253 58.6146C42.7605 58.6146 54.9985 45.6028 54.9985 29.6169C54.9985 25.8189 54.3086 22.2017 53.0612 18.876C53.6471 17.2583 54.0535 15.4597 54.0535 14.2842C54.0535 12.3148 52.6454 11.722 49.2339 10.1646L47.7408 9.52157C47.3817 8.75795 46.7674 8.13498 46.0492 7.75317C45.2459 5.72354 44.1119 2.59875 43.0913 1.5136C42.7889 1.16193 42.3164 1.01121 41.6548 1.01121C40.2468 1.01121 38.3095 1.60401 36.7502 2.24706C33.8962 1.21215 30.8816 0.629395 27.7253 0.629395C12.69 0.629395 0.452026 13.6411 0.452026 29.627C0.452026 45.6129 12.69 58.6246 27.7253 58.6246V58.6146Z" fill="#FF3801"/>
<path d="M39.6609 21.488L46.9186 13.8016C47.3911 13.2992 47.7502 12.7164 47.9109 12.0935L48.4117 12.3045C50.7081 13.3394 51.8705 13.892 51.8705 14.2738C51.8705 14.7159 51.7855 15.57 51.3413 17.1274C50.8971 18.5943 50.1222 20.3627 49.8198 20.4833C48.2983 21.0761 42.4581 21.3976 39.6609 21.488ZM34.7279 16.3738C34.7846 13.2791 35.2571 5.86391 35.8335 5.36152C36.8825 4.47732 40.209 3.30176 41.4564 3.30176C41.9005 3.30176 42.7322 5.2711 43.6205 7.57202C43.0913 7.75288 42.5715 8.07444 42.1274 8.54668L34.7373 16.3738H34.7279ZM25.7596 29.7372C25.7596 29.265 26.0053 28.8832 26.2605 28.6219C29.0861 25.6177 38.8576 15.2283 43.6772 10.1342C44.0079 9.81265 44.3104 9.69207 44.5939 9.69207C45.3404 9.69207 45.898 10.3653 45.898 11.0485C45.898 11.5208 45.6523 11.9026 45.3971 12.1638C41.1634 16.635 30.8911 27.5569 27.9804 30.6516C27.6497 30.9731 27.3473 31.0936 27.0638 31.0936C26.3172 31.0936 25.7596 30.4205 25.7596 29.7372Z" fill="#B3D9FF"/>
<path d="M39.6608 21.4883L46.9186 13.8019C47.3911 13.2995 47.7502 12.7167 47.9109 12.0938L48.4117 12.3048C50.7081 13.3397 51.8705 13.8923 51.8705 14.2741C51.8705 14.7162 51.7854 15.5703 51.3413 17.1277C50.8971 18.5946 50.1222 20.363 49.8198 20.4836C48.2983 21.0764 42.4581 21.3979 39.6608 21.4883ZM34.7278 16.3741C34.7845 13.2794 35.2571 5.8642 35.8335 5.36182C36.8825 4.47762 40.209 3.30205 41.4564 3.30205C41.9005 3.30205 42.7322 5.2714 43.6205 7.57232C43.0913 7.75318 42.5715 8.07473 42.1274 8.54698L34.7373 16.3741H34.7278ZM25.7596 29.7375C25.7596 29.2653 26.0053 28.8835 26.2605 28.6222C29.0861 25.618 38.8576 15.2286 43.6772 10.1345C44.0079 9.81294 44.3103 9.69237 44.5938 9.69237C45.3404 9.69237 45.898 10.3656 45.898 11.0488C45.898 11.5211 45.6523 11.9029 45.3971 12.1641C41.1634 16.6353 30.8911 27.5572 27.9804 30.6519C27.6497 30.9734 27.3473 31.0939 27.0638 31.0939C26.3172 31.0939 25.7596 30.4208 25.7596 29.7375ZM19.3146 29.4361C19.3146 24.5529 23.0569 20.574 27.678 20.574C28.623 20.574 29.5019 20.7247 30.3335 21.0462L27.593 23.93C24.7674 23.9601 22.471 26.4318 22.471 29.4361C22.471 32.4404 24.7957 34.9724 27.678 34.9724C30.5603 34.9724 32.8567 32.5006 32.8567 29.4361C32.8567 29.205 32.8567 28.9639 32.8284 28.7629L35.3799 26.05C35.7957 27.0849 36.0131 28.2304 36.0131 29.4361C36.0131 34.3494 32.2708 38.3283 27.678 38.3283C23.0852 38.3283 19.3146 34.3494 19.3146 29.4361ZM11.6127 29.416C11.6127 20.0515 18.8137 12.4053 27.6969 12.4053C29.4452 12.4053 31.1273 12.6966 32.6772 13.2593C32.5921 15.1482 32.5354 16.997 32.507 18.3535C31.0423 17.62 29.4074 17.2081 27.6875 17.2081C21.2897 17.2081 16.111 22.7142 16.111 29.426C16.111 36.1379 21.2897 41.7345 27.6875 41.7345C34.0853 41.7345 39.1789 36.2283 39.1789 29.426C39.1789 27.4567 38.7347 25.5677 37.9315 23.9199C39.1789 23.8898 40.9461 23.7993 42.7511 23.6888C43.3559 25.4873 43.6961 27.3964 43.6961 29.426C43.6961 38.8709 36.495 46.5272 27.6969 46.5272C18.8988 46.5272 11.6127 38.8709 11.6127 29.426V29.416ZM3.72178 29.6169C3.72178 15.52 14.4666 4.0958 27.7253 4.0958C29.7759 4.0958 31.7416 4.35705 33.6222 4.85943C33.4048 5.48239 33.2914 6.246 33.1497 7.30101C33.0646 7.97421 32.9796 8.79811 32.904 9.74259C31.2407 9.24021 29.5302 8.97902 27.6969 8.97902C17.0371 8.97902 8.39964 18.1626 8.39964 29.4059C8.39964 40.6493 17.0371 49.9233 27.6969 49.9233C38.3567 49.9233 46.9091 40.7397 46.9091 29.4059C46.9091 27.316 46.6067 25.3166 46.0492 23.4276C46.8524 23.3372 47.5706 23.2768 48.1282 23.1965C49.5363 22.9855 50.3112 22.7845 50.7837 22.5534C51.3885 24.8242 51.7288 27.1754 51.7288 29.6169C51.7288 43.7138 40.9839 55.1381 27.7253 55.1381C14.4666 55.1381 3.72178 43.7138 3.72178 29.6169ZM27.7253 58.6146C42.7605 58.6146 54.9985 45.6028 54.9985 29.6169C54.9985 25.8189 54.3086 22.2017 53.0612 18.876C53.6471 17.2583 54.0535 15.4597 54.0535 14.2842C54.0535 12.3148 52.6454 11.722 49.2339 10.1646C48.7047 9.93354 48.1849 9.72253 47.7408 9.52157C47.3817 8.75795 46.7674 8.13498 46.0492 7.75317C45.2459 5.72354 44.1119 2.59875 43.0913 1.5136C42.7889 1.16193 42.3164 1.01121 41.6548 1.01121C40.2468 1.01121 38.3095 1.60401 36.7502 2.24706C33.8962 1.21215 30.8816 0.629395 27.7253 0.629395C12.69 0.629395 0.452026 13.6411 0.452026 29.627C0.452026 45.6129 12.69 58.6246 27.7253 58.6246V58.6146Z" fill="black"/>
</svg>
