<svg width="92" height="92" viewBox="0 0 92 92" fill="none" xmlns="http://www.w3.org/2000/svg">
<path d="M55.917 29.9507C55.917 26.0618 59.0623 22.9158 62.9506 22.9158C66.8389 22.9158 69.9369 26.0144 69.9369 29.9507C69.9369 33.8871 66.7915 36.9382 62.9506 36.9382C59.1098 36.9382 55.917 33.65 55.917 29.9507ZM27.1974 32.8121C27.1974 29.8401 29.5999 27.4371 32.5714 27.4371C35.543 27.4371 37.9455 30.0298 37.9455 32.8121C37.9455 35.7842 35.543 38.1871 32.5714 38.1871C29.5999 38.1871 27.1974 35.7842 27.1974 32.8121ZM45.6431 91.8736C70.7904 91.8736 91.2592 71.4013 91.2592 46.2496C91.2592 21.0978 70.7904 0.625488 45.6431 0.625488C20.4957 0.625488 0.0268555 21.0978 0.0268555 46.2496C0.0268555 71.4013 20.4957 91.8736 45.6431 91.8736Z" fill="#FFFF55"/>
<path d="M66.2385 49.3957C66.2385 45.7755 69.1151 42.8667 72.7189 42.8667C76.3227 42.8667 79.1994 45.6016 79.1994 49.3957C79.1994 52.9211 76.2753 55.8299 72.7189 55.8299C69.1626 55.8299 66.2385 53.0001 66.2385 49.3957ZM18.7256 55.8299C15.1534 55.8299 12.2451 52.9053 12.2451 49.3957C12.2451 45.6965 15.1692 42.8667 18.7256 42.8667C22.2819 42.8667 25.206 45.7913 25.206 49.3957C25.206 53.0001 22.3294 55.8299 18.7256 55.8299Z" fill="#FFCCCC"/>
<path d="M55.9168 29.9509C55.9168 33.6502 58.9674 36.9384 62.9505 36.9384C66.9336 36.9384 69.9368 33.7924 69.9368 29.9509C69.9368 26.1094 66.8388 22.916 62.9505 22.916C59.0622 22.916 55.9168 26.062 55.9168 29.9509ZM32.5713 27.4531C29.5998 27.4531 27.1973 29.8561 27.1973 32.8281C27.1973 35.8002 29.5998 38.2031 32.5713 38.2031C35.5428 38.2031 37.9453 35.8002 37.9453 32.8281C37.9453 30.0458 35.6693 27.4531 32.5713 27.4531Z" fill="white"/>
<path d="M66.2383 49.3955C66.2383 45.7753 69.115 42.8665 72.7187 42.8665C76.3225 42.8665 79.1992 45.6014 79.1992 49.3955C79.1992 52.9209 76.2751 55.8297 72.7187 55.8297C69.1624 55.8297 66.2383 52.9999 66.2383 49.3955ZM62.5871 49.3481C62.5871 54.9444 67.1234 59.4973 72.7346 59.4973C78.3457 59.4973 82.882 54.9602 82.882 49.3955C82.882 43.8308 78.3457 39.2463 72.7346 39.2463C67.1234 39.2463 62.5871 43.7834 62.5871 49.3481ZM59.0149 27.3107C59.0149 25.1291 60.8168 23.3269 62.9506 23.3269C65.0844 23.3269 66.8864 25.1291 66.8864 27.3107C66.8864 29.4923 65.0844 31.2471 62.9506 31.2471C60.8168 31.2471 59.0149 29.4923 59.0149 27.3107ZM55.917 29.9507C55.917 33.65 58.9675 36.9382 62.9506 36.9382C66.9337 36.9382 69.9369 33.7923 69.9369 29.9507C69.9369 26.1092 66.8389 22.9158 62.9506 22.9158C59.0623 22.9158 55.917 26.0618 55.917 29.9507ZM54.3364 16.6556C54.3364 15.6754 54.8421 14.7585 55.7273 14.2526C57.9085 13.0986 60.1688 12.4979 62.4923 12.4979C64.8158 12.4979 67.1708 13.0986 69.6208 14.3475C70.5533 14.8534 71.1065 15.7861 71.1065 16.7504C71.1065 18.1416 70.0001 19.4853 68.3247 19.4853C67.9137 19.4853 67.487 19.3905 67.076 19.2008C65.448 18.3155 63.8357 17.9519 62.35 17.9519C61.0065 17.9519 59.663 18.3155 58.3195 19.0585C57.9085 19.2956 57.4817 19.3905 57.0234 19.3905C55.5376 19.3905 54.3364 18.1416 54.3364 16.6556ZM52.2974 29.9507C52.2974 24.0225 57.0234 19.2956 62.9506 19.2956C68.8779 19.2956 73.6039 23.8802 73.6039 29.9507C73.6039 36.0213 68.8305 40.6058 62.9506 40.6058C57.0708 40.6058 52.2974 35.8316 52.2974 29.9507ZM38.6884 44.068C38.6884 45.554 39.8422 46.8029 41.4228 46.8029C42.9086 46.8029 44.1573 45.554 44.1573 44.068C44.1573 43.2301 44.8053 42.5819 45.6431 42.5819C46.4808 42.5819 47.1762 43.2301 47.1762 44.068C47.1762 45.554 48.3775 46.8029 49.9107 46.8029C51.4438 46.8029 52.6451 45.554 52.6451 44.068C52.6451 40.179 49.4997 37.1279 45.6588 37.1279C41.818 37.1279 38.72 40.179 38.72 44.068H38.6884ZM31.0541 55.8297C31.0541 54.3436 32.3028 53.0948 33.7885 53.0948C34.895 53.0948 35.9223 53.7903 36.3333 54.897C37.3133 57.537 38.23 59.023 39.3838 59.023C40.9644 59.023 41.976 55.0867 45.8643 55.0867C50.9539 55.0867 50.78 60.4616 52.2974 60.4616C54.0518 60.4616 55.3005 56.8414 55.9486 53.6955C56.2805 52.2095 57.1973 51.008 58.683 51.008C60.1688 51.008 61.4174 52.2095 61.4174 53.6955C61.4174 58.8333 57.2447 65.9157 52.1077 65.9157C48.583 65.9157 47.1604 63.5127 45.8485 60.7304C44.1414 62.4852 41.9128 64.4771 39.2732 64.4771C37.4239 64.4771 35.5272 63.6392 34.0414 61.9318C32.8402 60.5881 31.0383 57.205 31.0383 55.8139L31.0541 55.8297ZM27.8613 33.5551C27.8613 31.9743 29.1099 30.7728 30.6905 30.7728C32.2711 30.7728 33.4724 31.9743 33.4724 33.5551C33.4724 35.136 32.1763 36.3849 30.6431 36.3849C29.1099 36.3849 27.8613 35.0886 27.8613 33.5551ZM27.1974 32.8121C27.1974 35.7842 29.5999 38.1871 32.5714 38.1871C35.543 38.1871 37.9455 35.7842 37.9455 32.8121C37.9455 30.0298 35.6694 27.4371 32.5714 27.4371C29.4735 27.4371 27.1974 29.8401 27.1974 32.8121ZM18.6463 25.6824C18.6463 23.643 22.1237 20.4022 24.2417 19.1534C26.3281 17.9519 28.6357 17.3037 31.1805 17.3037C32.7137 17.3037 33.8675 18.5526 33.8675 20.0861C33.8675 21.5247 32.7137 22.7736 31.2279 22.7736C29.5999 22.7736 28.2248 23.1372 27.0077 23.8802C25.7591 24.5758 24.6052 25.6824 23.6726 27.1684C23.1194 28.0063 22.2343 28.4173 21.365 28.4173C19.8318 28.4173 18.6306 27.2158 18.6306 25.6824H18.6463ZM12.2449 49.3955C12.2449 45.6963 15.1691 42.8665 18.7254 42.8665C22.2818 42.8665 25.2058 45.7911 25.2058 49.3955C25.2058 52.9999 22.3292 55.8297 18.7254 55.8297C15.1216 55.8297 12.2449 52.905 12.2449 49.3955ZM8.59374 49.3955C8.59374 54.9602 13.2249 59.4973 18.7412 59.4973C24.2575 59.4973 28.8887 54.9602 28.8887 49.3481C28.8887 43.736 24.4946 39.2463 18.7412 39.2463C12.9878 39.2463 8.59374 43.7834 8.59374 49.3955ZM5.47995 46.2496C5.47995 24.0699 23.4514 6.09532 45.6272 6.09532C67.8031 6.09532 85.7745 24.0699 85.7745 46.2496C85.7745 68.4292 67.8031 86.4038 45.6272 86.4038C23.4514 86.4038 5.47995 68.4292 5.47995 46.2496ZM0.0268555 46.2496C0.0268555 71.4013 20.4957 91.8736 45.6431 91.8736C70.7904 91.8736 91.2592 71.4013 91.2592 46.2496C91.2592 21.0978 70.7904 0.625488 45.6431 0.625488C20.4957 0.625488 0.0268555 21.0978 0.0268555 46.2496ZM32.5714 41.8073C27.5767 41.8073 23.5936 37.7286 23.5936 32.8279C23.5936 27.9272 27.4345 23.8486 32.5714 23.8486C37.3449 23.8486 41.5493 27.7849 41.5493 32.8279C41.5493 37.6022 37.7084 41.8073 32.5714 41.8073Z" fill="black"/>
</svg>
