<svg width="93" height="92" viewBox="0 0 93 92" fill="none" xmlns="http://www.w3.org/2000/svg">
<path d="M69.8751 41.4852C76.9677 40.4473 88.385 26.9542 88.385 19.8617C88.385 12.7691 87.0011 15.191 82.6763 15.191H72.6429V19.6887H79.2165C81.2924 19.6887 82.3304 20.7266 82.3304 22.6295C82.3304 26.6082 76.2757 33.8737 71.605 35.2576C71.086 37.3335 70.567 39.4093 69.7021 41.3122L69.8751 41.4852ZM28.7033 74.526H63.8204L61.9175 71.2392H55.6898C53.7869 73.1421 49.6352 73.661 46.1754 73.661C42.7156 73.661 38.3908 73.1421 36.6609 71.2392H30.6062L28.5303 74.526H28.7033ZM26.6274 87.8461H64.6853V78.5047H26.6274V87.8461ZM23.8596 12.2502C23.8596 7.2335 38.2178 4.63867 46.1754 4.63867C54.1329 4.63867 68.4911 7.40649 68.4911 12.2502C68.4911 17.0938 67.6262 14.326 66.2422 15.364C65.2043 16.0559 63.9934 16.7479 62.6095 17.2668C58.2847 18.9967 52.403 20.0346 46.1754 20.0346C39.9477 20.0346 30.4332 18.4777 26.1085 15.7099C26.1085 17.6128 27.3194 20.2076 32.6821 21.9375C38.0448 23.6674 41.1586 23.8404 46.1754 23.8404C51.1921 23.8404 56.0358 23.1484 59.6686 21.9375C65.2043 20.0346 66.2422 17.6128 66.2422 15.7099C65.8963 9.65534 53.614 7.75247 46.1754 7.75247C38.7368 7.75247 36.3149 8.44442 32.6821 9.65534C27.3194 11.3852 26.1085 13.8071 26.1085 15.7099C24.7245 14.672 23.8596 13.8071 23.8596 12.5961V12.2502ZM23.8596 26.2622C23.8596 41.1392 33.3741 57.7461 46.1754 57.7461C58.9767 57.7461 68.4911 40.9662 68.4911 26.2622V18.4777C63.3014 22.1105 54.1329 23.6674 46.1754 23.6674C38.2178 23.6674 29.0493 22.1105 23.8596 18.4777V26.2622ZM4.31167 19.8617C4.31167 26.7812 15.729 40.4473 22.8216 41.4852C22.1297 39.5823 21.4377 37.5065 20.9187 35.4306C16.248 34.0467 10.1933 26.7812 10.1933 22.8025C10.1933 18.8237 11.2313 19.8617 13.3072 19.8617H19.8808V15.364H9.84736C5.5226 15.364 4.13867 17.2668 4.13867 20.0346L4.31167 19.8617ZM46.3483 61.7248C44.2725 61.7248 42.1966 61.3789 40.2937 60.6869C39.9477 63.1087 39.7747 65.7036 39.7747 67.9524C39.7747 70.2013 43.5805 69.3363 46.3483 69.3363C48.9432 69.3363 52.922 68.9903 52.922 67.9524C52.922 65.7036 52.922 63.1087 52.403 60.6869C50.5001 61.3789 48.4242 61.7248 46.3483 61.7248Z" fill="#FFE180"/>
<path d="M72.297 30.5869C72.297 29.203 72.47 27.8191 72.47 26.2622V23.4944H76.9678C77.3138 23.4944 77.6597 23.4944 77.6597 24.0134C77.6597 25.2243 74.5459 28.857 72.297 30.5869ZM69.8752 41.4852C70.5671 39.5823 71.2591 37.5065 71.7781 35.4306C76.4488 34.0467 82.5035 26.7812 82.5035 22.8025C82.5035 18.8237 81.4655 19.8617 79.3896 19.8617H72.816V15.364H82.8495C87.1742 15.364 88.5582 17.2668 88.5582 20.0346C88.5582 26.9542 77.1408 40.6203 70.0482 41.6582L69.8752 41.4852ZM49.8083 35.0846C49.8083 37.1605 51.5382 38.8904 53.6141 38.8904C55.69 38.8904 57.4199 37.1605 57.4199 35.0846C57.4199 33.0088 55.69 31.2789 53.6141 31.2789C51.5382 31.2789 49.8083 33.0088 49.8083 35.0846ZM40.1208 44.08C40.1208 47.1938 43.2346 49.4427 46.5215 49.4427C49.8083 49.4427 52.9221 47.1938 52.9221 44.08C52.9221 40.9662 52.0572 42.1772 50.8462 42.1772C49.6353 42.1772 48.9433 43.0421 48.9433 44.08C48.9433 45.118 48.0784 45.4639 46.5215 45.4639C44.9645 45.4639 44.0996 44.599 44.0996 44.08C44.0996 43.0421 43.2346 42.1772 42.1967 42.1772C41.1588 42.1772 40.2938 43.0421 40.2938 44.08H40.1208ZM34.7581 35.0846C34.7581 37.1605 36.488 38.8904 38.5639 38.8904C40.6398 38.8904 42.3697 37.1605 42.3697 35.0846C42.3697 33.0088 40.6398 31.2789 38.5639 31.2789C36.488 31.2789 34.7581 33.0088 34.7581 35.0846ZM28.7034 74.526L30.7793 71.2392H36.834C38.7369 73.1421 42.8886 73.661 46.3485 73.661C49.8083 73.661 54.133 73.1421 55.8629 71.2392H62.0906L63.9935 74.526H28.8764H28.7034ZM26.6276 87.8461V78.5047H64.6855V87.8461H26.6276ZM23.8597 12.2502C23.8597 7.2335 38.2179 4.63867 46.1755 4.63867C54.133 4.63867 68.4912 7.40649 68.4912 12.2502C68.4912 17.0938 67.6263 14.326 66.2424 15.364C65.8964 9.48235 53.6141 7.57948 46.1755 7.57948C38.7369 7.57948 36.315 8.27144 32.6822 9.48235C27.3195 11.2122 26.1086 13.6341 26.1086 15.5369C24.7247 14.499 23.8597 13.6341 23.8597 12.4232V12.2502ZM23.8597 26.2622V18.4777C29.0494 22.1105 38.3909 23.6674 46.1755 23.6674C53.9601 23.6674 63.4745 21.9375 68.4912 18.4777V26.2622C68.4912 41.1392 58.9768 57.7461 46.1755 57.7461C33.3742 57.7461 23.8597 40.9662 23.8597 26.2622ZM14.8642 24.0134C14.8642 23.4944 15.0372 23.4944 15.5562 23.4944H20.0539V26.2622C20.0539 27.6461 20.0539 29.03 20.2269 30.5869C17.978 29.03 14.8642 25.3973 14.8642 24.0134ZM4.31179 19.8617C4.31179 17.0938 5.6957 15.191 10.0205 15.191H20.0539V19.6887H13.4803C11.4044 19.6887 10.3665 20.7266 10.3665 22.6295C10.3665 26.6082 16.4211 33.8737 21.0919 35.2576C21.6108 37.3335 22.1298 39.4093 22.9947 41.3122C15.9021 40.2743 4.48477 26.7812 4.48477 19.6887L4.31179 19.8617ZM0.333008 19.8617C0.333008 29.549 14.3452 45.2909 24.0327 45.2909H24.5517C27.4925 51.1726 31.4713 56.0162 36.488 58.957C36.142 61.7248 35.7961 64.3197 35.7961 67.0875H29.5684C28.8764 67.0875 28.1845 67.4335 27.8385 68.1254L23.5137 75.3909C23.3407 75.7369 23.3407 76.0829 23.3407 76.4288V89.576C23.3407 90.6139 24.2057 91.4789 25.2436 91.4789H67.2803C68.3183 91.4789 69.3562 90.6139 69.3562 89.576V76.2559C69.3562 75.9099 69.3562 75.5639 69.1832 75.2179L65.0314 67.9524C64.6855 67.2605 63.9935 66.9145 63.3015 66.9145H56.9009C56.9009 64.1467 56.5549 61.5519 56.2089 58.784C61.2257 56.0162 65.3774 50.9996 68.1453 45.118H68.6642C78.3517 45.118 92.3639 29.203 92.3639 19.6887C92.3639 10.1743 89.0771 10.8663 83.7144 10.8663H72.643C71.2591 3.42776 56.5549 0.313965 46.5215 0.313965C36.488 0.313965 21.6108 3.25477 20.3999 10.8663H9.32851C3.9658 10.8663 0.678983 13.98 0.678983 19.6887L0.333008 19.8617ZM46.3485 61.7248C48.4243 61.7248 50.5002 61.3789 52.4031 60.6869C52.7491 63.1087 52.9221 65.7036 52.9221 67.9524C52.9221 70.2013 49.1163 69.3363 46.3485 69.3363C43.7536 69.3363 39.7748 68.9903 39.7748 67.9524C39.7748 65.7036 39.7748 63.1087 40.2938 60.6869C42.1967 61.3789 44.2726 61.7248 46.3485 61.7248Z" fill="black"/>
</svg>
