<svg width="101" height="102" viewBox="0 0 101 102" fill="none" xmlns="http://www.w3.org/2000/svg">
<path d="M50.4645 100.906C77.9699 100.906 100.459 78.5908 100.459 50.9126C100.459 23.2345 78.1429 0.918945 50.4645 0.918945C22.786 0.918945 0.470215 23.2345 0.470215 50.9126C0.470215 78.5908 22.786 100.906 50.4645 100.906Z" fill="#FFE180"/>
<path d="M59.6329 25.3097H69.8393C70.7042 25.3097 71.3962 24.7908 71.7422 23.9259L74.856 14.2386L77.9698 23.9259C78.1428 24.7908 79.0078 25.3097 79.8727 25.3097H90.0791L81.7756 31.3643C81.2566 31.7102 80.9107 32.4022 80.9107 32.9212C80.9107 33.4402 80.9107 33.2672 80.9107 33.6132L84.0245 43.3005L75.7209 37.2459C75.375 37.0729 75.029 36.9 74.51 36.9C73.991 36.9 73.6451 36.8999 73.2991 37.2459L64.9955 43.3005L68.1094 33.6132C68.1094 33.4402 68.1094 33.0942 68.1094 32.9212C68.1094 32.2293 67.7634 31.7102 67.2444 31.3643L58.9408 25.3097H59.6329ZM24.6888 37.073L16.3852 43.1276L19.499 33.4403C19.499 33.2673 19.499 32.9212 19.499 32.7483C19.499 32.0563 19.1531 31.5373 18.6341 31.1913L10.3306 25.1367H20.537C21.4019 25.1367 22.0939 24.6179 22.4399 23.7529L25.5537 14.0654L28.6675 23.7529C28.8405 24.6179 29.7055 25.1367 30.5704 25.1367H40.7768L32.4733 31.1913C31.9544 31.5373 31.6084 32.2293 31.6084 32.7483C31.6084 33.2672 31.6084 33.0943 31.6084 33.4403L34.7222 43.1276L26.4187 37.073C26.0727 36.9 25.7267 36.7271 25.2077 36.7271C24.6887 36.7271 24.3428 36.727 23.9968 37.073H24.6888Z" fill="#FF9614"/>
<path d="M80.7378 19.2556C81.4297 19.9475 81.9487 20.4667 82.6407 21.1586H81.4297L80.7378 19.2556ZM59.633 25.3102L69.8394 25.3102C70.7044 25.3102 71.3963 24.7913 71.7423 23.9264L74.8561 14.2391L77.9699 23.9264C78.1429 24.7913 79.0079 25.3102 79.8728 25.3102H90.0793L81.7757 31.3648C81.2568 31.7107 80.9108 32.4027 80.9108 32.9217C80.9108 33.4407 80.9108 33.2677 80.9108 33.6137L84.0246 43.301L75.7211 37.2464C75.3751 37.0734 75.0291 36.9005 74.5101 36.9005C73.9911 36.9005 73.6452 36.9004 73.2992 37.2464L64.9956 43.301L68.1095 33.6137C68.1095 33.4407 68.1095 33.0947 68.1095 32.9217C68.1095 32.2297 67.7635 31.7107 67.2446 31.3648L58.941 25.3102H59.633ZM42.8529 48.6636C42.8529 50.2205 44.0638 51.6045 45.7937 51.6045C47.5236 51.6045 48.7345 50.2205 48.7345 48.6636C48.7345 47.1067 49.4265 47.1069 50.2915 47.1069C51.1564 47.1069 52.0214 47.7987 52.0214 48.6636C52.0214 50.2205 53.4053 51.6045 54.9622 51.6045C56.5191 51.6045 57.9031 50.2205 57.9031 48.6636C57.9031 44.3389 54.4432 41.0523 50.2915 41.0523C46.1397 41.0523 42.6799 44.3389 42.6799 48.6636H42.8529ZM22.613 59.0429C22.613 70.6331 32.3004 83.2613 50.2915 83.2613C68.2825 83.2613 77.9699 70.6331 77.9699 59.0429C77.9699 47.4527 76.586 55.2372 75.0291 55.2372C73.4722 55.2372 73.4722 55.7563 72.0883 56.6212C64.8227 61.9839 59.8059 64.2326 50.2915 64.2326C40.777 64.2326 35.5873 61.9839 28.4947 56.6212C27.1108 55.5833 26.4188 55.2372 25.5538 55.2372C23.9969 55.2372 22.613 56.4481 22.613 59.0429ZM18.1153 21.1586L20.0181 19.2556L19.3262 21.1586H18.1153ZM10.5036 25.3102H20.7101C21.5751 25.3102 22.267 24.7913 22.613 23.9264L25.7268 14.2391L28.8406 23.9264C29.0136 24.7913 29.8786 25.3102 30.7435 25.3102H40.95L32.6465 31.3648C32.1275 31.7107 31.7815 32.4027 31.7815 32.9217C31.7815 33.4407 31.7815 33.2677 31.7815 33.6137L34.8953 43.301L26.5918 37.2464C26.2458 37.0734 25.8998 36.9005 25.3808 36.9005C24.8619 36.9005 24.5159 36.9004 24.1699 37.2464L15.8664 43.301L18.9802 33.6137C18.9802 33.4407 18.9802 33.0947 18.9802 32.9217C18.9802 32.2297 18.6342 31.7107 18.1153 31.3648L9.81169 25.3102H10.5036ZM0.470215 51.0855C0.470215 78.5906 22.786 101.079 50.4645 101.079C78.1429 101.079 100.459 78.7636 100.459 51.0855C100.459 23.4073 98.2098 34.3057 94.404 27.2132L97.6909 24.7913C98.2099 24.4454 98.5558 23.7534 98.5558 23.2344C98.5558 22.1965 97.5179 21.3316 96.4799 21.3316H90.5983C86.9655 16.4879 82.6407 12.5092 77.624 9.22238L76.932 7.14639C76.759 6.28145 75.8941 5.76261 75.0291 5.76261C74.1642 5.76261 73.6452 6.10859 73.2992 6.62755C66.3796 3.16778 58.595 1.0918 50.4645 1.0918C42.3339 1.0918 34.3764 3.16778 27.6297 6.62755C27.2838 6.10859 26.5918 5.76261 25.8998 5.76261C25.2079 5.76261 24.3429 6.28145 23.9969 7.14639L23.305 9.22238C18.2883 12.5092 13.9635 16.4879 10.3307 21.3316H4.44897C3.41103 21.3316 2.54612 22.1964 2.54612 23.4073C2.54612 24.6183 2.8921 24.6183 3.41107 24.9643L6.69788 27.3862C2.7191 34.4787 0.643216 42.609 0.643216 51.2584L0.470215 51.0855ZM39.0471 50.3935C40.085 50.3935 40.95 49.5286 40.95 48.4907C40.95 47.4527 40.95 47.7988 40.777 47.2798L36.4522 33.6137L48.3886 24.7913C48.9076 24.4454 49.2536 23.7534 49.2536 23.2344C49.2536 22.1965 48.2156 21.3316 47.1776 21.3316H32.3005L29.5326 12.5092C35.7603 9.04943 42.8529 7.14639 50.4645 7.14639C58.076 7.14639 65.1687 9.04926 71.3963 12.336L68.4555 21.1586L53.5783 21.1586C52.5404 21.1586 51.6754 22.0235 51.6754 23.2344C51.6754 24.4453 52.0214 24.4454 52.5404 24.7913L64.6497 33.6137L60.1519 47.2798C60.1519 47.7988 59.9789 48.1447 59.9789 48.3177C59.9789 49.3556 60.8439 50.2205 62.0548 50.2205C63.2658 50.2205 62.9198 50.2206 63.2657 49.8746L75.2021 41.2252L87.3115 49.8746C87.6574 50.0476 88.0034 50.2205 88.5224 50.2205C89.5603 50.2205 90.4253 49.3556 90.4253 48.3177C90.4253 47.2798 90.4253 47.6258 90.2523 47.1069L85.9275 33.4408L89.9063 30.673C93.0201 36.7276 94.923 43.647 94.923 50.9125C94.923 75.1309 75.2021 94.8516 50.9835 94.8516C26.7648 94.8516 7.04383 75.1309 7.04383 50.9125C7.04383 26.6942 8.77378 36.7276 12.0606 30.673L16.0394 33.4408L11.5416 47.1069C11.5416 47.6258 11.3686 47.9718 11.3686 48.1448C11.3686 49.1827 12.2336 50.0476 13.4445 50.0476C14.6554 50.0476 14.3095 50.0477 14.6555 49.7017L26.5918 41.0523L38.7011 49.7017C39.0471 49.8747 39.3931 50.0476 39.912 50.0476L39.0471 50.3935Z" fill="black"/>
</svg>
