<svg width="95" height="98" viewBox="0 0 95 98" fill="none" xmlns="http://www.w3.org/2000/svg">
<path d="M51.1922 23.0723L64.5125 6.63844H84.2334L62.7826 31.2028C60.5337 29.9919 58.1119 29.1269 55.69 28.435L51.3652 22.8993L51.1922 23.0723ZM10.3665 6.81143H30.0874L46.8675 27.57C41.5048 27.57 36.315 28.781 31.6443 31.0298L10.3665 6.81143ZM81.8115 62.5137C81.8115 51.0965 76.2758 41.0631 67.9723 34.6626L93.5749 5.42752C95.3048 3.52465 94.0938 0.756836 91.499 0.756836H63.6475C61.9176 0.756836 61.3986 0.929824 60.1877 2.48672L47.3864 18.4017L34.5851 2.48672C33.3742 1.10281 32.8552 0.756836 31.6443 0.756836H3.27385C0.678989 0.756836 -0.531939 3.52465 1.19797 5.42752L26.4546 34.3166C17.8051 40.7171 12.0964 50.9235 12.0964 62.5137C12.0964 81.7154 27.8385 97.2843 47.0405 97.2843C66.2424 97.2843 81.9845 81.7154 81.9845 62.5137H81.8115Z" fill="#FFE180"/>
<path d="M51.192 23.0726L64.5122 6.63867H84.2332L62.7823 31.203C60.5334 29.9921 58.1116 29.1272 55.6897 28.4352L51.365 22.8996L51.192 23.0726ZM31.644 31.03L10.3662 6.81166H30.0871L46.8672 27.5703C41.3315 27.5703 36.3148 28.7812 31.644 31.03Z" fill="#9BD0FF"/>
<path d="M51.1922 23.0723L64.5125 6.63844H84.2334L62.7826 31.2028C60.5337 29.9919 58.1119 29.1269 55.69 28.435L51.3652 22.8993L51.1922 23.0723ZM26.9736 56.6321C26.9736 57.324 27.3195 58.016 27.8385 58.362L37.6989 65.4545L34.0662 76.5257C33.8932 77.2177 33.7202 77.5637 33.7202 77.9097C33.7202 78.9476 34.5851 79.8125 35.6231 79.8125C36.661 79.8125 36.488 79.8125 37.18 79.1206L46.6945 72.028L56.3819 79.1206C56.9009 79.4665 57.2469 79.6395 57.9389 79.6395C58.6308 79.6395 59.8418 78.7746 59.8418 77.7367C59.8418 76.6987 59.8418 77.2177 59.8418 77.0447L56.0359 65.4545L65.8964 58.362C66.4154 58.016 66.7614 57.324 66.7614 56.6321C66.7614 55.5942 65.7234 54.7292 64.6855 54.7292H52.4031L48.5974 43.139C48.2514 42.1011 47.5594 41.7551 46.6945 41.7551C45.8295 41.7551 45.1375 42.274 44.7916 43.139L40.9858 54.7292H28.7035C27.6655 54.7292 26.8006 55.5942 26.8006 56.6321H26.9736ZM10.3665 6.81143H30.0874L46.8675 27.57C41.5048 27.57 36.315 28.781 31.6443 31.0298L10.3665 6.81143ZM1.02499 5.42752L26.2816 34.3166C17.6321 40.7171 11.9234 50.9235 11.9234 62.5137C11.9234 81.7154 27.6655 97.2843 46.8675 97.2843C66.0694 97.2843 81.8115 81.7154 81.8115 62.5137C81.8115 43.312 76.2758 41.0631 67.9723 34.6626L93.5749 5.42752C95.3048 3.52465 94.0938 0.756836 91.499 0.756836H63.6475C61.9176 0.756836 61.3986 0.929824 60.1877 2.48672L47.3864 18.4017L34.5851 2.48672C33.3742 1.10281 32.8552 0.756836 31.6443 0.756836H3.27385C0.678989 0.756836 -0.531939 3.52465 1.19797 5.42752H1.02499ZM75.7569 62.5137C75.7569 78.7746 63.1286 91.2298 46.8675 91.2298C30.6064 91.2298 18.151 78.7746 18.151 62.5137C18.151 46.2528 30.6064 33.6246 46.8675 33.6246C63.1286 33.6246 75.7569 46.0798 75.7569 62.5137Z" fill="black"/>
</svg>
