<svg width="100" height="100" viewBox="0 0 100 100" fill="none" xmlns="http://www.w3.org/2000/svg">
<path d="M49.9942 99.9873C77.4997 99.9873 99.9885 77.6718 99.9885 49.9936C99.9885 22.3155 77.6727 0 49.9942 0C22.3158 0 0 22.3155 0 49.9936C0 77.6718 22.3158 99.9873 49.9942 99.9873Z" fill="#9BD0FF"/>
<path d="M73.002 73.1741V26.2942C73.002 25.7752 73.175 25.2563 73.694 24.9103C74.2129 24.5643 74.5589 24.3914 75.0779 24.3914H81.1325C82.1705 24.3914 83.0354 25.2563 83.0354 26.2942V73.1741C83.0354 73.693 82.8624 74.212 82.3435 74.558C81.9975 74.904 81.4785 75.2499 80.9595 75.2499H74.9049C73.8669 75.2499 73.002 74.385 73.002 73.3471V73.1741ZM58.8168 73.1741V36.5006C58.8168 35.9816 58.9898 35.4626 59.3357 35.1166C59.6817 34.7706 60.2007 34.4247 60.7197 34.4247H66.7743C67.8123 34.4247 68.6772 35.2896 68.6772 36.3276V73.0011C68.6772 73.52 68.5042 74.039 68.1582 74.385C67.8123 74.731 67.2933 75.0769 66.7743 75.0769H60.7197C59.6817 75.0769 58.8168 74.212 58.8168 73.1741ZM44.4585 73.1741V46.7069C44.4585 46.1879 44.6315 45.6689 44.9775 45.3229C45.3235 44.9769 45.8425 44.631 46.3615 44.631H52.4161C53.4541 44.631 54.319 45.4959 54.319 46.7069V73.1741C54.319 74.212 53.4541 75.0769 52.4161 75.0769H46.3615C45.8425 75.0769 45.3235 74.904 44.9775 74.385C44.6315 73.866 44.4585 73.52 44.4585 73.0011V73.1741ZM30.1003 73.1741V56.9132C30.1003 55.8752 30.9653 55.0103 32.1762 55.0103H38.2309C38.7499 55.0103 39.2688 55.1833 39.6148 55.5293C39.9608 55.8753 40.1338 56.3942 40.1338 56.9132V73.1741C40.1338 74.212 39.2688 75.0769 38.2309 75.0769H32.1762C31.6573 75.0769 31.1383 74.904 30.7923 74.385C30.4463 74.039 30.1003 73.52 30.1003 73.0011V73.1741ZM15.7421 73.1741V67.1195C15.7421 66.6005 15.9151 66.0816 16.2611 65.7356C16.6071 65.3896 17.1261 65.2166 17.645 65.2166H23.6997C24.7376 65.2166 25.7756 66.0815 25.7756 67.1195V73.1741C25.7756 73.693 25.6026 74.212 25.0836 74.558C24.7376 74.904 24.2187 75.2499 23.6997 75.2499H17.645C16.6071 75.2499 15.7421 74.385 15.7421 73.3471V73.1741ZM6.05467 50.1666C6.05467 25.9483 25.7756 6.22759 49.9942 6.22759C74.2129 6.22759 93.9338 25.9483 93.9338 50.1666C93.9338 74.385 74.2129 94.1057 49.9942 94.1057C25.7756 94.1057 6.05467 74.385 6.05467 50.1666ZM49.9942 99.9873C77.4997 99.9873 99.9885 77.6718 99.9885 49.9936C99.9885 22.3155 77.6727 0 49.9942 0C22.3158 0 0 22.3155 0 49.9936C0 77.6718 22.3158 99.9873 49.9942 99.9873Z" fill="black"/>
</svg>
