<svg width="102" height="101" viewBox="0 0 102 101" fill="none" xmlns="http://www.w3.org/2000/svg">
<path d="M6.75586 55.5142V46.1728C6.75586 45.6538 6.92884 45.4808 7.44781 45.3078L17.8272 44.0968C19.0382 44.0968 20.0761 43.059 20.4221 42.021C20.9411 40.1181 21.806 38.0423 23.017 35.7935C23.5359 34.7556 23.5359 33.5446 22.671 32.5067L16.2703 24.3763C15.9244 23.8573 15.9244 23.5113 16.2703 22.9923L22.844 16.4187C23.1899 16.0727 23.5359 16.0727 23.8819 16.4187L32.1855 22.9923C33.2234 23.6843 34.4343 23.8572 35.4723 23.1652C37.2022 22.1273 39.278 21.2624 41.6999 20.5704C42.9108 20.2244 43.7758 19.1865 43.9488 18.1485L45.1597 7.59629C45.1597 7.07733 45.5057 6.9043 46.0247 6.9043H55.3662C55.8852 6.9043 56.0582 7.07733 56.2311 7.59629L57.442 18.1485C57.442 19.3595 58.48 20.2244 59.691 20.5704C61.9398 21.2624 64.0157 22.1273 65.9186 23.1652C67.8215 24.2032 68.1675 23.6843 69.2054 22.9923L77.509 16.4187C77.8549 16.0727 78.2009 16.0727 78.5469 16.4187L85.1205 22.9923C85.4665 23.3383 85.4665 23.8573 85.1205 24.3763L78.7199 32.5067C78.0279 33.5446 77.8549 34.7556 78.3739 35.7935C79.5848 38.0423 80.4498 40.1181 80.9688 42.021C81.3147 43.2319 82.3527 43.9238 83.5636 44.0968L93.943 45.3078C94.462 45.3078 94.635 45.6538 94.635 46.1728V55.5142C94.635 56.0332 94.462 56.2062 93.943 56.3791L83.5636 57.59C82.3527 57.59 81.3147 58.628 80.9688 59.8389C80.4498 61.7418 79.5848 63.8176 78.3739 66.0664C77.8549 67.1044 77.855 68.3153 78.7199 69.3533L85.1205 77.4836C85.4665 78.0026 85.4665 78.3487 85.1205 78.8676L78.5469 85.4411C78.3739 85.787 77.8549 85.787 77.509 85.4411L69.2054 78.8676C68.1675 78.1757 66.9565 78.0025 65.9186 78.6945C64.1887 79.7324 62.1128 80.5973 59.691 81.2893C58.48 81.6353 57.615 82.5003 57.442 83.7112L56.2311 94.2634C56.2311 94.7824 55.8852 94.9554 55.3662 94.9554H46.0247C45.5057 94.9554 45.3327 94.7824 45.1597 94.2634L43.9488 83.7112C43.9488 82.5003 42.9108 81.4623 41.6999 81.2893C39.451 80.5973 37.3752 79.7324 35.4723 78.6945C33.5694 77.6565 33.2234 78.1757 32.1855 78.8676L23.8819 85.4411C23.5359 85.787 23.1899 85.787 22.844 85.4411L16.2703 78.8676C15.9244 78.5217 15.9244 78.0026 16.2703 77.4836L22.671 69.3533C23.3629 68.3153 23.5359 67.1044 23.017 66.0664C21.806 63.8176 20.9411 61.7418 20.4221 59.8389C20.0761 58.628 19.0382 57.763 17.8272 57.59L7.44781 56.3791C6.92884 56.3791 6.75586 56.0332 6.75586 55.5142ZM50.6954 77.1377C65.0536 77.1377 76.99 65.2014 76.99 50.8434C76.99 36.4854 65.0536 24.5492 50.6954 24.5492C36.3372 24.5492 24.4009 36.4854 24.4009 50.8434C24.4009 65.2014 36.3372 77.1377 50.6954 77.1377Z" fill="#CBCCBE"/>
<path d="M38.4126 50.6702C38.4126 57.4168 43.9483 62.9524 50.695 62.9524C57.4416 62.9524 62.9773 57.4168 62.9773 50.6702C62.9773 43.9237 57.4416 38.3881 50.695 38.3881C43.9483 38.3881 38.4126 43.9237 38.4126 50.6702ZM50.695 71.0829C39.6236 71.0829 30.4551 61.9145 30.4551 50.6702C30.4551 39.426 39.6236 30.4307 50.695 30.4307C61.7663 30.4307 71.1078 39.599 71.1078 50.6702C71.1078 61.7415 61.9393 71.0829 50.695 71.0829Z" fill="#666660"/>
<path d="M44.4676 50.6703C44.4676 47.2106 47.2355 44.4428 50.6953 44.4428C54.1551 44.4428 57.096 47.2106 57.096 50.6703C57.096 54.1301 54.3281 57.0708 50.6953 57.0708C47.0625 57.0708 44.4676 54.3031 44.4676 50.6703ZM38.413 50.6703C38.413 57.4169 43.9487 62.9525 50.6953 62.9525C57.4419 62.9525 62.9776 57.4169 62.9776 50.6703C62.9776 43.9238 57.4419 38.3882 50.6953 38.3882C43.9487 38.3882 38.413 43.9238 38.413 50.6703ZM30.4554 50.6703C30.4554 39.5991 39.6239 30.4308 50.6953 30.4308C61.7667 30.4308 71.1081 39.5991 71.1081 50.6703C71.1081 61.7416 61.9397 71.0831 50.6953 71.0831C39.4509 71.0831 30.4554 61.9146 30.4554 50.6703ZM6.75572 55.5141V46.1727C6.75572 45.6537 6.9287 45.4807 7.44767 45.3078L17.8271 44.0967C19.038 44.0967 20.076 43.0589 20.422 42.0209C20.9409 40.1181 21.8059 38.0422 23.0168 35.7934C23.5358 34.7555 23.5358 33.5445 22.6708 32.5066L16.2702 24.3762C15.9242 23.8572 15.9242 23.5112 16.2702 22.9922L22.8438 16.4186C23.1898 16.0726 23.5358 16.0726 23.8818 16.4186L32.1853 22.9922C33.2233 23.6842 34.4342 23.8571 35.4721 23.1652C37.202 22.1272 39.2779 21.2623 41.6998 20.5703C42.9107 20.2244 43.7757 19.1864 43.9487 18.1484L45.1596 7.5962C45.1596 7.07723 45.5055 6.9042 46.0245 6.9042H55.3661C55.885 6.9042 56.058 7.07723 56.231 7.5962L57.4419 18.1484C57.4419 19.3594 58.4799 20.2244 59.6908 20.5703C61.9397 21.2623 64.0155 22.1272 65.9184 23.1652C67.8213 24.2031 68.1673 23.6842 69.2053 22.9922L77.5088 16.4186C77.8548 16.0726 78.2008 16.0726 78.5468 16.4186L85.1204 22.9922C85.4664 23.3382 85.4664 23.8572 85.1204 24.3762L78.7198 32.5066C78.0278 33.5445 77.8548 34.7555 78.3738 35.7934C79.5847 38.0422 80.4496 40.1181 80.9686 42.0209C81.3146 43.2318 82.3525 43.9237 83.5635 44.0967L93.9429 45.3078C94.4619 45.3078 94.6349 45.6537 94.6349 46.1727V55.5141C94.6349 56.0331 94.4619 56.2061 93.9429 56.379L83.5635 57.5899C82.3525 57.5899 81.3146 58.6279 80.9686 59.8388C80.4496 61.7417 79.5847 63.8175 78.3738 66.0664C77.8548 67.1043 77.8548 68.3152 78.7198 69.3532L85.1204 77.4835C85.4664 78.0025 85.4664 78.3486 85.1204 78.8675L78.5468 85.441C78.3738 85.7869 77.8548 85.7869 77.5088 85.441L69.2053 78.8675C68.1673 78.1756 66.9564 78.0024 65.9184 78.6944C64.1885 79.7323 62.1127 80.5973 59.6908 81.2892C58.4799 81.6352 57.6149 82.5002 57.4419 83.7111L56.231 94.2633C56.231 94.7823 55.885 94.9553 55.3661 94.9553H46.0245C45.5055 94.9553 45.3326 94.7823 45.1596 94.2633L43.9487 83.7111C43.9487 82.5002 42.9107 81.4622 41.6998 81.2892C39.4509 80.5973 37.375 79.7323 35.4721 78.6944C33.5692 77.6565 33.2233 78.1756 32.1853 78.8675L23.8818 85.441C23.5358 85.7869 23.1898 85.7869 22.8438 85.441L16.2702 78.8675C15.9242 78.5216 15.9242 78.0025 16.2702 77.4835L22.6708 69.3532C23.3628 68.3152 23.5358 67.1043 23.0168 66.0664C21.8059 63.8175 20.9409 61.7417 20.422 59.8388C20.076 58.6279 19.038 57.7629 17.8271 57.5899L7.44767 56.379C6.9287 56.379 6.75572 56.0331 6.75572 55.5141ZM0.874023 56.2059C0.874023 59.4927 3.12292 61.7415 6.75572 62.2605L15.4052 63.2986C15.7512 64.1635 16.0972 65.2014 16.9621 67.1042L11.5994 74.0238C9.35055 76.7916 9.35056 79.9053 11.2535 81.9812L19.384 90.1118C20.5949 91.3227 22.1518 92.0146 23.7088 92.0146C25.2657 92.0146 26.4766 91.4956 27.8605 90.2847L34.7802 84.749C36.3371 85.4409 37.375 85.9599 38.586 86.3059L39.6239 94.9553C39.9699 98.5881 42.2188 100.664 45.6786 100.664H56.577C60.0368 100.664 62.2856 98.5881 62.6316 94.9553L63.6696 86.3059C64.7075 85.9599 65.9185 85.4409 67.4754 84.749L74.395 90.2847C75.7789 91.3227 77.1628 92.0146 78.5468 92.0146C79.9307 92.0146 81.6606 91.3227 82.8715 90.1118L91.002 81.9812C93.0779 79.9053 92.905 76.7916 90.6561 74.0238L85.2934 67.1042C86.1583 65.2014 86.6773 64.1635 86.8503 63.2986L95.4998 62.2605C99.1326 61.7415 101.381 59.4927 101.381 56.2059V45.3078C101.381 42.021 99.1326 39.7721 95.4998 39.2532L86.8503 38.2153C86.3313 37.0043 85.8124 35.7933 85.2934 34.4094L90.6561 27.4899C92.905 24.722 92.9049 21.6083 91.002 19.5324L82.8715 11.4021C81.6606 10.1912 80.1037 9.49903 78.5468 9.49903C76.9898 9.49903 75.7789 10.018 74.395 11.2289L67.4754 16.7647C65.9185 16.0727 64.8805 15.5537 63.6696 15.2077L62.6316 6.55831C62.2856 2.92555 60.0368 0.849609 56.577 0.849609H45.6786C42.2188 0.849609 39.9699 2.92555 39.6239 6.55831L38.586 15.2077C37.548 15.5537 36.3371 16.0727 34.7802 16.7647L27.8605 11.2289C26.4766 10.191 25.0927 9.49903 23.7088 9.49903C22.3248 9.49903 20.5949 10.1912 19.384 11.4021L11.2535 19.5324C9.17757 21.6083 9.35055 24.722 11.5994 27.4899L16.9621 34.4094C16.2702 35.7933 15.9242 37.0043 15.4052 38.2153L6.75572 39.2532C3.12292 39.7721 0.874023 42.021 0.874023 45.3078V56.2059ZM50.6953 77.1377C65.0535 77.1377 76.9899 65.2013 76.9899 50.8433C76.9899 36.4853 65.0535 24.5491 50.6953 24.5491C36.3371 24.5491 24.4007 36.4853 24.4007 50.8433C24.4007 65.2013 36.3371 77.1377 50.6953 77.1377Z" fill="black"/>
</svg>
