<svg width="286" height="309" viewBox="0 0 286 309" fill="none" xmlns="http://www.w3.org/2000/svg">
<path d="M29.3764 240.287C29.3764 237.616 30.7652 235.426 32.955 234.357L59.2334 222.444L71.5717 176.876C72.3728 174.045 74.9899 172.175 77.8207 172.175C80.8118 172.175 83.429 174.045 84.2302 176.876L96.5683 222.444L122.847 234.357C125.037 235.479 126.425 237.669 126.425 240.287C126.425 242.798 125.037 245.148 122.847 246.056L96.5683 258.13L84.2302 303.698C83.429 306.529 80.8118 308.398 77.8207 308.398C74.9899 308.398 72.3194 306.529 71.5717 303.698L59.2334 258.13L32.955 246.056C30.7652 245.095 29.3764 242.744 29.3764 240.287ZM0 74.0947C0 71.4236 1.38877 69.0731 3.73888 68.165L30.0175 56.2521L42.2486 10.6842C43.21 7.85286 45.667 5.82285 48.658 5.82285C51.6491 5.82285 54.1594 7.85286 54.7469 10.6842L67.2452 56.2521L93.3635 68.165C95.7136 69.1265 97.2626 71.4771 97.2626 74.0947C97.2626 76.6055 95.7136 78.956 93.3635 80.0244L67.2452 91.9372L54.7469 137.505C54.1059 140.176 51.5957 142.206 48.658 142.206C45.7204 142.206 43.1566 140.176 42.2486 137.505L30.0175 91.9372L3.73888 80.0244C1.38877 78.9026 0 76.6055 0 74.0947ZM184.804 280.352C181.813 280.352 179.036 278.002 178.395 275.171L156.977 171.107L88.6098 150.113C85.779 149.151 84.07 146.694 84.07 143.862C84.07 141.031 85.779 138.52 88.6098 137.772L156.977 116.618L178.395 5.18183C179.036 2.03 181.706 0 184.804 0C187.902 0 190.573 2.03 191.214 5.18183L212.792 116.618L281.159 137.772C283.829 138.574 285.699 141.084 285.699 143.862C285.699 146.64 283.829 149.204 281.159 150.113L212.632 171.107L191.214 275.171C190.573 278.002 187.902 280.352 184.804 280.352Z" fill="#FFFF55"/>
<path d="M112.325 143.916L164.454 160.049C166.644 160.69 168.513 162.56 168.994 164.91L184.804 241.729L200.774 164.91C201.255 162.56 202.804 160.69 205.154 160.049L257.284 143.916L205.154 127.943C202.804 127.142 201.095 125.272 200.774 122.761L184.804 40.5998L168.994 122.761C168.513 125.272 166.644 127.142 164.454 127.943L112.325 143.916ZM51.6491 240.287L67.4589 247.499C69.168 248.46 70.6102 249.849 71.0375 251.719L77.9275 277.254L84.9779 251.719C85.4586 249.849 86.6871 248.407 88.5565 247.499L104.366 240.287L88.5565 232.915C86.6871 232.114 85.4052 230.725 84.9779 228.695L77.9275 203.159L71.0375 228.695C70.5568 230.725 69.168 232.114 67.4589 232.915L51.6491 240.287ZM29.3764 240.287C29.3764 237.616 30.7652 235.426 32.955 234.357L59.2334 222.444L71.5717 176.876C72.3728 174.045 74.9899 172.175 77.8207 172.175C80.8118 172.175 83.429 174.045 84.2302 176.876L96.5683 222.444L122.847 234.357C125.037 235.479 126.425 237.669 126.425 240.287C126.425 242.798 125.037 245.148 122.847 246.056L96.5683 258.13L84.2302 303.698C83.429 306.529 80.8118 308.398 77.8207 308.398C74.9899 308.398 72.3194 306.529 71.5717 303.698L59.2334 258.13L32.955 246.056C30.7652 245.095 29.3764 242.744 29.3764 240.287ZM22.059 74.0947L38.1894 81.3065C39.8986 82.1078 41.1804 83.657 41.6077 85.5267L48.658 111.062L55.5482 85.5267C56.1891 83.657 57.4175 82.1078 59.1267 81.3065L75.0967 74.0947L59.1267 66.7226C57.4175 65.9213 56.1357 64.3721 55.5482 62.5024L48.658 36.9672L41.6077 62.5024C41.127 64.3721 39.8986 65.9213 38.1894 66.7226L22.059 74.0947ZM0 74.0947C0 71.4236 1.38877 69.0731 3.73888 68.165L30.0175 56.2521L42.2486 10.6842C43.21 7.85286 45.667 5.82285 48.658 5.82285C51.6491 5.82285 54.1594 7.85286 54.7469 10.6842L67.2452 56.2521L93.3635 68.165C95.7136 69.1265 97.2626 71.4771 97.2626 74.0947C97.2626 76.6055 95.7136 78.956 93.3635 80.0244L67.2452 91.9372L54.7469 137.505C54.1059 140.176 51.5957 142.206 48.658 142.206C45.7204 142.206 43.1566 140.176 42.2486 137.505L30.0175 91.9372L3.73888 80.0244C1.38877 78.9026 0 76.6055 0 74.0947ZM184.804 280.352C181.813 280.352 179.036 278.002 178.395 275.171L156.977 171.107L88.6098 150.113C85.779 149.151 84.07 146.694 84.07 143.862C84.07 141.031 85.779 138.52 88.6098 137.772L156.977 116.618L178.395 5.18183C179.036 2.03 181.706 0 184.804 0C187.902 0 190.573 2.03 191.214 5.18183L212.792 116.618L281.159 137.772C283.829 138.574 285.699 141.084 285.699 143.862C285.699 146.64 283.829 149.204 281.159 150.113L212.632 171.107L191.214 275.171C190.573 278.002 187.902 280.352 184.804 280.352Z" fill="black"/>
</svg>
