<svg width="228" height="220" viewBox="0 0 228 220" fill="none" xmlns="http://www.w3.org/2000/svg">
<path d="M89.3821 102.057L95.0631 103.572C97.3356 103.951 98.093 105.844 98.093 107.358C98.093 108.873 98.0931 108.873 97.7143 109.63L95.0631 114.931L101.88 111.902C102.259 111.902 103.017 111.523 103.774 111.523C106.046 111.523 107.561 113.416 107.561 115.688V123.639L112.864 116.446C113.621 115.31 114.757 114.931 115.894 114.931C117.03 114.931 118.166 115.31 118.924 116.446L125.741 124.776V115.688C125.741 112.659 127.635 111.145 130.286 111.523L139.375 113.795L133.316 104.708C132.937 103.95 132.558 103.193 132.558 102.436C132.558 101.3 133.316 100.164 134.452 99.407L140.89 94.8631L134.831 95.6207C132.558 95.6207 130.286 94.1061 130.286 91.8343C130.286 89.5625 130.286 91.0768 130.286 90.6982L132.179 83.1254L128.013 86.1547C127.256 86.5334 126.498 86.9118 125.741 86.9118C124.983 86.9118 123.09 86.1545 122.332 85.0186L116.651 75.9312L112.485 87.2904C111.728 88.8049 110.591 89.9411 108.698 89.9411C106.804 89.9411 107.183 89.9407 106.425 89.5621L96.9568 83.504L101.88 92.9699C101.88 93.3486 102.259 94.1057 102.259 95.2417C102.259 96.7562 101.502 97.8922 99.2293 98.6495L89.7608 101.679L89.3821 102.057ZM156.04 219.056C153.767 219.056 152.252 217.92 151.116 216.406L115.515 156.96L84.4585 198.61C83.3223 200.124 81.8073 200.882 79.9136 200.882C76.505 200.882 73.8538 197.853 74.2326 194.824L78.0199 151.659L49.9934 166.047C49.2359 166.426 48.0997 166.804 47.3422 166.804C44.3123 166.804 41.6611 164.154 41.6611 160.746C41.6611 157.338 41.6611 159.232 42.0399 158.474L57.5681 122.882L4.16614 108.873C1.51497 108.116 0 105.844 0 103.193C0 100.543 1.51495 98.6497 3.78737 97.8924L58.7043 79.3391L34.4651 13.8346C34.4651 13.456 34.4651 12.6987 34.4651 11.9414C34.4651 8.9123 37.4951 5.88329 40.525 5.88329C43.5549 5.88329 43.1761 6.26202 43.9336 7.39794L93.1694 47.5334L99.9867 5.50475C100.365 2.85429 102.638 0.582275 105.289 0.582275C107.94 0.582275 109.455 1.71837 110.591 3.61156L132.937 45.6402L149.98 25.5727C151.116 24.4368 152.631 23.6795 154.146 23.6795C156.797 23.6795 159.07 25.194 159.827 27.8445L169.674 62.6789L221.94 59.6501C224.97 59.6501 228 61.9219 228 65.3297C228 68.7374 227.243 69.1158 225.728 70.2517L170.432 108.873L190.884 142.571C191.262 143.707 191.641 144.465 191.641 145.601C191.641 149.387 188.611 151.659 185.203 151.28L154.146 146.737L162.1 212.619C162.478 216.406 159.827 219.056 156.419 219.056H156.04Z" fill="#FFFF55"/>
<path d="M114.757 114.931C116.272 114.931 117.03 115.31 117.787 116.446L124.605 124.776V115.688C124.605 112.659 126.498 111.145 129.149 111.523L138.239 113.795L132.179 104.708C131.801 103.95 131.422 103.193 131.422 102.436C131.422 101.3 132.179 100.164 133.316 99.4072L139.754 94.8633L133.694 95.6208C131.422 95.6208 129.149 94.1063 129.149 91.8344C129.149 89.5626 129.149 91.077 129.149 90.6984L131.043 83.1256L126.877 86.1549C126.12 86.5335 125.362 86.912 124.605 86.912C123.847 86.912 121.953 86.1547 121.196 85.0188L115.515 75.9314L111.349 87.2905C110.591 88.8051 109.455 89.9413 107.561 89.9413C105.668 89.9413 106.047 89.9409 105.289 89.5623L95.8206 83.5041L100.744 92.9701C100.744 93.3487 101.123 94.1059 101.123 95.2418C101.123 96.7564 100.365 97.8924 98.0929 98.6496L88.6245 101.679L94.3056 103.194C96.578 103.572 97.3355 105.465 97.3355 106.98C97.3355 108.495 97.3355 108.494 96.9568 109.252L94.3056 114.553L101.123 111.523C101.502 111.523 102.259 111.145 103.017 111.145C105.289 111.145 106.804 113.038 106.804 115.31V123.261L112.106 116.067C112.864 114.931 114 114.553 115.136 114.553L114.757 114.931Z" fill="white"/>
<path d="M89.3821 102.057L95.0631 103.572C97.3356 103.951 98.093 105.844 98.093 107.358C98.093 108.873 98.0931 108.873 97.7143 109.63L95.0631 114.931L101.88 111.902C102.259 111.902 103.017 111.523 103.774 111.523C106.046 111.523 107.561 113.416 107.561 115.688V123.639L112.864 116.446C113.621 115.31 114.757 114.931 115.894 114.931C117.03 114.931 118.166 115.31 118.924 116.446L125.741 124.776V115.688C125.741 112.659 127.635 111.145 130.286 111.523L139.375 113.795L133.316 104.708C132.937 103.95 132.558 103.193 132.558 102.436C132.558 101.3 133.316 100.164 134.452 99.407L140.89 94.8631L134.831 95.6207C132.558 95.6207 130.286 94.1061 130.286 91.8343C130.286 89.5625 130.286 91.0768 130.286 90.6982L132.179 83.1254L128.013 86.1547C127.256 86.5334 126.498 86.9118 125.741 86.9118C124.983 86.9118 123.09 86.1545 122.332 85.0186L116.651 75.9312L112.485 87.2904C111.728 88.8049 110.591 89.9411 108.698 89.9411C106.804 89.9411 107.183 89.9407 106.425 89.5621L96.9568 83.504L101.88 92.9699C101.88 93.3486 102.259 94.1057 102.259 95.2417C102.259 96.7562 101.502 97.8922 99.2293 98.6495L89.7608 101.679L89.3821 102.057ZM71.2027 102.436C71.2027 100.921 72.3389 99.4068 73.8538 98.6495L91.2758 92.5914L81.8073 74.4166C81.8073 74.038 81.4286 73.2807 81.4286 72.5234C81.4286 70.2516 83.3223 68.3585 85.5947 68.3585C87.8671 68.3585 87.1096 68.3584 87.4884 68.737L105.289 79.3391L110.591 64.9507C110.97 63.4361 112.864 62.3004 114.379 62.3004C115.894 62.3004 116.651 63.0577 117.409 64.1936L124.983 76.3098L134.831 68.737C135.588 68.3584 136.346 67.9799 137.103 67.9799C139.754 67.9799 141.648 70.252 140.89 72.9024L137.482 86.1547L153.389 84.2615C155.661 84.2615 157.934 85.776 157.934 88.4265C157.934 91.0769 157.555 90.698 156.419 91.4553L140.133 102.814L149.98 117.581C150.359 118.339 150.738 119.096 150.738 119.853C150.738 122.504 148.465 124.397 145.814 124.018L132.558 120.989V136.513C132.558 138.785 131.043 140.678 128.392 140.678C125.741 140.678 126.12 140.3 125.362 139.164L114.379 125.154L104.91 138.406C104.153 139.542 103.017 139.921 101.88 139.921C99.6079 139.921 97.7143 138.028 97.7143 135.756V121.368L87.1096 126.29C86.7309 126.29 85.9734 126.669 85.2159 126.669C82.9435 126.669 81.4286 124.776 81.4286 122.504C81.4286 120.232 81.4286 121.368 81.8073 120.611L87.4884 109.252L73.8538 105.465C71.9601 105.087 70.824 103.193 70.824 101.3L71.2027 102.436ZM25.7542 102.436L67.0366 113.416C69.6877 114.174 71.2027 116.446 71.2027 118.339C71.2027 120.232 71.2027 120.611 70.824 120.989L59.0831 148.251L82.1861 136.513C82.9436 136.513 83.701 136.135 84.4585 136.135C87.4884 136.135 90.5182 138.028 90.5182 142.193L87.4884 175.135L111.349 142.95C112.485 141.436 114 140.678 115.894 140.678C117.787 140.678 119.681 141.436 120.817 143.707L146.95 187.629L141.269 141.057C141.269 139.164 141.648 137.649 143.163 136.135C144.678 134.62 145.814 134.241 148.086 134.62L174.977 138.406L157.934 110.387C157.555 109.63 157.176 108.494 157.176 107.358C157.176 105.465 157.934 103.572 159.449 102.436L203.003 72.1449L166.266 74.4166C163.615 74.4166 160.964 72.9021 160.206 70.2517L152.253 41.4753L136.724 59.6501C135.588 61.1646 133.694 61.9218 132.179 61.9218C130.664 61.9218 128.392 60.7857 127.256 58.8925L109.076 24.4366L103.395 59.6501C103.017 62.3006 100.366 64.5721 97.7143 64.5721C95.0632 64.5721 95.0631 64.1934 94.3056 63.0575L53.402 29.7376L72.3389 81.2323C72.3389 81.6109 72.3389 82.3682 72.3389 83.1254C72.3389 85.3973 70.8239 87.6692 68.5515 88.4265L26.1329 102.814L25.7542 102.436ZM156.04 219.056C153.767 219.056 152.252 217.92 151.116 216.406L115.515 156.96L84.4585 198.61C83.3223 200.124 81.8073 200.882 79.9136 200.882C76.505 200.882 73.8538 197.853 74.2326 194.824L78.0199 151.659L49.9934 166.047C49.2359 166.426 48.0997 166.804 47.3422 166.804C44.3123 166.804 41.6611 164.154 41.6611 160.746C41.6611 157.338 41.6611 159.232 42.0399 158.474L57.5681 122.882L4.16614 108.873C1.51497 108.116 0 105.844 0 103.193C0 100.543 1.51495 98.6497 3.78737 97.8924L58.7043 79.3391L34.4651 13.8346C34.4651 13.456 34.4651 12.6987 34.4651 11.9414C34.4651 8.9123 37.4951 5.88329 40.525 5.88329C43.5549 5.88329 43.1761 6.26202 43.9336 7.39794L93.1694 47.5334L99.9867 5.50475C100.365 2.85429 102.638 0.582275 105.289 0.582275C107.94 0.582275 109.455 1.71837 110.591 3.61156L132.937 45.6402L149.98 25.5727C151.116 24.4368 152.631 23.6795 154.146 23.6795C156.797 23.6795 159.07 25.194 159.827 27.8445L169.674 62.6789L221.94 59.6501C224.97 59.6501 228 61.9219 228 65.3297C228 68.7374 227.243 69.1158 225.728 70.2517L170.432 108.873L190.884 142.571C191.262 143.707 191.641 144.465 191.641 145.601C191.641 149.387 188.611 151.659 185.203 151.28L154.146 146.737L162.1 212.619C162.478 216.406 159.827 219.056 156.419 219.056H156.04Z" fill="black"/>
</svg>
