<svg width="101" height="101" viewBox="0 0 101 101" fill="none" xmlns="http://www.w3.org/2000/svg">
<path d="M60.3635 42.4036C60.3635 41.7117 60.5365 41.0198 60.8825 40.5008C61.2284 40.1548 61.5744 39.8089 61.9204 39.4629C62.4394 39.1169 63.1314 38.9439 63.8233 38.9439C65.7262 38.9439 67.2831 40.5008 67.2831 42.4036C67.2831 44.3065 65.7262 45.8634 63.8233 45.8634C61.9204 45.8634 60.3635 44.3065 60.3635 42.4036ZM59.1525 63.5083C62.2664 66.4492 66.5911 68.3519 71.2619 68.3519C81.4683 68.3519 89.5989 60.2214 89.5989 50.1881C89.5989 40.1548 81.4683 32.0243 71.2619 32.0243C61.0554 32.0243 62.2664 33.7543 59.1525 36.6951C60.0175 30.1216 61.7474 23.7209 64.1693 18.1853C67.6291 10.5738 72.1268 6.24902 76.4516 6.24902C80.7764 6.24902 85.2741 10.5738 88.7339 18.1853C92.8857 27.5266 94.6156 39.2898 94.6156 50.1881C94.6156 61.0864 92.8857 72.8496 88.7339 82.191C85.2741 89.8025 80.7764 94.1272 76.4516 94.1272C72.1268 94.1272 67.6291 89.8025 64.1693 82.191C61.7474 76.6553 60.0175 70.2549 59.1525 63.6813V63.5083ZM57.2496 50.1881C57.2496 48.9772 57.2497 47.9393 57.5956 46.7283C58.6336 48.1123 59.8445 48.9772 61.5744 49.4961V50.0152C61.5744 55.3778 65.8992 59.8754 71.2619 59.8754C76.6246 59.8754 81.1224 55.5508 81.1224 50.0152C81.1224 44.4795 76.7976 40.1549 71.2619 40.1549H70.9159C70.397 38.598 69.532 37.041 68.1481 36.1761C69.186 36.0031 70.224 35.8302 71.4349 35.8302C79.2195 35.8302 85.6201 42.0577 85.6201 50.0152C85.6201 57.9726 79.2195 64.2001 71.4349 64.2001C63.6503 64.2001 57.4226 57.7996 57.4226 50.0152L57.2496 50.1881ZM52.2329 50.1881C52.2329 63.1622 54.4818 75.4445 58.6336 84.6128C63.1314 94.6462 69.359 100.182 76.2786 100.182C83.1982 100.182 89.4259 94.6462 93.9236 84.6128C98.0754 75.4445 100.324 63.1622 100.324 50.1881C100.324 37.214 98.0754 24.9318 93.9236 15.7634C89.4259 5.73006 83.1982 0.194431 76.2786 0.194431C69.359 0.194431 63.1314 5.73006 58.6336 15.7634C54.4818 24.9318 52.2329 37.214 52.2329 50.1881ZM8.63936 42.4036C8.63936 41.7117 8.81233 41.0198 9.15831 40.5008C9.50429 40.1548 9.85029 39.8089 10.1963 39.4629C10.7152 39.1169 11.4072 38.9439 12.0992 38.9439C14.0021 38.9439 15.559 40.5008 15.559 42.4036C15.559 44.3065 14.0021 45.8634 12.0992 45.8634C10.1963 45.8634 8.63936 44.3065 8.63936 42.4036ZM7.42841 63.5083C10.5422 66.4492 14.867 68.3519 19.5377 68.3519C29.7442 68.3519 37.8747 60.2214 37.8747 50.1881C37.8747 40.1548 29.7442 32.0243 19.5377 32.0243C9.3313 32.0243 10.5422 33.7543 7.42841 36.6951C8.29336 30.1216 10.0233 23.7209 12.4451 18.1853C15.9049 10.5738 20.4027 6.24902 24.7275 6.24902C29.0522 6.24902 33.55 10.5738 37.0098 18.1853C41.1616 27.5266 42.8915 39.2898 42.8915 50.1881C42.8915 61.0864 41.1616 72.8496 37.0098 82.191C33.55 89.8025 29.0522 94.1272 24.7275 94.1272C20.4027 94.1272 15.9049 89.8025 12.4451 82.191C10.0233 76.6553 8.29336 70.2549 7.42841 63.6813V63.5083ZM5.5255 50.1881C5.5255 48.9772 5.52552 47.9393 5.8715 46.7283C6.90945 48.1123 8.12036 48.9772 9.85026 49.4961V50.0152C9.85026 55.3778 14.175 59.8754 19.5377 59.8754C24.9004 59.8754 29.3982 55.5508 29.3982 50.0152C29.3982 44.4795 25.0734 40.1549 19.5377 40.1549H19.1917C18.6728 38.598 17.8079 37.041 16.4239 36.1761C17.4619 36.0031 18.4998 35.8302 19.7107 35.8302C27.4953 35.8302 33.8959 42.0577 33.8959 50.0152C33.8959 57.9726 27.4953 64.2001 19.7107 64.2001C11.9262 64.2001 5.6985 57.7996 5.6985 50.0152L5.5255 50.1881ZM24.5545 100.009C31.4741 100.009 37.7018 94.4732 42.1995 84.4399C46.3513 75.2715 48.6001 62.9893 48.6001 50.0152C48.6001 37.041 46.3513 24.7588 42.1995 15.5904C37.7018 5.55711 31.4741 0.0214844 24.5545 0.0214844C17.6348 0.0214844 11.4072 5.55711 6.90946 15.5904C2.75769 24.7588 0.508789 37.041 0.508789 50.0152C0.508789 62.9893 2.75769 75.2715 6.90946 84.4399C11.4072 94.4732 17.6348 100.009 24.5545 100.009Z" fill="#FFFF55"/>
<path d="M60.8823 40.6736C61.2283 40.3276 61.5743 39.9817 61.9203 39.6357C61.4013 39.8087 61.0553 40.3276 60.8823 40.6736ZM57.2495 50.188C57.2495 46.5552 58.6335 43.2685 60.8823 40.6736C60.5364 41.1926 60.3634 41.8845 60.3634 42.5765C60.3634 44.4793 61.9203 46.0362 63.8232 46.0362C65.7261 46.0362 67.283 44.4793 67.283 42.5765C67.283 40.6736 65.7261 39.1167 63.8232 39.1167C61.9203 39.1167 62.6123 39.2898 61.9203 39.6357C64.3422 37.3869 67.629 36.003 71.2618 36.003C79.0463 36.003 85.447 42.2305 85.447 50.188C85.447 58.1455 79.0463 64.3732 71.2618 64.3732C63.4772 64.3732 57.2495 57.9725 57.2495 50.188ZM9.1582 40.6736C9.50418 40.3276 9.85017 39.9817 10.1962 39.6357C9.67718 39.8087 9.33119 40.3276 9.1582 40.6736ZM19.5376 64.2C11.7531 64.2 5.52539 57.7995 5.52539 50.015C5.52539 42.2306 6.90933 43.0955 9.1582 40.5007C8.81222 41.0196 8.63925 41.7116 8.63925 42.4035C8.63925 44.3064 10.1962 45.8633 12.0991 45.8633C14.002 45.8633 15.5589 44.3064 15.5589 42.4035C15.5589 40.5006 14.002 38.9437 12.0991 38.9437C10.1962 38.9437 10.8881 39.1168 10.1962 39.4628C12.618 37.2139 15.9048 35.8301 19.5376 35.8301C27.3222 35.8301 33.7229 42.0576 33.7229 50.015C33.7229 57.9725 27.3222 64.2 19.5376 64.2Z" fill="#AC4300"/>
<path d="M60.3633 42.4036C60.3633 40.6738 61.7472 38.9439 63.8231 38.9439C65.899 38.9439 67.2829 40.5008 67.2829 42.4036C67.2829 44.3065 65.726 45.8634 63.8231 45.8634C61.9202 45.8634 60.3633 44.3065 60.3633 42.4036ZM59.1524 63.5083C62.2662 66.4492 66.591 68.3519 71.2617 68.3519C81.4681 68.3519 89.5987 60.2214 89.5987 50.1881C89.5987 40.1548 81.4681 32.0243 71.2617 32.0243C61.0553 32.0243 62.2662 33.7543 59.1524 36.6951C60.0173 30.1216 61.7472 23.7209 64.1691 18.1853C67.6289 10.5738 72.1266 6.24902 76.4514 6.24902C80.7762 6.24902 85.2739 10.5738 88.7337 18.1853C92.8855 27.5266 94.6154 39.2898 94.6154 50.1881C94.6154 61.0864 92.8855 72.8496 88.7337 82.191C85.2739 89.8025 80.7762 94.1272 76.4514 94.1272C72.1266 94.1272 67.6289 89.8025 64.1691 82.191C61.7472 76.6553 60.0173 70.2549 59.1524 63.6813V63.5083ZM8.63918 42.4036C8.63918 40.3278 10.1961 38.9439 12.099 38.9439C14.0019 38.9439 15.5588 40.5008 15.5588 42.4036C15.5588 44.3065 14.0019 45.8634 12.099 45.8634C10.1961 45.8634 8.63918 44.3065 8.63918 42.4036ZM7.42822 63.5083C10.5421 66.4492 14.8668 68.3519 19.5376 68.3519C29.744 68.3519 37.8746 60.2214 37.8746 50.1881C37.8746 40.1548 29.744 32.0243 19.5376 32.0243C9.33112 32.0243 10.5421 33.7543 7.42822 36.6951C8.29318 30.1216 10.0231 23.7209 12.4449 18.1853C15.9047 10.5738 20.4025 6.24902 24.7273 6.24902C29.052 6.24902 33.5498 10.5738 37.0096 18.1853C41.1614 27.5266 42.8913 39.2898 42.8913 50.1881C42.8913 61.0864 41.1614 72.8496 37.0096 82.191C33.5498 89.8025 29.052 94.1272 24.7273 94.1272C20.4025 94.1272 15.9047 89.8025 12.4449 82.191C10.0231 76.6553 8.29318 70.2549 7.42822 63.6813V63.5083Z" fill="white"/>
<path d="M60.3635 42.4036C60.3635 41.7117 60.5365 41.0198 60.8825 40.5008C61.2284 40.1548 61.5744 39.8089 61.9204 39.4629C62.4394 39.1169 63.1314 38.9439 63.8233 38.9439C65.7262 38.9439 67.2831 40.5008 67.2831 42.4036C67.2831 44.3065 65.7262 45.8634 63.8233 45.8634C61.9204 45.8634 60.3635 44.3065 60.3635 42.4036ZM59.1525 63.5083C62.2664 66.4492 66.5911 68.3519 71.2619 68.3519C81.4683 68.3519 89.5989 60.2214 89.5989 50.1881C89.5989 40.1548 81.4683 32.0243 71.2619 32.0243C61.0554 32.0243 62.2664 33.7543 59.1525 36.6951C60.0175 30.1216 61.7474 23.7209 64.1693 18.1853C67.6291 10.5738 72.1268 6.24902 76.4516 6.24902C80.7764 6.24902 85.2741 10.5738 88.7339 18.1853C92.8857 27.5266 94.6156 39.2898 94.6156 50.1881C94.6156 61.0864 92.8857 72.8496 88.7339 82.191C85.2741 89.8025 80.7764 94.1272 76.4516 94.1272C72.1268 94.1272 67.6291 89.8025 64.1693 82.191C61.7474 76.6553 60.0175 70.2549 59.1525 63.6813V63.5083ZM57.2496 50.1881C57.2496 48.9772 57.2497 47.9393 57.5956 46.7283C58.6336 48.1123 59.8445 48.9772 61.5744 49.4961V50.0152C61.5744 55.3778 65.8992 59.8754 71.2619 59.8754C76.6246 59.8754 81.1224 55.5508 81.1224 50.0152C81.1224 44.4795 76.7976 40.1549 71.2619 40.1549H70.9159C70.397 38.598 69.532 37.041 68.1481 36.1761C69.186 36.0031 70.224 35.8302 71.4349 35.8302C79.2195 35.8302 85.6201 42.0577 85.6201 50.0152C85.6201 57.9726 79.2195 64.2001 71.4349 64.2001C63.6503 64.2001 57.4226 57.7996 57.4226 50.0152L57.2496 50.1881ZM52.2329 50.1881C52.2329 63.1622 54.4818 75.4445 58.6336 84.6128C63.1314 94.6462 69.359 100.182 76.2786 100.182C83.1982 100.182 89.4259 94.6462 93.9236 84.6128C98.0754 75.4445 100.324 63.1622 100.324 50.1881C100.324 37.214 98.0754 24.9318 93.9236 15.7634C89.4259 5.73006 83.1982 0.194431 76.2786 0.194431C69.359 0.194431 63.1314 5.73006 58.6336 15.7634C54.4818 24.9318 52.2329 37.214 52.2329 50.1881ZM8.63936 42.4036C8.63936 41.7117 8.81233 41.0198 9.15831 40.5008C9.50429 40.1548 9.85029 39.8089 10.1963 39.4629C10.7152 39.1169 11.4072 38.9439 12.0992 38.9439C14.0021 38.9439 15.559 40.5008 15.559 42.4036C15.559 44.3065 14.0021 45.8634 12.0992 45.8634C10.1963 45.8634 8.63936 44.3065 8.63936 42.4036ZM7.42841 63.5083C10.5422 66.4492 14.867 68.3519 19.5377 68.3519C29.7442 68.3519 37.8747 60.2214 37.8747 50.1881C37.8747 40.1548 29.7442 32.0243 19.5377 32.0243C9.3313 32.0243 10.5422 33.7543 7.42841 36.6951C8.29336 30.1216 10.0233 23.7209 12.4451 18.1853C15.9049 10.5738 20.4027 6.24902 24.7275 6.24902C29.0522 6.24902 33.55 10.5738 37.0098 18.1853C41.1616 27.5266 42.8915 39.2898 42.8915 50.1881C42.8915 61.0864 41.1616 72.8496 37.0098 82.191C33.55 89.8025 29.0522 94.1272 24.7275 94.1272C20.4027 94.1272 15.9049 89.8025 12.4451 82.191C10.0233 76.6553 8.29336 70.2549 7.42841 63.6813V63.5083ZM5.5255 50.1881C5.5255 48.9772 5.52552 47.9393 5.8715 46.7283C6.90945 48.1123 8.12036 48.9772 9.85026 49.4961V50.0152C9.85026 55.3778 14.175 59.8754 19.5377 59.8754C24.9004 59.8754 29.3982 55.5508 29.3982 50.0152C29.3982 44.4795 25.0734 40.1549 19.5377 40.1549H19.1917C18.6728 38.598 17.8079 37.041 16.4239 36.1761C17.4619 36.0031 18.4998 35.8302 19.7107 35.8302C27.4953 35.8302 33.8959 42.0577 33.8959 50.0152C33.8959 57.9726 27.4953 64.2001 19.7107 64.2001C11.9262 64.2001 5.6985 57.7996 5.6985 50.0152L5.5255 50.1881ZM24.5545 100.009C31.4741 100.009 37.7018 94.4732 42.1995 84.4399C46.3513 75.2715 48.6001 62.9893 48.6001 50.0152C48.6001 37.041 46.3513 24.7588 42.1995 15.5904C37.7018 5.55711 31.4741 0.0214844 24.5545 0.0214844C17.6348 0.0214844 11.4072 5.55711 6.90946 15.5904C2.75769 24.7588 0.508789 37.041 0.508789 50.0152C0.508789 62.9893 2.75769 75.2715 6.90946 84.4399C11.4072 94.4732 17.6348 100.009 24.5545 100.009Z" fill="black"/>
</svg>
