<svg width="168" height="170" viewBox="0 0 168 170" fill="none" xmlns="http://www.w3.org/2000/svg">
<path d="M84 168.978C130.215 168.978 168 131.484 168 84.979C168 38.4744 130.505 0.97998 84 0.97998C37.4948 0.97998 0 38.4744 0 84.979C0 131.484 37.4948 168.978 84 168.978Z" fill="#FFFF55"/>
<path d="M134.574 108.813C129.052 108.813 124.401 104.453 124.401 98.6398C124.401 92.8267 126.145 90.792 129.633 84.3976L134.574 75.0967L139.516 84.3976C143.003 91.0827 144.747 93.9893 144.747 98.6398C144.747 103.29 140.097 108.813 134.574 108.813Z" fill="#83BBFF"/>
<path d="M124.692 98.9304C124.692 94.2799 126.436 91.0828 129.924 84.6885L134.865 75.3875L139.806 84.6885C143.294 91.3735 145.038 94.2799 145.038 98.9304C145.038 103.581 140.388 109.103 134.865 109.103C129.343 109.103 124.692 104.743 124.692 98.9304ZM117.716 98.9304C117.716 108.231 125.273 115.498 134.574 115.498C143.875 115.498 151.433 108.231 151.433 98.9304C151.433 89.6295 149.107 88.4669 145.329 81.2006L138.062 66.6679C137.19 64.924 136.028 64.0519 134.865 64.0519C133.702 64.0519 132.54 64.6333 131.668 66.6679L124.111 81.2006C120.332 88.4669 118.007 93.1173 118.007 98.9304H117.716ZM98.2422 84.3977C98.2422 89.6295 102.602 93.9892 107.834 93.9892C113.066 93.9892 117.426 89.6295 117.426 84.3977C117.426 79.1659 113.066 74.8062 107.834 74.8062C102.602 74.8062 98.2422 79.1659 98.2422 84.3977ZM93.301 48.066C94.7543 45.7407 97.6609 44.8688 99.9861 46.3221L118.007 56.495C120.332 57.9483 121.204 61.1454 119.751 63.4706C118.879 65.2145 117.135 65.796 115.391 65.796C113.647 65.796 113.647 65.7959 112.775 65.2146L94.7543 54.751C92.4291 53.2977 91.5571 50.3913 93.0104 47.7754L93.301 48.066ZM71.2111 102.418C71.2111 105.034 73.2457 107.359 76.1522 107.359C79.0588 107.359 81.0934 105.034 81.0934 102.418C81.0934 99.8024 82.2561 99.8023 83.7094 99.8023C85.1626 99.8023 86.6159 100.965 86.6159 102.418C86.6159 105.034 88.9412 107.359 91.5571 107.359C94.173 107.359 96.4983 105.034 96.4983 102.418C96.4983 95.1519 90.6851 89.6294 83.7094 89.6294C76.7336 89.6294 70.9204 95.1519 70.9204 102.418H71.2111ZM50.2837 84.3977C50.2837 89.6295 54.6436 93.9892 59.8754 93.9892C65.1073 93.9892 69.4671 89.6295 69.4671 84.3977C69.4671 79.1659 65.1073 74.8062 59.8754 74.8062C54.6436 74.8062 50.2837 79.1659 50.2837 84.3977ZM47.6678 63.7613C46.2145 61.4361 47.0865 58.2388 49.4118 56.7856L67.4325 46.6127C69.7578 45.1594 72.955 46.0315 74.1176 48.3567C75.5709 50.682 74.699 53.879 72.3737 55.3323L54.3529 65.796C53.481 66.0866 52.609 66.3771 51.737 66.3771C49.9931 66.3771 48.2491 65.5052 47.3772 64.0519L47.6678 63.7613ZM10.173 85.2696C10.173 44.5781 43.3079 11.4436 84 11.4436C124.692 11.4436 157.827 44.5781 157.827 85.2696C157.827 125.961 124.692 159.096 84 159.096C43.3079 159.096 10.173 125.961 10.173 85.2696ZM0 85.2696C0 131.484 37.4948 169.269 84 169.269C130.505 169.269 168 131.774 168 85.2696C168 38.765 130.505 1.27075 84 1.27075C37.4948 1.27075 0 38.765 0 85.2696ZM97.9515 136.134C93.5917 136.134 91.8478 131.193 83.7094 131.193C75.5709 131.193 73.827 136.134 69.7578 136.134C65.6886 136.134 65.1073 133.809 65.1073 130.03C65.1073 120.729 73.5363 113.754 83.7094 113.754C93.8824 113.754 102.311 120.439 102.311 130.03C102.311 139.622 99.9862 136.134 97.6609 136.134H97.9515Z" fill="black"/>
</svg>
