<svg width="194" height="199" viewBox="0 0 194 199" fill="none" xmlns="http://www.w3.org/2000/svg">
<path d="M120.301 89.4614C120.301 83.9677 124.757 79.5043 129.898 79.5043C135.039 79.5043 139.494 83.9677 139.494 89.4614C139.494 94.9552 135.039 99.0757 129.898 99.0757C124.757 99.0757 120.301 94.6119 120.301 89.4614ZM92.5393 107.66C92.5393 100.449 98.3659 94.6119 105.563 94.6119C112.761 94.6119 118.587 100.449 118.587 107.66C118.587 114.87 116.531 112.81 113.446 112.81C110.362 112.81 108.305 110.407 108.305 107.66C108.305 104.913 106.934 104.913 105.563 104.913C104.192 104.913 102.821 106.286 102.821 107.66C102.821 110.407 100.422 112.81 97.6804 112.81C94.9385 112.81 92.5393 110.407 92.5393 107.66ZM79.858 132.382C79.858 129.635 81.9144 127.231 84.9991 127.231C88.0837 127.231 90.1402 129.291 90.1402 132.382C90.1402 139.936 98.0232 145.429 105.906 145.429C113.789 145.429 121.672 140.279 121.672 132.382C121.672 129.291 123.729 127.231 126.813 127.231C129.898 127.231 131.954 129.291 131.954 132.382C131.954 147.833 117.559 155.73 105.906 155.73C94.253 155.73 79.858 145.773 79.858 132.382ZM71.2895 89.4614C71.2895 83.9677 75.7451 79.5043 81.2289 79.5043C86.7127 79.5043 90.8256 83.9677 90.8256 89.4614C90.8256 94.9552 86.37 99.0757 81.2289 99.0757C76.0879 99.0757 71.2895 94.6119 71.2895 89.4614ZM104.878 197.62C153.547 197.62 193.304 158.134 193.304 109.033C193.304 59.9326 153.889 20.4459 104.878 20.4459C55.8663 20.4459 73.6887 24.9097 61.0074 32.1203L61.6929 64.053C59.9792 64.053 59.2937 61.9926 58.9509 59.9325C58.2655 44.4812 57.58 29.7167 57.2372 26.9699C56.8945 22.5062 55.8663 14.9522 53.1244 14.9522C50.3825 14.9522 51.068 16.6689 51.068 22.506V45.1682C51.068 48.6018 49.697 50.6619 46.9551 50.6619C44.2132 50.6619 42.8422 48.9451 42.8422 45.1682L41.814 14.6089C41.814 9.45852 40.4431 7.39844 38.7294 7.39844C37.0157 7.39844 36.3302 8.7718 35.9875 14.6089C35.9875 17.6992 35.9875 34.1803 35.9875 43.1077C35.9875 46.8846 34.2738 48.6018 31.8746 48.6018C29.1327 48.6018 27.7618 46.5414 27.7618 42.7644C27.7618 29.7167 27.7618 20.7892 27.0763 17.3556C26.7336 14.6087 26.0481 13.2354 24.3344 13.2354C22.6207 13.2354 21.5925 15.2955 21.5925 22.1627L22.2779 45.8547C22.2779 49.2883 20.907 51.3484 18.5078 51.3484C16.1087 51.3484 14.395 49.6317 14.0522 45.8547L13.3668 31.777C13.3668 27.3133 13.024 26.2833 11.3103 26.2833C9.59663 26.2833 7.88293 30.7469 7.88293 42.0778C7.88293 53.4088 7.88295 78.1305 12.3385 87.7446C14.0522 91.1782 15.7659 93.5819 18.1651 95.9854H56.8945C58.6082 93.9252 60.3219 91.8653 61.6929 89.8051L63.4065 185.946C75.7451 192.47 89.7974 196.247 104.535 196.247L104.878 197.62Z" fill="#FFFF55"/>
<path d="M18.1653 105.6H59.6366C60.5506 105.6 61.0076 106.172 61.0076 107.316V188.693C61.0076 189.608 60.4363 190.066 59.2939 190.066H17.4798C16.5658 190.066 16.1088 189.608 16.1088 188.693V106.973C16.1088 106.058 16.6801 105.6 17.8225 105.6H18.1653Z" fill="#0068FF"/>
<path d="M120.301 89.4614C120.301 94.6118 124.757 99.0757 129.898 99.0757C135.039 99.0757 139.495 94.6118 139.495 89.4614C139.495 84.311 135.039 79.5043 129.898 79.5043C124.757 79.5043 120.301 83.9676 120.301 89.4614ZM92.5394 107.66C92.5394 100.449 98.3659 94.6118 105.563 94.6118C112.761 94.6118 118.587 100.449 118.587 107.66C118.587 114.87 116.531 112.81 113.446 112.81C110.362 112.81 108.305 110.407 108.305 107.66C108.305 104.913 106.934 104.913 105.563 104.913C104.192 104.913 102.822 106.286 102.822 107.66C102.822 110.407 100.422 112.81 97.6804 112.81C94.9385 112.81 92.5394 110.407 92.5394 107.66ZM79.858 132.382C79.858 129.635 81.9145 127.231 84.9991 127.231C88.0838 127.231 90.1402 129.291 90.1402 132.382C90.1402 139.936 98.0232 145.429 105.906 145.429C113.789 145.429 121.672 140.279 121.672 132.382C121.672 129.291 123.729 127.231 126.813 127.231C129.898 127.231 131.954 129.291 131.954 132.382C131.954 147.833 117.559 155.73 105.906 155.73C94.2531 155.73 79.858 145.773 79.858 132.382ZM65.8058 99.7622C67.8622 97.0154 69.9186 93.9252 71.2896 90.8349C71.9751 95.2986 76.0879 99.0757 80.8863 99.0757C85.6846 99.0757 90.483 94.6118 90.483 89.4614C90.483 84.311 86.0274 79.5043 80.8863 79.5043C75.7452 79.5043 77.1161 80.191 75.4024 81.2211C75.7452 79.8476 76.4307 78.1307 76.7734 76.7572C79.8581 66.7997 89.4547 56.499 89.4547 47.2282C89.4547 37.9575 85.6846 38.3009 80.8863 38.3009C76.0879 38.3009 69.5759 41.7343 66.4913 47.9148V42.4211C78.1444 35.5539 90.4829 32.4635 104.535 32.4635C147.378 32.4635 180.966 65.7697 180.966 109.033C180.966 152.297 147.72 185.603 104.535 185.603C61.3502 185.603 80.2008 182.856 69.5759 177.019V107.66C69.5759 104.226 67.8622 101.479 65.8058 99.7622ZM16.4515 188.693V106.973C16.4515 106.058 17.0227 105.6 18.1651 105.6H59.6365C60.5505 105.6 61.0074 106.172 61.0074 107.316V188.693C61.0074 189.609 60.4362 190.066 59.2937 190.066H17.4797C16.5657 190.066 16.1087 189.609 16.1087 188.693H16.4515ZM0 43.7946C0 57.1857 0 81.5642 5.14108 92.5517C6.85477 95.9854 8.56848 98.7322 10.6249 101.136C9.25396 102.853 8.56846 104.913 8.56846 107.316V189.036C8.56846 194.873 11.9958 198.65 17.8224 198.65H59.6365C65.1203 198.65 68.8904 195.217 69.5759 190.753C80.2008 195.56 92.1966 197.964 104.878 197.964C153.547 197.964 193.304 158.477 193.304 109.377C193.304 60.2759 153.89 20.7892 104.878 20.7892C55.8664 20.7892 77.4589 24.223 65.4631 30.0602V26.6266C64.4348 16.3257 61.0074 7.39842 53.1244 7.39842C45.2415 7.39842 50.3825 8.08481 49.0116 8.77153C47.2979 3.27775 43.5278 0.1875 38.7294 0.1875C33.9311 0.1875 31.1892 2.93456 29.4755 8.08497C27.7618 6.71153 26.0481 6.36817 24.3344 6.36817C19.5361 6.36817 14.7378 11.1752 14.0523 20.1026C13.3668 20.1026 12.6814 20.1026 11.6531 20.1026C3.08468 20.1026 0.342759 31.0902 0.342759 44.1379L0 43.7946ZM58.951 60.2757C58.951 62.6792 59.9792 64.3963 62.0357 64.3963C64.0921 64.3963 64.7775 62.3359 65.8058 60.2757C69.9186 50.3182 77.1161 46.5413 79.5153 46.5413C81.9145 46.5413 81.9145 47.5716 81.9145 48.945C81.9145 54.4388 73.346 62.6794 69.5759 75.0404C65.8058 87.4014 63.4066 90.4918 57.2373 98.3891H18.5079C16.1087 95.6422 14.395 93.5821 12.6813 89.8051C8.22571 80.191 8.22575 57.529 8.22575 44.1379C8.22575 30.7468 9.59671 28.3434 11.6531 28.3434C13.7096 28.3434 13.3668 29.3734 13.7095 33.8371L14.395 47.9148C14.395 51.3484 16.1087 53.4085 18.8506 53.4085C21.5925 53.4085 22.6208 51.3484 22.6208 47.9148L21.9353 24.2228C21.9353 17.0122 23.3062 15.2955 24.6772 15.2955C26.3908 15.2955 26.7336 16.6692 27.4191 19.4161C27.7618 22.8497 27.7618 31.7767 28.1045 44.8245C28.1045 48.6014 29.4755 50.3185 32.2174 50.6618C34.6166 50.6618 36.3303 48.9451 36.3303 45.1682C36.3303 36.2408 36.3303 19.7593 36.3303 16.669C36.673 10.8319 37.7013 9.4585 39.0722 9.4585C40.7859 9.4585 41.8141 11.5186 42.1568 16.669L43.1851 47.2282C43.1851 51.0052 44.8987 52.7219 47.2979 52.7219C49.6971 52.7219 51.4108 50.6618 51.4108 47.2282V24.5665C51.4108 18.7293 52.0963 17.0123 53.4672 17.0123C56.2091 17.0123 57.2373 24.5662 57.5801 29.0299C57.9228 31.4335 58.6083 46.1979 59.2937 61.9925L58.951 60.2757Z" fill="black"/>
</svg>
