<svg width="261" height="260" viewBox="0 0 261 260" fill="none" xmlns="http://www.w3.org/2000/svg">
<path d="M102.44 61.9036L192.556 167.475C198.327 157.876 202.164 146.456 203.072 135.232C206.332 94.9075 176.305 59.5784 136.175 56.524C96.0459 53.4696 116.149 57.0912 102.44 61.9036ZM83.9578 58.8236C84.8318 48.015 118.735 40.557 137.352 41.9739C184.928 45.5952 221.518 87.2795 217.551 136.334C213.585 185.388 209.864 169.629 199.172 183.455C197.797 185.023 195.594 186.529 193.525 186.371C191.457 186.214 189.388 186.056 187.901 183.852L86.3496 65.2798C84.4491 63.0438 83.7898 60.9021 83.9242 59.2392L83.9578 58.8236ZM57.4468 124.148C54.1526 164.888 84.6272 199.833 124.343 202.856C164.059 205.879 146.918 201.646 157.217 197.829L67.0682 92.6732C61.7443 101.888 57.8735 113.723 57.0331 124.116L57.4468 124.148ZM25.1441 122.107C29.8502 63.9071 80.8448 20.1052 138.764 24.5136C196.683 28.922 240.013 79.9034 235.307 138.104C230.601 196.304 179.606 240.106 121.688 235.697C63.7685 231.289 20.438 180.307 25.1441 122.107ZM11.0781 121.037C5.73332 187.135 54.7316 245.241 120.925 250.279C187.118 255.317 244.822 205.752 250.201 139.237C255.579 72.7227 206.547 15.0332 140.354 9.99504C74.1609 4.95683 16.4564 54.5222 11.0781 121.037ZM123.167 217.406C75.5903 213.784 39.0006 172.1 42.9671 123.046C46.9336 73.9913 57.4107 73.1158 67.3397 73.8715C77.2687 74.6273 71.756 75.8806 72.8963 77.2222L172.928 194.005C175.208 196.689 175.935 197.999 175.733 200.493C174.826 211.717 140.576 218.313 123.2 216.99L123.167 217.406Z" fill="#FFFF55"/>
<path d="M102.438 61.9034C115.734 57.0596 123.348 55.5477 136.173 56.5238C176.303 59.5782 206.33 94.9073 203.07 135.232C199.809 175.556 198.358 157.46 192.554 167.475L102.438 61.9034ZM57.4447 124.148C58.3187 113.339 61.7758 101.472 67.4798 92.7045L157.629 197.861C147.296 202.093 135.511 203.706 124.755 202.887C84.6251 199.833 54.5978 164.504 57.8584 124.179L57.4447 124.148ZM120.542 249.832C186.322 254.838 244.44 205.304 249.818 138.79C255.197 72.2754 206.165 14.586 139.972 9.54777C73.7787 4.50957 16.0742 54.0749 10.6959 120.589C5.3175 187.104 54.3494 244.793 120.542 249.832Z" fill="#FF3801"/>
<path d="M102.44 61.9036L192.556 167.475C198.327 157.876 202.164 146.456 203.072 135.232C206.332 94.9075 176.305 59.5784 136.175 56.524C96.0459 53.4696 116.149 57.0912 102.44 61.9036ZM83.9578 58.8236C84.8318 48.015 118.735 40.557 137.352 41.9739C184.928 45.5952 221.518 87.2795 217.551 136.334C213.585 185.388 209.864 169.629 199.172 183.455C197.797 185.023 195.594 186.529 193.525 186.371C191.457 186.214 189.388 186.056 187.901 183.852L86.3496 65.2798C84.4491 63.0438 83.7898 60.9021 83.9242 59.2392L83.9578 58.8236ZM57.4468 124.148C54.1526 164.888 84.6272 199.833 124.343 202.856C164.059 205.879 146.918 201.646 157.217 197.829L67.0682 92.6732C61.7443 101.888 57.8735 113.723 57.0331 124.116L57.4468 124.148ZM25.1441 122.107C29.8502 63.9071 80.8448 20.1052 138.764 24.5136C196.683 28.922 240.013 79.9034 235.307 138.104C230.601 196.304 179.606 240.106 121.688 235.697C63.7685 231.289 20.438 180.307 25.1441 122.107ZM11.0781 121.037C5.73332 187.135 54.7316 245.241 120.925 250.279C187.118 255.317 244.822 205.752 250.201 139.237C255.579 72.7227 206.547 15.0332 140.354 9.99504C74.1609 4.95683 16.4564 54.5222 11.0781 121.037ZM123.167 217.406C75.5903 213.784 39.0006 172.1 42.9671 123.046C46.9336 73.9913 57.4107 73.1158 67.3397 73.8715C77.2687 74.6273 71.756 75.8806 72.8963 77.2222L172.928 194.005C175.208 196.689 175.935 197.999 175.733 200.493C174.826 211.717 140.576 218.313 123.2 216.99L123.167 217.406Z" fill="black"/>
</svg>
