<svg width="170" height="169" viewBox="0 0 170 169" fill="none" xmlns="http://www.w3.org/2000/svg">
<path d="M168.907 69.9458H1.08917C0.412125 74.2443 0.0588684 78.7489 0.0588684 83.3123C0.0588684 130.154 38.1793 168.281 85.0128 168.281C131.846 168.281 169.967 130.154 169.967 83.3123C169.967 78.7489 169.613 74.2443 168.936 69.9458H168.907Z" fill="#FFFF55"/>
<path d="M125.105 62.0848L134.761 41.4756C135.29 40.3568 135.703 39.238 135.703 38.2959C135.703 36.6472 134.584 35.6167 133.024 35.3517C129.491 34.7335 126.283 31.4654 126.283 27.2553C126.283 22.6035 129.992 18.9822 134.555 18.9822C138.44 18.9822 138.352 20.8075 141.031 20.8075C144.386 20.8075 144.475 15.4492 150.598 15.4492C154.895 15.4492 158.957 18.8938 158.957 23.7223C158.957 25.2827 158.516 26.8136 157.662 28.1974C157.309 28.8157 157.044 29.4928 157.044 30.0817C157.044 31.2005 157.662 32.2309 158.604 32.9375C161.106 34.4979 162.402 37.1771 162.402 39.8269C162.402 44.1253 158.957 48.1 154.13 48.1C148.449 48.1 147.919 43.2715 144.651 43.2715C143.621 43.2715 142.502 43.9487 141.296 45.2441L125.076 62.0553L125.105 62.0848ZM57.5779 34.2329C57.5779 27.8441 62.6705 22.2502 69.5586 22.2502C71.4426 22.2502 73.0027 20.8664 73.0027 18.8055C73.0027 12.0634 78.4485 6.82275 84.9834 6.82275C91.5183 6.82275 96.9641 12.2695 96.9641 18.8055C96.9641 20.6898 98.5242 22.2502 100.408 22.2502C106.972 22.2502 112.389 27.6086 112.389 34.2329C112.389 40.8573 107.296 46.2157 100.408 46.2157C97.6411 46.2157 96.0221 45.1852 94.3736 45.1852C92.7252 45.1852 91.6949 46.2157 91.3417 47.8644L87.6326 66.501H81.0683L78.5662 48.1294C78.3013 46.3923 77.1826 45.1852 75.4753 45.1852C73.768 45.1852 72.4434 46.2157 69.5292 46.2157C62.9648 46.2157 57.5485 40.8573 57.5485 34.2329H57.5779ZM34.6468 40.6218L44.7436 62.0848L27.4938 44.302C26.8756 43.6248 26.0219 43.2715 25.0799 43.2715C24.138 43.2715 23.1077 43.6248 22.3129 44.6553C20.8411 46.7162 18.339 48.1 15.6603 48.1C11.0093 48.1 7.30032 44.4786 7.30032 39.8269C7.30032 37.1477 8.59547 34.4685 11.0976 32.9375C12.1279 32.2604 12.6577 31.2005 12.6577 29.9933C12.6577 29.3751 12.4811 28.7862 12.1279 28.168C11.1859 26.7842 10.7444 25.2238 10.7444 23.6928C10.7444 19.041 14.5417 15.4197 19.1926 15.4197C25.1388 15.4197 25.4037 20.7781 29.0244 20.7781C31.1733 20.7781 31.9681 18.9527 35.1473 18.9527C39.71 18.9527 43.419 22.6624 43.419 27.2258C43.419 30.9355 40.9169 34.2035 37.3845 35.1751C35.1473 35.7933 34.0287 36.9121 34.0287 38.2665C34.0287 39.0319 34.2053 39.7385 34.6468 40.5923V40.6218Z" fill="white"/>
<path d="M126.047 60.1123L134.761 41.4757C135.29 40.3569 135.703 39.2381 135.703 38.296C135.703 36.6473 134.584 35.6168 133.024 35.3518C129.491 34.7335 126.283 31.4655 126.283 27.2554C126.283 22.6036 129.992 18.9823 134.555 18.9823C138.44 18.9823 138.352 20.8076 141.031 20.8076C144.386 20.8076 144.475 15.4493 150.597 15.4493C154.895 15.4493 158.957 18.8939 158.957 23.7224C158.957 25.2828 158.516 26.8137 157.662 28.1975C157.309 28.8158 157.044 29.4929 157.044 30.0818C157.044 31.2005 157.662 32.231 158.604 32.9376C161.106 34.498 162.401 37.1772 162.401 39.827C162.401 44.1254 158.957 48.1001 154.13 48.1001C148.449 48.1001 147.919 43.2716 144.651 43.2716C143.621 43.2716 142.502 43.9488 141.296 45.2442L126.989 60.0828H126.047V60.1123ZM99.6722 83.3123C99.6722 88.5824 104.058 92.9692 109.416 92.9692C114.773 92.9692 119.071 88.5824 119.071 83.3123C119.071 78.0422 114.597 73.5671 109.416 73.5671C104.235 73.5671 99.6722 77.9539 99.6722 83.3123ZM72.0607 101.331C72.0607 104.098 74.2096 106.424 77.1532 106.424C79.9203 106.424 82.2458 104.098 82.2458 101.331C82.2458 99.7702 83.4527 98.5631 85.0128 98.5631C86.573 98.5631 87.8682 99.7702 87.8682 101.331C87.8682 104.098 90.1053 106.424 92.9606 106.424C95.816 106.424 98.0532 104.098 98.0532 101.331C98.0532 94.0879 92.1953 88.4057 85.0422 88.4057C77.8891 88.4057 72.1196 94.0879 72.1196 101.331H72.0607ZM70.5889 124.295C70.5889 132.303 77.0649 138.78 84.9834 138.78C92.9018 138.78 99.3779 132.303 99.3779 124.295C99.3779 116.287 92.9018 109.898 84.9834 109.898C77.0649 109.898 70.5889 116.375 70.5889 124.295ZM57.5779 34.233C57.5779 27.8442 62.6705 22.2503 69.5586 22.2503C71.4426 22.2503 73.0026 20.8665 73.0026 18.8056C73.0026 12.0635 78.4484 6.82285 84.9834 6.82285C91.5183 6.82285 96.9641 12.2696 96.9641 18.8056C96.9641 20.6899 98.5241 22.2503 100.408 22.2503C106.972 22.2503 112.389 27.6087 112.389 34.233C112.389 40.8574 107.296 46.2158 100.408 46.2158C97.6411 46.2158 96.0221 45.1853 94.3736 45.1853C92.7252 45.1853 91.6949 46.2158 91.3417 47.8645L88.9278 60.1123H80.2146L78.5662 48.1295C78.3013 46.3924 77.1826 45.1853 75.4753 45.1853C73.768 45.1853 72.4434 46.2158 69.5292 46.2158C62.9648 46.2158 57.5485 40.8574 57.5485 34.233H57.5779ZM50.9547 83.3123C50.9547 88.5824 55.429 92.9692 60.6982 92.9692C65.9673 92.9692 70.3534 88.5824 70.3534 83.3123C70.3534 78.0422 65.9673 73.5671 60.6982 73.5671C55.429 73.5671 50.9547 77.9539 50.9547 83.3123ZM10.244 83.3123C10.244 78.8372 10.6854 74.5092 11.3625 70.2991H158.663C159.34 74.5387 159.782 78.8372 159.782 83.3123C159.782 124.619 126.312 158.094 85.0128 158.094C43.7133 158.094 10.244 124.619 10.244 83.3123ZM7.3003 39.827C7.3003 37.1478 8.59544 34.4686 11.0976 32.9376C12.1278 32.2604 12.6577 31.2005 12.6577 29.9934C12.6577 29.3752 12.4811 28.7863 12.1279 28.1681C11.1859 26.7843 10.7443 25.2239 10.7443 23.6929C10.7443 19.0411 14.5416 15.4198 19.1926 15.4198C25.1388 15.4198 25.4037 20.7782 29.0244 20.7782C31.1733 20.7782 31.9681 18.9528 35.1473 18.9528C39.7099 18.9528 43.4189 22.6625 43.4189 27.2259C43.4189 30.9356 40.9169 34.2036 37.3845 35.1752C35.1473 35.7934 34.0287 36.9122 34.0287 38.2665C34.0287 39.032 34.2053 39.7386 34.6468 40.5924L43.8016 60.0828H42.8596L27.5232 44.3021C26.905 43.6249 26.0514 43.2716 25.1094 43.2716C24.1674 43.2716 23.1371 43.6249 22.3423 44.6554C20.8705 46.7163 18.3684 48.1001 15.6897 48.1001C11.0387 48.1001 7.32968 44.4787 7.32968 39.827H7.3003ZM85.0128 168.281C131.846 168.281 169.967 130.154 169.967 83.3123C169.967 78.8372 169.525 74.3326 168.936 70.2107C168.083 64.2635 165.993 60.1123 159.87 60.1123H136.409L144.681 51.5742C147.271 53.6351 150.892 54.9305 154.159 54.9305C162.431 54.9305 169.26 48.1295 169.26 39.827C169.26 35.8523 167.7 31.966 164.786 29.1396C165.463 27.4026 165.728 25.6066 165.728 23.7812C165.728 15.5081 159.075 8.67768 150.804 8.67768C146.741 8.67768 142.797 10.3264 140.03 13.1528C138.293 12.4756 136.497 12.1224 134.672 12.1224C133.554 12.1224 132.523 12.2107 131.405 12.4757C124.752 13.9477 119.512 19.8066 119.512 27.1376C119.512 32.0544 121.926 37.1478 126.401 39.827L127.696 40.5924L118.541 60.0828H95.8455L97.3173 52.7519C97.9943 52.9285 99.2012 53.0168 100.408 53.0168C110.505 53.0168 119.13 44.9204 119.13 34.2036C119.13 25.2239 112.919 17.3924 103.528 15.6554C101.88 6.76397 94.4619 0.0512695 84.9834 0.0512695C75.5048 0.0512695 68.0868 6.52844 66.4384 15.6554C57.2836 17.3041 50.8369 24.9589 50.8369 34.2036C50.8369 44.6259 59.2853 53.0168 69.5586 53.0168C70.5889 53.0168 71.5309 52.9285 72.5023 52.7519L73.4443 60.0828H51.1901L42.0354 40.5924L43.3306 39.827C47.8933 37.0594 50.2188 32.1427 50.2188 27.2259C50.2188 18.8645 43.4189 12.1224 35.1178 12.1224C33.2339 12.1224 31.4088 12.4756 29.7603 13.1528C26.905 10.297 22.9605 8.67768 18.8982 8.67768C10.9504 8.67768 3.97395 15.2432 3.97395 23.7812C3.97395 25.6066 4.23882 27.4026 4.91586 29.1396C2.06051 31.9955 0.529837 35.9407 0.529837 39.9153C0.529837 48.1884 7.3297 54.9305 15.5425 54.9305C18.3979 54.9305 21.3121 54.3123 23.7259 52.5163L25.0211 51.5742L33.2928 60.1123H11.3036C4.23885 60.1123 2.32551 64.4991 1.0303 70.0341C0.50044 72.1833 0 75.7163 0 83.3123C0 130.154 38.1203 168.281 84.9539 168.281H85.0128Z" fill="black"/>
</svg>
