<svg width="164" height="166" viewBox="0 0 164 166" fill="none" xmlns="http://www.w3.org/2000/svg">
<path d="M120.406 31.4319C120.406 27.9256 123.341 24.9894 126.676 24.9894C130.182 24.9894 133.117 27.9256 133.117 31.4319C133.117 34.9382 130.182 37.6178 126.676 37.6178C123.17 37.6178 120.406 34.9382 120.406 31.4319ZM110.544 57.1731L144.433 74.5335L118.211 47.1389C115.133 47.1389 110.516 53.4958 110.516 57.1731H110.544ZM92.4172 31.4319C92.4172 27.9256 95.3528 24.9894 98.6875 24.9894C102.193 24.9894 105.129 27.9256 105.129 31.4319C105.129 34.9382 102.193 37.6178 98.6875 37.6178C95.1818 37.6178 92.4172 34.9382 92.4172 31.4319ZM70.3856 165.241C34.2172 165.241 0.5 143.12 0.5 106.204C0.5 81.3181 10.5325 70.1151 31.3956 54.8356C40.0885 48.6497 48.924 42.2358 55.5363 32.3726C69.5591 11.905 84.4368 0.730469 108.15 0.730469C136.965 0.730469 150.247 25.531 150.247 58.5129C150.247 62.6749 150.161 66.6943 149.905 70.7137C149.648 75.3032 149.306 79.8072 148.736 84.1687L106.811 62.7034C105.129 61.8767 103.875 59.4537 103.875 56.9451C103.875 50.3601 111.399 40.6679 118.325 40.6679C120.662 40.6679 122.087 41.5801 122.914 42.4924L162.588 83.9977C163.186 84.6533 163.5 85.5085 163.5 86.3352C163.5 88.2451 161.989 89.5849 160.251 89.5849C159.652 89.5849 159.168 89.4994 158.74 89.2429L148.708 84.1402C142.779 132.259 118.81 165.241 70.3856 165.241Z" fill="#AC4300"/>
<path d="M160.222 89.5559C159.623 89.5559 159.139 89.4703 158.711 89.2138L106.782 62.6458C105.1 61.8191 103.846 59.3961 103.846 56.8875C103.846 50.3025 111.37 40.6104 118.296 40.6104C120.633 40.6104 122.059 41.5226 122.885 42.4348L162.559 83.9401C163.158 84.5957 163.471 85.4509 163.471 86.2776C163.471 88.1875 161.961 89.5273 160.222 89.5273V89.5559Z" fill="#FFFF55"/>
<path d="M120.406 31.4319C120.406 27.9256 123.341 24.9894 126.676 24.9894C130.182 24.9894 133.117 27.9256 133.117 31.4319C133.117 34.9382 130.182 37.6178 126.676 37.6178C123.17 37.6178 120.406 34.9382 120.406 31.4319ZM110.544 57.1731L144.433 74.5335L118.211 47.1389C115.133 47.1389 110.516 53.4958 110.516 57.1731H110.544ZM92.4172 31.4319C92.4172 27.9256 95.3528 24.9894 98.6875 24.9894C102.193 24.9894 105.129 27.9256 105.129 31.4319C105.129 34.9382 102.193 37.6178 98.6875 37.6178C95.1818 37.6178 92.4172 34.9382 92.4172 31.4319ZM10.2475 106.176C10.2475 136.735 39.0625 155.463 70.3571 155.463C114.876 155.463 134.913 123.907 139.416 79.3796L106.753 62.6749C105.072 61.8482 103.818 59.4252 103.818 56.9166C103.818 50.3316 111.342 40.6394 118.268 40.6394C120.605 40.6394 122.03 41.5516 122.857 42.4638L140.385 60.8505V58.5129C140.385 33.6269 132.205 10.4797 108.065 10.4797C88.5126 10.4797 75.4874 19.9153 63.6307 37.8743C56.9614 47.823 48.4395 54.6646 37.0674 62.8459C18.9405 76.1299 10.1905 84.8814 10.1905 106.204L10.2475 106.176ZM70.3856 165.241C34.2172 165.241 0.5 143.12 0.5 106.204C0.5 81.3181 10.5325 70.1151 31.3956 54.8356C40.0885 48.6497 48.924 42.2358 55.5363 32.3726C69.5591 11.905 84.4368 0.730469 108.15 0.730469C136.965 0.730469 150.247 25.531 150.247 58.5129C150.247 62.6749 150.161 66.6943 149.905 70.7137C149.648 75.3032 149.306 79.8072 148.736 84.1687L139.473 79.4081L139.73 76.8996H147.824L140.3 67.464L140.471 60.879L162.588 84.0262C163.186 84.6818 163.5 85.537 163.5 86.3637C163.5 88.2736 161.989 89.6134 160.251 89.6134C159.652 89.6134 159.168 89.5279 158.74 89.2714L148.708 84.1687C142.779 132.288 118.81 165.269 70.3856 165.269V165.241Z" fill="black"/>
</svg>
