<svg width="97" height="76" viewBox="0 0 97 76" fill="none" xmlns="http://www.w3.org/2000/svg">
<path d="M54.0239 73.392C56.2051 73.392 58.0544 72.0008 59.0186 70.246C60.9153 69.7401 62.4959 69.1869 63.8869 68.7126C64.8668 68.349 65.831 67.9696 68.2335 67.0052H68.5655C70.557 67.0052 72.1851 66.1674 73.2915 64.9659C88.9869 57.9784 96.5895 50.7064 96.5895 35.8778C96.5895 22.3139 91.8635 15.7849 85.9837 11.5165C80.009 7.16909 62.0376 1.84154 56.3948 0.95625C55.6994 0.861397 54.9091 0.813965 54.2136 0.813965C49.7721 0.813965 44.3506 2.90072 39.6246 5.49336C36.4318 4.8452 33.2864 4.4816 30.4571 4.4816C13.6553 4.4816 0.773438 15.358 0.773438 32.637C0.773438 45.7899 7.71224 52.2715 19.8987 58.9428C19.6616 59.6858 19.4878 60.6027 19.4878 61.7725C19.4878 65.4718 22.7754 67.7957 26.0631 67.7957C28.7975 67.7957 32.4961 66.9578 34.6299 66.2148L35.278 66.4994C34.6299 67.4795 34.1715 68.6335 34.1715 69.9773C34.1715 73.1706 37.0482 75.542 40.1936 75.542C43.339 75.542 47.5593 74.0559 50.5624 72.8545C51.7637 73.1865 52.9649 73.4078 54.0397 73.4078L54.0239 73.392Z" fill="#FFFF55"/>
<path d="M58.5128 64.3494L61.6582 65.5034C61.0101 65.7405 60.2673 66.0093 59.4296 66.2464C59.2399 65.5508 58.9237 64.9501 58.497 64.3494H58.5128ZM37.8544 69.9615C37.8544 69.171 38.1863 68.5703 38.7869 68.017C41.142 69.0288 43.4655 70.0089 45.3622 70.7993C43.5129 71.4001 41.6636 71.8111 40.1778 71.8111C38.6921 71.8111 37.8701 71.2578 37.8701 69.9615H37.8544ZM32.4487 15.0735C32.4487 14.2356 45.1884 4.51322 54.2136 4.51322C54.8142 4.51322 55.32 4.56064 55.8416 4.65549C61.1682 5.44593 78.3968 10.5363 83.7709 14.4727C89.0975 18.3617 92.8909 23.6418 92.8909 35.8778C92.8909 48.1138 87.6591 53.9472 75.1091 60.0494C74.872 57.2196 72.8805 55.5123 71.0312 54.4057C72.4221 54.7693 74.0818 55.1012 75.6624 55.1012C80.3884 55.1012 82.7909 51.3071 82.7909 48.4774C82.7909 45.6476 80.9415 43.7031 78.6655 42.4542C81.3999 41.3476 82.7434 38.6601 82.7434 36.4311C82.7434 32.5421 79.0449 30.1708 76.0733 29.0642C74.4927 28.5109 69.087 26.3767 63.7604 24.3374C62.0533 21.887 56.4422 16.7018 52.4117 16.7018C51.2104 16.7018 40.8891 18.4565 37.633 18.4565C34.5825 18.4565 32.4487 16.6543 32.4487 15.0735ZM23.1864 61.7567C23.1864 61.3457 23.2338 61.0137 23.2812 60.745C25.1779 61.7251 27.2169 62.7369 29.3033 63.7486C28.1969 63.9383 27.0747 64.0806 26.0631 64.0806C24.2612 64.0806 23.1864 63.3376 23.1864 61.7725V61.7567ZM4.47204 32.6212C4.47204 17.2867 15.315 8.16504 30.4571 8.16504C31.8955 8.16504 33.4287 8.25989 34.946 8.4496C31.2949 11.0422 28.7342 13.6823 28.7342 15.0735C28.7342 18.6937 33.0019 22.1558 37.6173 22.1558C39.7985 22.1558 42.1536 21.8238 44.4297 21.4602C46.6109 22.1558 48.0492 22.6617 51.5581 23.7683C55.5887 25.0172 71.7899 31.4513 74.7614 32.5738C77.2114 33.4591 79.0291 34.6605 79.0291 36.4153C79.0291 37.9487 78.2387 39.1976 76.1049 39.1976C74.1133 39.1976 73.4653 39.0079 72.4537 38.7392C69.2135 38.0436 54.34 32.2576 50.2779 31.1035C47.3537 30.408 44.1609 29.3962 44.1609 32.4473C44.1609 34.2969 46.7531 35.1348 48.8395 35.7829C49.8985 36.1149 71.1102 43.4186 74.3978 44.5884C77.3219 45.6476 79.0764 46.5803 79.0764 48.4774C79.0764 49.916 78.1913 51.402 75.6466 51.402C74.066 51.402 72.4537 50.991 70.9679 50.5641C67.5854 49.4575 47.2589 43.2447 45.7257 42.6914C44.4296 42.1855 43.2284 41.7586 42.3433 41.7586C41.0946 41.7586 40.1146 42.6914 40.1146 43.8928C40.1146 45.4263 41.2685 46.027 43.5445 46.8965C45.2516 47.6395 64.9458 55.6545 67.5854 56.7612C69.577 57.7413 71.4264 58.7056 71.4264 60.6027C71.4264 61.9464 70.5412 63.2902 68.5497 63.2902C67.0165 63.2902 65.3569 62.8791 63.9185 62.3575C60.8205 61.3773 47.986 56.2869 45.3938 55.3226C41.4107 53.7417 36.2737 50.4535 35.1673 53.7891C34.2822 56.5715 40.1146 58.4685 43.3706 60.002C45.5519 61.0611 50.6414 63.1953 52.301 64.0332C54.2452 64.9185 55.9522 66.2148 55.9522 67.8273C55.9522 68.8074 55.2568 69.6769 54.0081 69.6769C52.8543 69.6769 51.5107 69.3133 49.9301 68.6651C46.2789 67.1791 37.3328 63.4799 31.7374 60.8398C13.4499 51.9553 4.45622 46.8965 4.45622 32.637L4.47204 32.6212ZM0.773438 32.6212C0.773438 45.7741 7.68063 52.3031 19.8987 58.927C19.6616 59.67 19.4878 60.5869 19.4878 61.7567C19.4878 65.456 22.7754 67.7799 26.0631 67.7799C28.7975 67.7799 32.4961 66.942 34.5825 66.199L35.278 66.4835C34.6299 67.4637 34.1715 68.6177 34.1715 69.9615C34.1715 73.1548 37.0482 75.5262 40.1936 75.5262C43.339 75.5262 47.5593 74.0401 50.5624 72.7912C51.7637 73.1548 52.9649 73.392 54.0397 73.392C56.2209 73.392 58.0702 72.0008 59.0344 70.2935C60.9311 69.7402 62.5118 69.1869 63.9027 68.7126C64.8827 68.3016 65.8942 67.9221 68.2019 67.0052H68.5655C70.5096 67.0052 72.1376 66.1674 73.244 65.0133C88.9868 57.9784 96.5895 50.7064 96.5895 35.8778C96.5895 22.3139 91.8635 15.7849 85.9837 11.5165C80.009 7.16909 62.0376 1.84154 56.3948 0.95625C55.6994 0.861397 54.9091 0.813965 54.2136 0.813965C49.7721 0.813965 44.3506 2.90072 39.6246 5.54078C36.4318 4.84519 33.2864 4.4816 30.4571 4.4816C13.6553 4.4816 0.773438 15.358 0.773438 32.637V32.6212Z" fill="black"/>
</svg>
