<svg width="93" height="93" viewBox="0 0 93 93" fill="none" xmlns="http://www.w3.org/2000/svg">
<path d="M46.5844 92.0504C71.7318 92.0504 92.2006 71.578 92.2006 46.4263C92.2006 21.2746 71.7318 0.802246 46.5844 0.802246C21.4371 0.802246 0.968262 21.2746 0.968262 46.4263C0.968262 71.578 21.4371 92.0504 46.5844 92.0504Z" fill="#FFFF55"/>
<path d="M20.5205 52.2121C20.5205 48.5128 23.4446 45.6831 27.001 45.6831C30.5573 45.6831 33.4814 48.6077 33.4814 52.2121C33.4814 55.8165 30.6048 58.6463 27.001 58.6463C23.3972 58.6463 20.5205 55.7216 20.5205 52.2121ZM50.71 52.5915H62.3274C62.5645 58.0139 67.006 62.3139 72.4749 62.3139C77.9438 62.3139 82.6224 57.7768 82.6224 52.2121C82.6224 51.2794 82.4801 50.3625 82.2588 49.4772C82.7646 48.5919 83.0491 47.5801 83.0491 46.5051C83.0491 43.1221 80.3147 40.4346 76.9796 40.4346H50.9945C49.9829 40.4346 49.1452 41.225 49.1452 42.2368C49.1452 43.2485 49.9829 44.039 50.9945 44.039H76.9796C78.3231 44.039 79.3821 45.1456 79.3821 46.4893C79.3821 47.8331 78.3231 48.8923 76.9796 48.8923H50.7258C49.7142 48.8923 48.9239 49.7301 48.9239 50.6945C48.9239 51.6588 49.7142 52.5441 50.7258 52.5441L50.71 52.5915Z" fill="#FFCCCC"/>
<path d="M65.9942 52.5917H76.9636C77.6591 52.5917 78.3545 52.4495 78.9552 52.2597C78.9552 55.7377 76.031 58.6465 72.4747 58.6465C68.9183 58.6465 66.1839 56.0064 65.9942 52.5759V52.5917ZM58.6286 33.0837C58.6286 35.9135 60.9837 38.269 63.8604 38.269C66.7371 38.269 69.0448 35.9135 69.0448 33.0837C69.0448 30.254 66.6423 27.851 63.8604 27.851C61.0785 27.851 58.6286 30.2065 58.6286 33.0837ZM55.009 17.7176C55.009 19.2511 56.1629 20.5 57.6487 20.5C61.0311 20.5 63.4811 22.2073 65.2355 24.9422C65.7413 25.7327 66.6265 26.1911 67.5116 26.1911C68.9974 26.1911 70.2461 25.1319 70.2461 23.5985C70.2461 21.6066 66.8161 18.1286 64.6507 16.8798C62.6117 15.7257 60.2092 15.0301 57.7909 15.0301C56.2577 15.0301 55.009 16.2316 55.009 17.7176ZM41.811 65.7446C41.811 70.6928 45.8416 74.7714 50.8363 74.7714C55.831 74.7714 59.8141 70.6928 59.8141 65.7446C59.8141 60.7965 55.7835 56.7178 50.8363 56.7178C45.889 56.7178 41.811 60.7965 41.811 65.7446ZM32.4539 33.0837C32.4539 35.9135 34.8564 38.269 37.6856 38.269C40.5149 38.269 42.87 35.9135 42.87 33.0837C42.87 30.254 40.5149 27.851 37.6856 27.851C34.8564 27.851 32.4539 30.2065 32.4539 33.0837ZM30.1462 23.5985C30.1462 25.1319 31.3949 26.1911 32.8806 26.1911C33.7658 26.1911 34.6351 25.7327 35.1567 24.9422C36.9111 22.2073 39.3769 20.5 42.7436 20.5C44.2293 20.5 45.3832 19.2511 45.3832 17.7176C45.3832 16.1842 44.1345 15.0301 42.6013 15.0301C40.1988 15.0301 37.7805 15.7257 35.7415 16.8798C33.5603 18.1286 30.1462 21.6066 30.1462 23.5985ZM20.5203 52.2123C20.5203 48.5131 23.4444 45.6833 27.0008 45.6833C30.5571 45.6833 33.4812 48.6079 33.4812 52.2123C33.4812 55.8167 30.6046 58.6465 27.0008 58.6465C23.397 58.6465 20.5203 55.7219 20.5203 52.2123ZM16.8533 52.2123C16.8533 57.777 21.4845 62.3141 27.0008 62.3141C32.5171 62.3141 37.1482 57.777 37.1482 52.1649C37.1482 46.5528 32.7542 42.0631 27.0008 42.0631C21.2474 42.0631 16.8533 46.6002 16.8533 52.2123ZM6.43713 46.4263C6.43713 24.2466 24.4086 6.27208 46.5844 6.27208C68.7603 6.27208 86.7317 24.2466 86.7317 46.4263C86.7317 68.606 68.7603 86.5806 46.5844 86.5806C24.4086 86.5806 6.43713 68.606 6.43713 46.4263ZM0.968262 46.4263C0.968262 71.578 21.4371 92.0504 46.5844 92.0504C71.7318 92.0504 92.2006 71.578 92.2006 46.4263C92.2006 21.2746 71.7318 0.802246 46.5844 0.802246C21.4371 0.802246 0.968262 21.2746 0.968262 46.4263ZM50.7098 52.5917H62.3272C62.5643 58.0141 67.0058 62.3141 72.4747 62.3141C77.9436 62.3141 82.6222 57.777 82.6222 52.2123C82.6222 51.2796 82.4799 50.3627 82.2586 49.4774C82.7644 48.5921 83.0489 47.5804 83.0489 46.5054C83.0489 43.1223 80.3145 40.4348 76.9794 40.4348H50.9943C49.9827 40.4348 49.145 41.2252 49.145 42.237C49.145 43.2488 49.9827 44.0392 50.9943 44.0392H76.9794C78.3229 44.0392 79.3819 45.1458 79.3819 46.4896C79.3819 47.8333 78.3229 48.8925 76.9794 48.8925H50.7256C49.714 48.8925 48.9237 49.7304 48.9237 50.6947C48.9237 51.659 49.714 52.5443 50.7256 52.5443L50.7098 52.5917Z" fill="black"/>
</svg>
