<svg width="164" height="164" viewBox="0 0 164 164" fill="none" xmlns="http://www.w3.org/2000/svg">
<path d="M92.8041 69.1811C92.8041 64.0065 97.0318 59.7727 102.199 59.7727C107.366 59.7727 111.359 64.0065 111.359 69.1811C111.359 74.3557 107.131 78.3542 102.199 78.3542C97.2666 78.3542 92.8041 74.1205 92.8041 69.1811ZM77.3027 88.233C77.3027 90.1147 79.1816 91.526 82.235 91.526C85.2883 91.526 87.1672 90.1147 87.1672 88.233C87.1672 86.3514 85.0534 85.1753 82.235 85.1753C79.4165 85.1753 77.3027 86.5866 77.3027 88.233ZM61.5664 111.519C61.5664 108.931 62.9756 107.52 64.8546 107.52C66.7336 107.52 66.4987 107.755 67.9079 108.931C70.2566 110.813 74.2494 113.871 82.0001 113.871C89.7509 113.871 93.7436 111.048 95.8575 109.167C97.5015 107.755 98.441 107.52 99.1456 107.52C101.025 107.52 102.434 108.931 102.434 111.519C102.434 122.103 93.2739 129.395 82.0001 129.395C70.7264 129.395 61.5664 122.103 61.5664 111.519ZM54.0506 118.34C54.0506 133.628 66.7335 145.859 82.235 145.859C97.7364 145.859 110.419 133.864 110.419 118.34C110.419 102.816 103.138 96.7006 92.3344 92.702C90.4555 95.7597 86.6975 97.8766 82.235 97.8766C77.7724 97.8766 74.0145 95.9949 72.1356 92.702C61.8013 96.4654 54.0506 106.579 54.0506 118.34ZM52.8762 69.1811C52.8762 64.0065 57.1039 59.7727 62.271 59.7727C67.4381 59.7727 71.431 64.0065 71.431 69.1811C71.431 74.3557 67.2033 78.3542 62.271 78.3542C57.3387 78.3542 52.8762 74.1205 52.8762 69.1811ZM47.4742 118.34C47.4742 103.522 57.3388 90.5851 70.9612 86.1161C72.1356 85.6457 73.5448 85.4105 74.954 85.1753V91.7612C74.0146 91.9964 73.0751 92.2316 72.1356 92.702C71.1961 91.2908 70.9612 89.8795 70.9612 88.233C70.9612 86.5866 70.9612 86.8218 71.1961 86.1161C72.3705 81.6472 76.8329 78.5895 82.235 78.5895C87.637 78.5895 92.3344 81.6472 93.2739 86.1161C93.2739 86.8218 93.5088 87.5274 93.5088 87.9978C93.5088 89.6443 93.039 91.2907 92.3344 92.4668C91.1601 91.9964 89.9857 91.5259 88.8114 91.2907V84.7049C90.4555 84.9401 91.8647 85.4105 93.2739 85.881C107.366 90.8204 116.761 103.051 116.761 118.105C116.761 133.158 101.494 151.975 82.235 151.975C62.9756 151.975 47.7091 136.921 47.7091 118.105L47.4742 118.34ZM82.0001 163.5C40.1933 163.5 6.60686 129.63 6.60686 88.233C6.60686 46.8362 8.48577 69.1811 11.774 60.9488C4.72785 54.3629 0.735107 45.1897 0.735107 35.311C0.735107 16.0238 16.2365 0.5 35.4958 0.5C54.7552 0.5 57.3387 6.14501 63.6802 15.083C69.552 13.6717 75.6587 12.9661 82.0001 12.9661C88.3416 12.9661 94.4482 13.9069 100.32 15.083C106.896 6.14501 117.231 0.5 128.739 0.5C147.764 0.5 163.5 16.0238 163.5 35.311C163.5 54.5981 159.507 54.3629 152.461 60.9488C155.749 69.4163 157.628 78.5895 157.628 88.233C157.628 129.63 124.277 163.5 82.235 163.5H82.0001Z" fill="#AC4417"/>
<path d="M54.0505 118.34C54.0505 133.629 66.7335 145.859 82.2349 145.859C97.7364 145.859 110.419 133.864 110.419 118.34C110.419 102.816 103.138 96.7007 92.3344 92.7021C90.4554 95.7599 86.6975 97.8767 82.2349 97.8767C77.7724 97.8767 74.0145 95.9951 72.1356 92.7021C61.8013 96.4655 54.0505 106.579 54.0505 118.34Z" fill="#F9CBCC"/>
<path d="M121.693 24.0213C128.739 28.4903 135.08 34.1353 140.482 40.7212C141.422 39.0747 141.657 37.193 141.657 35.3114C141.657 28.0199 135.785 22.1396 128.504 22.1396C121.223 22.1396 123.572 22.8453 121.458 24.0213H121.693ZM77.3024 88.2335C77.3024 86.587 79.1813 85.1757 82.2346 85.1757C85.2879 85.1757 87.1669 86.587 87.1669 88.2335C87.1669 89.8799 85.053 91.5264 82.2346 91.5264C79.4161 91.5264 77.3024 90.1151 77.3024 88.2335ZM22.3427 35.3114C22.3427 37.193 22.8125 39.0747 23.5171 40.7212C28.9191 34.1353 35.2606 28.4903 42.3067 24.0213C40.4277 22.8453 37.8441 22.1396 35.2606 22.1396C27.9796 22.1396 22.1079 28.0199 22.1079 35.3114H22.3427Z" fill="#EF7D81"/>
<path d="M121.693 24.0209C123.572 22.8449 126.155 22.1392 128.739 22.1392C136.02 22.1392 141.892 28.0195 141.892 35.311C141.892 42.6024 141.422 39.0743 140.717 40.7208C135.55 34.1349 128.974 28.4899 121.928 24.0209H121.693ZM110.419 18.3759C115.117 13.4365 121.928 10.3788 128.739 10.3788C142.596 10.3788 153.87 21.6688 153.87 35.5462C153.87 49.4235 151.756 47.3066 147.998 51.7756C147.059 50.1292 146.119 48.4827 144.945 46.8362C147.294 43.7785 148.468 40.0151 148.468 35.7814C148.468 25.197 140.013 16.259 128.974 16.259C117.935 16.259 119.344 18.1407 115.821 21.1984C114.177 20.2576 112.298 19.5519 110.654 18.8463L110.419 18.3759ZM77.3025 88.233C77.3025 86.5866 79.1814 85.1753 82.2347 85.1753C85.288 85.1753 87.167 86.5866 87.167 88.233C87.167 89.8795 85.0532 91.526 82.2347 91.526C79.4163 91.526 77.3025 90.1147 77.3025 88.233ZM61.5662 111.519C61.5662 122.338 70.7262 129.395 81.9999 129.395C93.2737 129.395 102.434 122.103 102.434 111.519C102.434 100.934 101.024 107.52 99.1454 107.52C97.2664 107.52 97.5013 107.755 95.8572 109.167C93.7434 110.813 89.7506 113.871 81.9999 113.871C74.2492 113.871 70.2564 111.048 67.9077 108.931C66.4985 107.755 65.7938 107.52 64.8544 107.52C62.9754 107.52 61.5662 108.931 61.5662 111.519ZM54.0503 118.34C54.0503 106.579 61.5662 96.4654 72.1354 92.702C74.0143 95.7597 78.0071 97.8766 82.2347 97.8766C86.4624 97.8766 90.4552 95.9949 92.3342 92.702C103.138 96.7006 110.419 106.579 110.419 118.34C110.419 130.1 97.5013 145.859 82.2347 145.859C66.9682 145.859 54.0503 133.628 54.0503 118.34ZM52.876 69.1811C52.876 64.0065 57.1036 59.7727 62.2708 59.7727C67.4379 59.7727 71.4308 64.0065 71.4308 69.1811C71.4308 74.3557 67.203 78.3542 62.2708 78.3542C57.3385 78.3542 52.876 74.1205 52.876 69.1811ZM47.474 118.34C47.474 137.392 62.9754 152.21 81.9999 152.21C101.024 152.21 116.526 136.921 116.526 118.34C116.526 99.7583 107.131 91.0555 93.0388 86.1161C92.0993 81.6472 87.4019 78.5895 81.9999 78.5895C76.5979 78.5895 71.9005 81.6472 70.961 86.1161C57.3385 90.5851 47.474 103.757 47.474 118.34ZM22.3429 35.311C22.3429 28.0195 28.2146 22.1392 35.4956 22.1392C42.7766 22.1392 40.4279 22.8449 42.5417 24.0209C35.4956 28.4899 29.1541 34.1349 23.7521 40.7208C23.0475 39.0743 22.5778 37.1926 22.5778 35.311H22.3429ZM16.4711 88.233C16.4711 51.7756 46.0648 22.6097 81.9999 22.6097C117.935 22.6097 147.529 52.0108 147.529 88.233C147.529 124.455 117.7 153.856 81.9999 153.856C46.2997 153.856 16.4711 124.22 16.4711 88.233ZM10.3646 35.311C10.3646 21.4336 21.6383 10.1436 35.4956 10.1436C49.3529 10.1436 49.1181 13.2013 53.8155 18.1407C51.9366 18.8463 50.2924 19.7872 48.6483 20.4928C45.1253 17.4351 40.4279 15.5534 35.4956 15.5534C24.4567 15.5534 16.0014 24.7265 16.0014 35.0757C16.0014 45.425 17.1758 43.0729 19.5245 46.1306C18.3501 47.777 17.4106 49.4235 16.4711 51.07C12.7132 46.601 10.5994 40.956 10.5994 34.8405L10.3646 35.311ZM0.734884 35.311C0.734884 44.9545 4.72763 54.3629 11.7737 60.9488C8.48555 69.4163 6.60663 78.5895 6.60663 88.233C6.60663 129.63 40.1931 163.5 81.9999 163.5C123.807 163.5 157.393 129.63 157.393 88.233C157.393 46.8362 155.514 69.1811 152.226 60.9488C159.272 54.3629 163.265 45.1897 163.265 35.311C163.265 16.0238 147.763 0.5 128.504 0.5C109.245 0.5 106.661 6.14501 100.085 15.083C94.2131 13.6717 88.1065 12.9661 81.765 12.9661C75.4235 12.9661 69.3169 13.6717 63.4451 15.083C57.1036 6.14501 46.5345 0.5 35.2607 0.5C16.2363 0.5 0.5 16.0238 0.5 35.311H0.734884ZM102.199 59.7727C107.131 59.7727 111.359 64.0065 111.359 69.1811C111.359 74.3557 107.131 78.3542 102.199 78.3542C97.2664 78.3542 92.8039 74.1205 92.8039 69.1811C92.8039 64.2417 97.0315 59.7727 102.199 59.7727Z" fill="black"/>
</svg>
