<svg width="92" height="93" viewBox="0 0 92 93" fill="none" xmlns="http://www.w3.org/2000/svg">
<path d="M22.8572 38.4792C21.972 40.9769 22.0194 42.9688 22.9994 43.949L55.9707 76.9261C56.0656 76.1356 56.3027 75.3452 56.5714 74.5231C57.7252 70.9978 60.191 67.2037 63.5102 63.9629C66.7505 60.6272 70.5439 58.1769 74.0686 57.0228C74.9064 56.7383 75.6967 56.517 76.4711 56.4221L43.5946 23.5399C42.5831 22.5281 40.5915 22.4807 37.9993 23.3027C35.0278 24.2829 31.7875 26.4487 28.8792 29.3733C25.9709 32.298 23.8371 35.4913 22.8572 38.495V38.4792Z" fill="#FFD200"/>
<path d="M4.98076 25.9269L7.25683 28.2034C7.99971 23.7611 11.2399 18.7972 14.8121 15.2402C18.0998 11.952 21.8458 9.50162 25.4179 8.30016C26.2556 8.0156 27.0459 7.84169 27.773 7.69942L25.4969 5.42295C22.6677 2.59318 14.7963 7.1303 10.7658 11.2564C6.78265 15.1453 2.15148 23.113 4.98076 25.9427V25.9269Z" fill="#FF8080"/>
<path d="M17.0723 32.7409C16.282 35.049 16.3294 36.9619 17.1197 38.0685L18.7477 39.6968C18.8426 38.9538 19.0797 38.1159 19.301 37.2939C20.5022 33.7685 22.9995 30.0218 26.2398 26.6862C29.8594 23.1608 35.0912 19.7778 39.2482 19.177L37.8572 17.8333C36.7982 16.8215 34.8067 16.6793 32.2935 17.5013C29.2904 18.5605 26.0027 20.6947 23.126 23.5719C20.2493 26.4491 18.1313 29.7373 17.0565 32.7409H17.0723ZM11.3663 27.0498C10.4812 29.5002 10.5286 31.4921 11.556 32.5196L12.9943 33.9582C13.832 29.3263 16.8826 24.552 20.5496 20.995C24.0743 17.4223 28.753 14.2763 33.5106 13.4385L32.167 12.0947C31.6138 11.5414 30.7287 11.2568 29.6697 11.2568C25.6866 11.2568 20.7393 14.5451 17.4042 17.8807C14.5275 20.7579 12.4095 23.9987 11.3821 27.0498H11.3663Z" fill="#666660"/>
<path d="M60.0327 80.9573L79.6164 85.8264L79.6638 85.6367C79.9484 84.4827 80.7702 83.3286 81.845 82.3011C82.8566 81.2419 84.0263 80.404 85.1801 80.1194L85.3698 80.072L80.4541 60.485C79.3477 59.742 77.53 59.742 75.2698 60.485C72.2192 61.5442 68.9789 63.6784 66.1023 66.5556C63.1781 69.4327 61.0601 72.7209 60.0327 75.7246C59.2899 78.0011 59.2899 79.8981 60.0327 80.9573Z" fill="white"/>
<path d="M22.8572 38.4794C21.9721 40.9772 22.0195 42.9691 22.9995 43.9492L55.9708 76.9263C56.0656 76.1359 56.3027 75.3454 56.5714 74.5234C57.7253 70.998 60.191 67.2039 63.5103 63.9631C66.7505 60.6274 70.544 58.1771 74.0687 57.0231C74.9064 56.7385 75.6967 56.5172 76.4712 56.4223L43.5947 23.5401C42.5831 22.5284 40.5915 22.4809 37.9994 23.303C35.0278 24.2831 31.7876 26.449 28.8793 29.3736C25.971 32.2982 23.8372 35.4916 22.8572 38.4952V38.4794ZM17.0722 32.7408C16.2819 35.0489 16.3293 36.9618 17.1196 38.0684L18.7476 39.6967C18.8425 38.9537 19.0796 38.1158 19.3009 37.2937C20.5021 33.7684 22.9994 30.0217 26.2397 26.6861C29.8593 23.1607 35.0911 19.7776 39.248 19.1769L37.8571 17.8332C36.7981 16.8214 34.8066 16.6791 32.2934 17.5012C29.2903 18.5604 26.0026 20.6946 23.1259 23.5717C20.2492 26.4489 18.1312 29.7371 17.0564 32.7408H17.0722ZM11.3662 27.0497C10.4811 29.5 10.5285 31.4919 11.5559 32.5195L12.9942 33.9581C13.8319 29.3261 16.8825 24.5519 20.5495 20.9949C24.0742 17.4221 28.7528 14.2762 33.5105 13.4383L32.1669 12.0946C31.6137 11.5413 30.7286 11.2567 29.6696 11.2567C25.6865 11.2567 20.7392 14.5449 17.4041 17.8806C14.5274 20.7578 12.4094 23.9986 11.382 27.0497H11.3662ZM4.9806 25.9272L7.25667 28.2037C7.99956 23.7614 11.2398 18.7975 14.8119 15.2405C18.0996 11.9523 21.8456 9.50195 25.4178 8.30048C26.2555 8.01592 27.0458 7.84202 27.7729 7.69974L25.4968 5.42327C22.6675 2.59351 14.7961 7.13062 10.7656 11.2567C6.7825 15.1457 2.15133 23.1133 4.9806 25.9431V25.9272ZM0.491699 24.2199C0.491699 18.3391 3.41579 13.3435 8.12599 8.61667C12.4252 4.31669 18.7318 0.933594 23.7739 0.933594C25.5284 0.933594 27.0616 1.77148 28.1206 2.83066L82.8568 57.5764C83.742 58.4617 83.9159 59.1098 84.1055 59.758L91.6134 89.8578C91.8979 91.0119 91.2498 92.1659 89.9537 92.1659C89.4479 92.1659 88.4206 91.834 87.1719 91.5178L59.4797 84.6568C58.4998 84.4196 57.8201 84.0086 56.8876 83.0759L14.9858 41.1669L14.7013 40.9298L14.3377 40.5187L2.38839 28.5673C1.28197 27.4607 0.491699 25.9747 0.491699 24.2199ZM60.033 80.9575L79.6166 85.8266L79.664 85.6369C79.9486 84.4829 80.7704 83.3288 81.8452 82.3013C82.8568 81.2421 84.0265 80.4042 85.1803 80.1197L85.37 80.0722L80.4544 60.4852C79.3479 59.7422 77.5302 59.7422 75.27 60.4852C72.2194 61.5444 68.9792 63.6786 66.1025 66.5558C63.1783 69.433 61.0603 72.7212 60.033 75.7248C59.2901 78.0013 59.2901 79.8983 60.033 80.9575Z" fill="black"/>
</svg>
