<svg width="148" height="160" viewBox="0 0 148 160" fill="none" xmlns="http://www.w3.org/2000/svg">
<path d="M64.1474 120.974C72.384 120.974 81.4654 116.163 89.2796 109.518L142.078 157.633C143.134 158.55 143.768 159.008 144.824 159.008C146.302 159.008 147.781 157.633 147.781 155.8C147.781 153.967 147.569 154.426 146.936 153.738L102.374 95.084C106.386 89.3561 109.343 83.6281 111.033 77.9002C112.089 74.2343 112.722 70.7975 112.722 67.8189C112.722 63.2366 111.244 59.3416 108.709 56.5922L96.6714 43.5324C94.137 40.783 90.5467 39.4083 86.1116 39.4083C81.6766 39.4083 80.1982 40.0957 77.0303 41.2413C76.1855 41.4704 75.5519 41.6995 74.7071 42.1577L52.5317 26.5777C53.1653 24.5156 53.3764 22.4536 53.3764 20.6206C53.3764 16.2674 52.1093 13.7471 50.4197 11.9141L42.3943 2.97851C40.2824 0.687326 37.3256 0 34.5801 0C27.1883 0 18.5293 5.95706 12.4046 12.3724C5.43522 19.9333 1.00012 28.4106 1.00012 36.888C1.00012 45.3654 2.0561 42.8451 3.74566 44.678L11.9823 53.6136C14.0942 55.9048 17.0509 56.8213 19.3741 56.8213C21.6972 56.8213 23.3868 56.5922 25.2875 55.9048L27.8219 60.0289C32.8906 68.2772 36.9032 74.9216 39.86 80.1913C39.6488 81.1078 39.4376 81.7952 39.0152 82.4825C37.9592 86.1484 37.3256 89.5852 37.3256 92.5637C37.3256 97.1461 38.3816 100.583 40.9159 103.332L53.1652 116.621C55.9108 119.6 59.7123 120.974 63.725 120.974H64.1474Z" fill="#E7401E"/>
<path d="M52.3763 108.127L56.389 112.48C57.6562 113.855 59.5569 114.771 62.3025 114.771C71.595 114.771 82.7884 106.752 90.3914 98.5041C93.7705 95.0673 96.516 91.1723 99.0504 87.2773C101.374 83.3823 103.063 79.7164 104.119 76.2796C104.964 73.5302 105.386 70.7808 105.386 68.4896C105.386 66.1984 104.753 62.9908 103.274 61.6161L99.2616 57.492C99.2616 60.0123 98.628 62.5326 97.7832 65.282C95.2489 73.7593 89.7578 82.4658 82.7884 90.2558C75.6077 98.0459 67.5824 103.774 59.7681 106.752C57.2338 107.669 54.6995 108.127 52.3763 108.356V108.127ZM42.239 92.547C42.239 95.5256 42.8726 97.8167 44.3509 99.4206C45.8293 101.024 47.9412 101.712 50.6868 101.712C53.4323 101.712 55.1218 101.254 57.8674 100.337C61.0353 99.1915 64.6256 97.3585 68.0047 94.8382C71.8062 92.3179 75.1853 89.1103 78.5645 85.4444C81.7324 81.7785 84.6891 78.1126 87.0123 73.9885C89.3354 70.0935 91.025 66.4276 92.081 62.9908C92.9257 60.2414 93.3481 57.492 93.3481 55.2008C93.3481 49.4728 90.6026 46.0361 85.3227 46.0361C80.0428 46.0361 81.7324 46.2651 79.8316 46.7234L82.9996 48.7855C85.3227 50.3893 86.8011 53.8261 86.8011 57.492C86.8011 65.282 81.7324 75.1341 75.3965 82.0076C69.2719 88.652 60.8241 94.6091 52.7987 94.6091C44.7733 94.6091 46.2517 93.0053 44.7733 90.485L42.6613 87.0482C42.239 88.8811 42.0278 90.7141 42.0278 92.3179L42.239 92.547ZM29.7785 53.8261L48.9972 86.1317C50.2644 88.1938 51.7427 88.4229 53.2211 88.4229C58.9234 88.4229 66.3152 83.1532 71.1727 77.8835C76.0301 72.6137 80.8876 64.3655 80.8876 58.4084C80.8876 52.4514 80.254 54.9716 79.1981 54.2843L48.9972 32.9763C46.8852 37.1004 43.9285 41.2246 40.7606 44.8905C37.5927 48.5564 33.7912 51.5349 29.7785 53.8261ZM13.9389 48.3272L15.206 49.7019C16.0508 50.6184 17.1068 51.0766 18.7963 51.0766C24.2874 51.0766 31.6792 46.036 36.7479 40.5372C41.3942 35.4966 46.4629 27.4775 46.4629 21.0622C46.4629 14.6468 46.0405 18.0836 45.4069 17.1672L44.1397 15.7924C42.8726 23.1242 38.4375 30.456 32.9464 36.4131C28.0889 41.9119 22.3866 45.8069 17.1068 47.6399C16.0508 48.0981 14.9948 48.3272 13.9389 48.5563V48.3272ZM5.91346 37.1004C5.91346 40.5372 7.39182 42.141 10.5597 42.141C13.7277 42.141 13.3053 41.9119 14.9948 41.2246C19.4299 39.6207 24.2874 36.184 28.5113 31.6016C33.1576 26.561 38.2263 18.5419 38.2263 12.1266C38.2263 5.71125 36.7479 6.85684 33.58 6.85684C27.6665 6.85684 20.4859 12.1266 15.6284 17.3963C10.7709 22.666 5.91346 30.6851 5.91346 36.8713V37.1004ZM0 37.5587C0 29.0813 4.43509 20.6039 11.4045 13.043C17.5292 6.39859 26.1882 0.670654 33.58 0.670654C40.9718 0.670654 39.2822 1.35802 41.3942 3.6492L49.4196 12.5848C51.1091 14.4177 52.3763 16.7089 52.3763 21.2913C52.3763 25.8737 52.1651 25.1863 51.5315 27.2483C51.1091 29.3104 50.2644 31.3725 49.2084 33.4346L46.8852 31.8307L48.5748 25.1863L80.0428 47.4107C79.198 47.4107 78.5645 47.869 77.7197 48.0981C77.0861 48.3272 76.4525 48.5563 75.8189 49.0146L70.5391 44.4322C71.595 43.974 72.651 43.2866 73.707 42.8284C74.5518 42.5993 75.1854 42.141 76.0301 41.9119C79.1981 40.7663 82.366 40.079 85.1115 40.079C89.3354 40.079 92.9257 41.4537 95.6713 44.2031L107.709 57.2628C110.244 60.0122 111.722 63.6781 111.722 68.4896C111.722 73.3011 111.088 74.9049 110.033 78.5708C108.343 84.2988 105.386 90.0267 101.374 95.7547L145.936 154.409C146.358 155.096 146.78 155.784 146.78 156.471C146.78 158.304 145.302 159.679 143.824 159.679C142.345 159.679 142.134 159.22 141.078 158.304L88.2794 110.189C80.4652 116.834 71.1726 121.645 63.1472 121.645C55.1218 121.645 55.333 120.27 52.5875 117.292L40.3382 104.003C37.8039 101.254 36.7479 97.5876 36.7479 93.2344C36.7479 88.8811 37.3815 86.8191 38.4375 83.1532L39.2822 80.862C39.9158 79.4873 40.5494 77.8835 41.183 76.5087L44.9845 83.1532C44.7733 83.8405 44.5621 84.5279 44.1397 85.2152C43.9285 86.1317 43.7173 86.8191 43.5061 87.7355L39.9158 81.7785L39.2822 80.862C36.3255 75.8214 32.3128 68.9479 27.2441 60.6996L24.7098 56.5755L22.809 53.3678L28.7225 51.5349L30.4121 54.2843C28.5113 55.4299 26.6105 56.1172 24.7098 56.8046C22.809 57.492 20.6971 57.7211 18.7963 57.7211C16.8956 57.7211 13.5165 56.8046 11.4045 54.5134L3.16792 45.5778C1.68956 43.7448 0.422383 41.4537 0.422383 37.7878L0 37.5587ZM99.2616 93.2344L100.951 95.2965C99.0504 98.0459 96.9384 100.566 94.6153 103.086C92.2921 105.607 90.1802 107.669 87.8571 109.502L85.5339 107.44L99.2616 93.0053V93.2344Z" fill="black"/>
</svg>
