<svg width="163" height="162" viewBox="0 0 163 162" fill="none" xmlns="http://www.w3.org/2000/svg">
<path d="M148.755 52.3934H152.492C152.024 50.9922 151.557 49.5911 151.09 48.19C150.623 49.5911 149.689 50.9922 148.755 52.3934ZM144.085 52.3934C144.552 53.561 145.019 54.9622 145.252 56.1298L147.354 53.094L144.085 52.1599V52.3934ZM107.188 10.3588C109.523 10.1253 111.391 9.65822 113.026 9.42469C118.397 8.72412 121.199 8.49059 127.504 8.49059C144.085 8.49059 152.959 21.101 152.959 35.1125C152.959 49.1241 152.725 43.9865 151.09 48.19C147.587 39.5495 141.282 30.909 132.642 22.9692C127.037 17.8316 120.031 12.6941 113.259 9.42469C106.487 6.15533 110.69 8.25706 109.289 7.55648L107.421 10.3588H107.188ZM103.218 8.72411L99.7147 11.76C101.116 12.227 102.517 12.694 103.685 13.1611C111.158 16.1969 119.564 21.568 126.57 28.1067C134.277 35.1125 141.049 43.753 144.085 52.6269C138.947 51.2258 133.109 48.8905 127.037 46.0882C118.63 42.1183 113.259 38.3819 110.223 35.346C108.589 33.7114 107.188 31.6096 106.02 27.6397C105.086 24.6039 104.385 19.9333 103.685 12.9276L103.218 8.49059V8.72411Z" fill="#7DBA32"/>
<path d="M113.026 9.42404C120.032 12.9269 126.804 17.8309 132.409 22.9685C141.049 30.9084 147.355 39.5488 150.858 48.1893C152.492 43.9858 152.726 39.3153 152.726 35.1119C152.726 21.1003 144.085 8.48993 127.271 8.48993C110.458 8.48993 118.164 8.48993 112.793 9.42404H113.026ZM103.919 12.9269C104.853 19.9327 105.554 24.6032 106.254 27.639C107.188 31.609 108.823 33.7107 110.458 35.3454C113.493 38.3812 118.865 42.1176 127.271 46.0876C133.11 48.8899 139.181 50.9916 144.319 52.6263C141.283 43.5188 134.744 35.1119 126.804 28.1061C119.565 21.5674 111.392 16.4298 103.919 13.1604V12.9269ZM81.5005 158.413C76.3629 158.413 69.1236 161.916 61.8843 161.916C27.3225 161.916 0 118.013 0 77.8471C0 37.6806 34.3283 8.95697 81.5005 8.95697H83.3687C86.638 4.75351 91.075 0.0830078 96.9131 0.0830078C102.751 0.0830078 102.518 1.01711 104.386 2.65179C112.326 1.25063 121.2 0.550052 127.739 0.550052C147.121 0.550052 160.199 16.8968 160.199 34.8783C160.199 52.8598 159.264 46.0876 156.929 51.4587C160.666 58.9315 162.767 67.1049 162.767 77.8471C162.767 116.846 134.744 161.916 100.883 161.916C67.0219 161.916 86.4045 158.413 81.2669 158.413H81.5005Z" fill="#40AC3F"/>
<path d="M79.3987 28.1062C80.7998 28.5732 82.4345 28.8067 84.0692 28.8067C85.7039 28.8067 87.5721 28.5732 89.2068 28.1062C89.9073 24.3698 92.7097 20.8669 96.6796 17.364V16.6634C95.979 12.46 95.2784 9.42412 95.2784 7.55591V7.08887C94.8114 7.32239 94.1108 7.5559 93.6438 8.02296C91.542 9.89116 86.8715 15.2623 84.7698 18.2981L82.6681 21.3339C80.7999 24.1362 79.6322 25.7709 79.3987 27.8726V28.1062Z" fill="#AC4417"/>
<path d="M113.026 9.42404C118.397 8.72346 121.199 8.48993 127.504 8.48993C144.084 8.48993 152.958 21.1003 152.958 35.1119C152.958 49.1234 152.725 43.9858 151.09 48.1893C147.587 39.5488 141.282 30.9084 132.642 22.9685C127.037 17.8309 120.031 12.6934 113.259 9.42404H113.026ZM103.918 12.9269C111.391 15.9628 119.798 21.3338 126.804 27.8725C134.51 34.8783 141.282 43.5188 144.318 52.3927C139.18 50.9916 133.342 48.6563 127.271 45.854C118.864 41.8841 113.493 38.1477 110.457 35.1119C108.822 33.4772 107.421 31.3754 106.253 27.4055C105.319 24.3697 104.619 19.6992 103.918 12.6934V12.9269ZM93.1759 81.1164C93.1759 76.6794 96.6788 73.1766 101.116 73.1766C105.553 73.1766 109.056 76.6794 109.056 81.1164C109.056 85.5534 105.553 89.0563 101.116 89.0563C96.6788 89.0563 93.1759 85.5534 93.1759 81.1164ZM79.3979 28.1061C79.6314 25.7708 80.799 24.1361 82.6672 21.5674L84.7689 18.5315C86.6372 15.4957 91.3077 10.1246 93.6429 8.25641C94.11 7.78936 94.577 7.55583 95.2776 7.3223V7.78934C95.2776 9.42402 95.9782 12.6934 96.6788 16.8969V17.5974C92.9424 21.1003 90.14 24.6032 89.4395 28.3396C87.8048 28.8067 86.1701 29.0402 84.3019 29.0402C82.4337 29.0402 81.0325 28.8067 79.6314 28.3396L79.3979 28.1061ZM67.2545 104.002C67.2545 111.708 73.5597 118.247 81.4996 118.247C89.4395 118.247 95.7446 111.942 95.7446 104.002C95.7446 96.0621 93.6429 99.0979 90.8406 99.0979C88.0383 99.0979 85.9366 101.2 85.9366 104.002C85.9366 106.804 83.8349 108.439 81.4996 108.439C79.1643 108.439 77.0626 106.337 77.0626 104.002C77.0626 101.667 74.9609 99.0979 72.1586 99.0979C69.3563 99.0979 67.2545 101.2 67.2545 104.002ZM53.71 81.1164C53.71 76.6794 57.2129 73.1766 61.6499 73.1766C66.0869 73.1766 69.5898 76.6794 69.5898 81.1164C69.5898 85.5534 66.0869 89.0563 61.6499 89.0563C57.2129 89.0563 53.71 85.5534 53.71 81.1164ZM9.80721 78.0806C9.80721 42.8182 39.932 20.6333 76.5956 18.9986C75.1944 21.1003 74.0268 22.9685 73.5597 25.0702C73.0927 24.6032 72.1586 24.1361 71.458 24.1361C69.5898 24.1361 68.1886 25.5373 68.1886 27.4055C68.1886 31.609 78.4638 35.3454 84.3019 35.3454C90.14 35.3454 96.4452 33.2436 99.2475 30.2078C100.415 34.4113 102.05 38.1477 104.619 40.7165C108.122 44.4529 115.594 48.8899 124.468 53.0933C131.474 56.3627 145.486 61.7338 149.689 61.7338C153.893 61.7338 150.623 61.7338 151.09 61.5003C152.725 66.1708 153.659 71.3083 153.659 78.0806C153.659 111.241 129.372 152.342 101.583 152.342C73.7932 152.342 88.2718 148.839 81.9666 148.839C75.6615 148.839 67.9551 152.342 62.3505 152.342C33.6268 152.342 10.2743 111.942 10.2743 78.0806H9.80721ZM81.4996 158.413C86.6372 158.413 94.577 161.916 101.116 161.916C134.743 161.916 163 116.846 163 77.8471C163 38.8483 160.898 58.9315 157.162 51.4587C159.264 46.0876 160.431 40.4829 160.431 34.8783C160.431 16.8968 147.354 0.550052 127.971 0.550052C108.589 0.550052 112.559 1.25063 104.619 2.65179C102.75 1.01711 99.9481 0.0830078 97.1458 0.0830078C91.0742 0.0830078 86.6372 4.75351 83.6013 8.95697H81.7331C34.5609 8.95697 0.232666 38.1477 0.232666 77.8471C0.232666 117.546 27.3216 161.916 62.117 161.916C96.9123 161.916 76.5955 158.413 81.7331 158.413H81.4996Z" fill="black"/>
</svg>
