<svg width="181" height="194" viewBox="0 0 181 194" fill="none" xmlns="http://www.w3.org/2000/svg">
<path d="M42.5729 194H17.5059C15.157 194 13.2118 192.055 13.2118 189.815V164.634C13.2118 162.285 15.157 160.449 17.5059 160.449H38.4624L38.3523 109.572H34.0582V137.654C34.0582 139.93 32.113 141.838 29.8742 141.838H4.62366C2.27477 141.838 0.439693 139.893 0.439693 137.654L0.32959 80.1325C0.32959 78.187 1.94445 75.9479 4.62366 75.9479H13.3219V53.9966C13.3219 51.7207 15.2671 49.8119 17.5059 49.8119H38.3523V33.5871H17.3958C15.0469 33.5871 13.1017 31.7517 13.1017 29.4024V4.22082C13.1017 1.94494 15.0469 0.0361328 17.3958 0.0361328H42.4628C44.8117 0.0361328 46.7569 1.98165 46.7569 4.22082V25.0708H67.7134C70.0623 25.0708 72.0075 27.0164 72.0075 29.3657V49.922H109.516V29.4758C109.516 27.1265 111.462 25.2911 113.7 25.2911H134.547V4.33095C134.547 2.05506 136.492 0.146257 138.731 0.146257H163.908C166.257 0.146257 168.092 2.09177 168.092 4.33095V29.5125C168.092 31.8618 166.257 33.6972 163.908 33.6972H142.951L143.061 49.8119H163.798C166.147 49.8119 167.982 51.7574 167.982 53.9966V75.9479H176.46C178.809 75.9479 180.644 77.7832 180.644 80.1325L180.754 137.544C180.754 139.893 178.699 141.838 176.57 141.838H151.503C149.154 141.838 147.319 139.893 147.319 137.654V109.682H143.025V160.449H163.761C166.11 160.449 168.055 162.285 168.055 164.634V189.815C168.055 192.091 166.11 194 163.761 194H138.694C136.345 194 134.4 192.055 134.4 189.815V168.855H113.003C110.654 168.855 108.819 167.02 108.819 164.671V155.09H72.1543V164.671C72.1543 167.02 70.2091 168.855 67.9703 168.855H46.7936V189.815C46.7936 192.091 44.8484 194 42.4995 194H42.5729Z" fill="#EC00FF"/>
<path d="M142.988 25.255V8.58962H159.761V25.255H142.988ZM142.988 185.484V168.819H159.651V185.484H142.988ZM109.003 86.2266C109.003 88.5759 110.948 90.5214 113.187 90.5214H119.206C121.554 90.5214 123.5 88.5759 123.5 86.2266V80.2065C123.5 77.8572 121.554 76.0218 119.206 76.0218H113.187C110.911 76.0218 109.003 77.8572 109.003 80.2065V86.2266ZM79.1276 107.517C79.1276 104.948 81.0727 103.002 83.4216 103.002C85.7705 103.002 87.0918 104.727 87.6056 106.673C87.9359 107.737 88.6699 108.178 90.2848 108.178C91.8997 108.178 92.6337 107.737 92.964 106.673C93.5145 104.727 94.9092 103.002 97.148 103.002C99.3868 103.002 101.442 104.948 101.442 107.517C101.442 112.693 96.0836 116.657 90.2481 116.657C84.4126 116.657 79.0542 112.693 79.0542 107.517H79.1276ZM54.0605 86.2266C54.0605 88.5759 56.0057 90.5214 58.2444 90.5214H64.3736C66.6491 90.5214 68.5576 88.5759 68.5576 86.2266V80.2065C68.5576 77.8572 66.6124 76.0218 64.3736 76.0218H58.2444C55.969 76.0218 54.0605 77.8572 54.0605 80.2065V86.2266ZM21.6898 185.484V168.819H38.3523V185.484H21.6898ZM21.5797 25.1448V8.36938H38.2422V25.1448H21.5797ZM8.80762 133.323V84.2811H17.5059C19.8548 84.2811 21.7999 82.4457 21.7999 80.0964V58.2553H42.5362C44.8851 58.2553 46.7202 56.3098 46.7202 53.9605L46.8303 33.5142H63.4928V54.0706C63.4928 56.4199 65.4379 58.2553 67.6767 58.2553H113.7C116.049 58.2553 117.994 56.4199 117.994 54.0706V33.6243H134.547V53.9605C134.547 56.3098 136.492 58.2553 138.731 58.2553H159.577V80.0964C159.577 82.4457 161.522 84.2811 163.761 84.2811H172.239V133.323H155.687V105.461C155.687 103.112 153.852 101.277 151.503 101.277H138.694C136.419 101.277 134.51 103.112 134.51 105.461V160.413H117.187V150.832C117.187 148.483 115.352 146.648 113.003 146.648L67.9336 146.538C65.6581 146.538 63.6396 148.483 63.6396 150.722V160.413H46.7569L46.6468 105.351C46.6468 103.002 44.8117 101.167 42.4628 101.167H29.7641C27.4153 101.167 25.4701 103.002 25.4701 105.351V133.323H8.69752H8.80762ZM17.3958 33.5509H38.3523V49.7758H17.5059C15.2304 49.7758 13.3219 51.7213 13.3219 53.9605V75.9117H4.62366C1.94445 75.9117 0.32959 78.1876 0.32959 80.0964L0.439693 137.618C0.439693 139.893 2.27477 141.802 4.62366 141.802H29.8742C32.1497 141.802 34.0582 139.857 34.0582 137.618V109.536H38.3523L38.4624 160.413H17.5059C15.157 160.413 13.2118 162.248 13.2118 164.598V189.779C13.2118 192.055 15.157 193.964 17.5059 193.964H42.5729C44.9218 193.964 46.867 192.018 46.867 189.779V168.819H68.0437C70.3192 168.819 72.2277 166.984 72.2277 164.634V155.054H108.892V164.634C108.892 166.984 110.728 168.819 113.076 168.819H134.473V189.779C134.473 192.055 136.419 193.964 138.767 193.964H163.834C166.183 193.964 168.129 192.018 168.129 189.779V164.598C168.129 162.248 166.183 160.413 163.834 160.413H143.098V109.646H147.392V137.618C147.392 139.893 149.227 141.802 151.576 141.802H176.643C178.809 141.802 180.827 139.857 180.827 137.507L180.717 80.0964C180.717 77.7471 178.882 75.9117 176.533 75.9117H168.055V53.9605C168.055 51.6846 166.22 49.7758 163.871 49.7758H143.135L143.025 33.661H163.981C166.33 33.661 168.165 31.8257 168.165 29.4764V4.29481C168.165 2.01893 166.33 0.110124 163.981 0.110124H138.804C136.529 0.110124 134.62 2.05564 134.62 4.29481V25.255H113.774C111.498 25.255 109.59 27.0904 109.59 29.4397V49.8859H72.0809V29.3295C72.0809 26.9802 70.1357 25.0347 67.7868 25.0347H46.8303V4.18469C46.8303 1.90881 44.8851 0 42.5362 0H17.4692C15.1203 0 13.1751 1.94551 13.1751 4.18469V29.3662C13.1751 31.7155 15.1203 33.5509 17.4692 33.5509H17.3958Z" fill="black"/>
</svg>
