<svg width="111" height="96" viewBox="0 0 111 96" fill="none" xmlns="http://www.w3.org/2000/svg">
<path d="M55.503 95.4072C72.2831 95.4072 87.1603 86.5849 95.4638 73.4377C101.864 72.2268 109.476 66.8641 109.476 56.4848C109.476 46.1055 105.324 42.2997 102.21 36.7641C107.4 32.9583 110.168 27.0769 110.168 20.6763C110.168 9.60503 101.345 0.436523 89.9281 0.436523C78.5107 0.436523 80.0676 2.3394 76.2618 5.62617C70.0342 2.51238 62.9416 0.782627 55.33 0.782627C47.7184 0.782627 40.7988 2.51238 34.3982 5.62617C30.7654 2.3394 25.9216 0.436523 20.9049 0.436523C9.48752 0.436523 0.665039 9.60503 0.665039 20.6763C0.665039 31.7475 3.60583 32.9583 8.62256 36.7641C5.33574 42.2997 1.35699 47.8354 1.35699 56.4848C1.35699 65.1342 8.79559 72.2268 15.3692 73.4377C23.8458 86.5849 38.5499 95.4072 55.33 95.4072H55.503Z" fill="#AC4300"/>
<path d="M88.5444 14.2755C88.8904 14.2755 89.4093 14.2755 89.9283 14.2755C93.5611 14.2755 96.5019 17.0434 96.5019 20.8491C96.5019 24.6549 96.329 22.752 95.81 23.6169C93.7341 20.3301 91.3122 17.2164 88.5444 14.6216V14.2755ZM61.5578 42.4727C61.5578 41.9537 61.9038 41.4348 62.5958 41.4348C63.2878 41.4348 63.6338 41.6078 64.6717 42.2997L78.3379 51.8141C78.6839 52.1601 79.0299 52.3329 79.3759 52.3329C80.5868 52.3329 81.4517 51.2951 81.4517 50.0842C81.4517 48.8733 81.1058 48.7003 80.5868 48.3543L66.2286 38.4939C63.9797 36.937 63.1147 35.7261 63.1147 34.8611C63.1147 33.9962 63.6337 33.8233 64.1527 33.8233C64.6717 33.8233 65.5366 34.1691 66.9206 35.0341L82.3167 45.2404C82.6627 45.4134 83.0087 45.5866 83.3547 45.5866C84.3926 45.5866 85.4306 44.8945 85.4306 43.5106C85.4306 42.1267 85.0846 42.1267 84.3926 41.6077L72.4563 33.6503C70.7264 32.4394 70.0344 31.5745 70.0344 30.8825C70.0344 30.1906 70.0344 29.8444 71.0723 29.8444C72.1103 29.8444 74.7051 31.0555 76.262 31.9204L88.3714 39.3588C90.4473 40.5697 91.4852 41.4348 92.6961 41.4348C93.9071 41.4348 94.599 40.5699 94.599 39.532C94.599 38.494 94.599 38.667 93.9071 37.8021C92.3502 35.5532 91.1392 31.7475 91.1392 29.1527C91.1392 26.5578 91.6582 27.4228 92.3502 27.4228C93.3881 27.4228 94.08 29.4986 95.118 31.9204C98.5778 40.7428 105.324 45.5864 105.324 56.6576C105.324 67.7289 99.0968 69.4588 92.6961 69.4588C86.2955 69.4588 81.9707 67.0371 76.262 63.0583L66.9206 56.4847C65.0177 55.1008 63.1147 53.717 63.1147 52.679C63.1147 51.6411 63.4607 51.6411 64.1527 51.6411C64.8447 51.6411 65.5366 51.987 66.5746 52.852L74.1862 58.0416C74.5322 58.2146 74.8781 58.3875 75.2241 58.3875C76.435 58.3875 77.3 57.3497 77.3 56.1388C77.3 54.9279 76.954 54.7549 76.435 54.4089L63.9797 45.7595C62.2498 44.5486 61.3848 43.5106 61.3848 42.6456L61.5578 42.4727ZM39.761 64.4421L44.4318 61.5014C44.9508 67.21 49.6215 70.6699 55.5032 70.6699C61.3849 70.6699 66.2286 67.0371 66.5746 61.3284L71.4183 64.4421C71.4183 73.0915 64.3257 80.0111 55.6762 80.0111C47.0267 80.0111 39.934 73.0915 39.934 64.4421H39.761ZM14.5045 20.6762C14.5045 17.0434 17.4453 14.1025 21.0781 14.1025C24.7109 14.1025 21.943 14.1025 22.462 14.1025C19.6941 16.8704 17.2723 19.8113 15.1964 23.0981C14.8504 22.2331 14.6774 21.3682 14.6774 20.5032L14.5045 20.6762ZM5.68194 56.4847C5.68194 45.2404 12.6015 40.3969 15.8884 31.7475C16.9263 29.3256 17.7913 27.2496 18.6562 27.2496C19.5212 27.2496 19.6942 27.7686 19.6942 28.9795C19.6942 31.2283 18.4832 35.3801 16.9263 37.6289C16.2344 38.4939 16.2344 39.0128 16.2344 39.3588C16.2344 40.3967 17.2723 41.2618 18.1372 41.2618C19.0022 41.2618 20.3861 40.3968 22.462 39.1859L34.5713 31.7475C36.1282 30.8825 38.5501 29.6715 39.761 29.6715C40.972 29.6715 40.799 30.3634 40.799 30.7094C40.799 31.4013 40.107 32.4394 38.3771 33.4774L26.4408 41.4348C25.7488 41.7808 25.4028 42.4727 25.4028 43.3376C25.4028 44.7215 26.6138 45.4134 27.4788 45.4134C28.3437 45.4134 28.1707 45.4135 28.5167 45.0675L43.9128 34.8611C45.2968 33.9962 46.1617 33.6503 46.6807 33.6503C47.1996 33.6503 47.7186 33.9962 47.7186 34.6882C47.7186 35.5531 46.8537 36.591 44.6048 38.3209L30.2466 48.1814C29.7276 48.5274 29.3816 49.2193 29.3816 49.9113C29.3816 51.1222 30.4196 52.16 31.4575 52.16C32.4955 52.16 32.1495 52.1601 32.4955 51.6411L46.1617 42.1268C47.0267 41.4348 47.5456 41.2618 48.2376 41.2618C48.9296 41.2618 49.2755 41.7808 49.2755 42.2997C49.2755 43.1647 48.4106 44.2025 46.6807 45.4134L34.2254 54.0628C33.5334 54.4088 33.3604 55.1007 33.3604 55.7927C33.3604 57.0036 34.2253 58.0416 35.4363 58.0416C36.6472 58.0416 36.3012 58.0417 36.4742 57.6957L44.0858 52.5061C45.1237 51.8141 45.8157 51.295 46.5077 51.295C47.1997 51.295 47.5456 51.641 47.5456 52.3329C47.5456 53.3709 45.6427 54.5819 43.7398 56.1388L34.3984 62.7122C28.6897 66.691 23.5 69.1129 17.9643 69.1129C12.4286 69.1129 5.33594 63.9232 5.33594 56.3117L5.68194 56.4847ZM28.6897 30.3635C31.1115 24.8279 36.6472 21.195 43.0479 21.195C49.4485 21.195 50.8325 22.5791 53.2543 24.8279C53.9463 25.5199 54.6382 26.0388 55.3302 26.0388C56.0221 26.0388 56.3681 25.6928 57.2331 25.0009C59.8279 22.752 63.6337 21.195 67.6125 21.195C74.0132 21.195 79.3759 25.0008 81.7978 30.3635C80.0678 29.1526 78.6839 28.4605 78.1649 28.1146C75.9161 26.9036 72.9752 25.6929 70.7264 25.6929C68.4775 25.6929 66.0556 27.7686 66.0556 30.7094C65.1907 30.1904 64.3257 29.8444 63.2877 29.8444C60.5199 29.8444 58.617 31.7475 58.617 34.3423C58.617 36.9371 59.309 36.9371 60.3469 37.975C58.79 38.84 57.2331 40.3967 57.2331 42.8186C57.2331 45.2404 57.4061 44.3755 57.925 45.0675C57.0601 45.5865 56.5411 46.4515 56.5411 47.3164C56.5411 48.8733 57.9251 50.0842 59.309 50.0842H59.8279C59.482 50.7762 59.136 51.6411 59.136 52.5061C59.136 55.1009 60.6929 57.1767 62.7688 58.9066C61.2119 60.2905 59.136 61.6743 55.3302 61.6743C51.5244 61.6743 49.6215 60.2905 48.0646 58.9066C50.3135 57.1767 51.8704 54.9278 51.8704 52.3329C51.8704 49.7381 51.6974 50.6032 51.1784 49.9113H51.5244C53.0813 49.9113 54.2923 48.7003 54.2923 47.3164C54.2923 45.9325 53.7733 45.4135 52.9083 45.0675C53.2543 44.3755 53.6003 43.5105 53.6003 42.8186C53.6003 40.5697 52.2164 38.84 50.4865 37.975C51.3514 36.9371 52.2164 35.7262 52.2164 34.3423C52.2164 31.7475 50.3134 29.8444 47.5456 29.8444C44.7778 29.8444 45.6427 30.1904 44.7778 30.7094C44.7778 27.7686 42.8749 25.6929 40.107 25.6929C37.3392 25.6929 34.9173 27.0766 32.6685 28.1146C32.1495 28.2875 30.5926 29.1526 28.8627 30.3635H28.6897Z" fill="#FFCCCC"/>
<path d="M88.5442 14.2756C89.0631 14.2756 89.4091 14.2756 89.9281 14.2756C93.5609 14.2756 96.5018 17.0435 96.5018 20.8492C96.5018 24.655 96.3287 22.7521 95.9827 23.4441C93.9069 20.1573 91.485 17.0436 88.7172 14.4488L88.5442 14.2756ZM82.4895 9.2591C84.7384 7.87519 87.1602 7.01017 89.9281 7.01017C97.1937 7.01017 103.594 13.0648 103.594 20.6763C103.594 28.2878 102.037 27.9417 99.4426 30.5365C99.0966 29.6716 98.7506 28.6337 98.2317 27.7688C99.7886 25.8659 100.827 23.4441 100.827 20.6763C100.827 14.6217 95.9827 9.77794 89.9281 9.77794C83.8734 9.77794 86.2953 10.124 84.9114 10.989C84.0464 10.297 83.3545 9.77806 82.4895 9.2591ZM61.5577 42.4728C61.5577 41.9538 61.9036 41.4349 62.5956 41.4349C63.2876 41.4349 63.6336 41.6079 64.6715 42.2998L78.3378 51.8142C78.6837 52.1602 79.0297 52.333 79.3757 52.333C80.5866 52.333 81.4516 51.2952 81.4516 50.0843C81.4516 48.8734 81.1056 48.7004 80.5866 48.3544L66.2284 38.494C63.9795 36.9371 63.1146 35.7262 63.1146 34.8613C63.1146 33.9963 63.6335 33.8234 64.1525 33.8234C64.6715 33.8234 65.5364 34.1693 66.9204 35.0342L82.3165 45.2406C82.6625 45.4135 83.0085 45.5867 83.3545 45.5867C84.3924 45.5867 85.4304 44.8946 85.4304 43.5107C85.4304 42.1268 85.0844 42.1268 84.3924 41.6078L72.4561 33.6504C70.7262 32.4395 70.0342 31.5746 70.0342 30.8826C70.0342 30.1907 70.0342 29.8445 71.0721 29.8445C72.1101 29.8445 74.7049 31.0556 76.2618 31.9205L88.3712 39.3589C90.4471 40.5698 91.485 41.4349 92.6959 41.4349C93.9069 41.4349 94.5988 40.57 94.5988 39.5321C94.5988 38.4941 94.5989 38.6671 93.9069 37.8022C92.35 35.5533 91.139 31.7476 91.139 29.1528C91.139 26.5579 91.658 27.4229 92.35 27.4229C93.3879 27.4229 94.0799 29.4987 95.1178 31.9205C98.5776 40.7429 105.324 45.5865 105.324 56.6577C105.324 67.729 99.0966 69.4589 92.6959 69.4589C86.2953 69.4589 81.9705 67.0372 76.2618 63.0584L66.9204 56.4848C65.0175 55.1009 63.1146 53.7171 63.1146 52.6791C63.1146 51.6412 63.4606 51.6413 64.1525 51.6413C64.8445 51.6413 65.5364 51.9871 66.5744 52.8521L74.186 58.0417C74.532 58.2147 74.8779 58.3876 75.2239 58.3876C76.4348 58.3876 77.2998 57.3498 77.2998 56.1389C77.2998 54.928 76.9538 54.755 76.4348 54.409L63.9795 45.7596C62.2496 44.5487 61.3847 43.5107 61.3847 42.6457L61.5577 42.4728ZM28.6895 30.3636C31.1113 24.828 36.6471 21.1951 43.0477 21.1951C49.4484 21.1951 50.8323 22.5792 53.2541 24.8281C53.9461 25.52 54.638 26.0389 55.33 26.0389C56.0219 26.0389 56.3679 25.693 57.2329 25.001C59.8278 22.7522 63.6335 21.1951 67.6123 21.1951C74.013 21.1951 79.3757 25.001 81.7976 30.3636C80.0677 29.1527 78.6837 28.4606 78.1647 28.1147C75.9159 26.9037 72.9751 25.693 70.7262 25.693C68.4773 25.693 66.0554 27.7687 66.0554 30.7095C65.1905 30.1905 64.3255 29.8445 63.2876 29.8445C60.5197 29.8445 58.6168 31.7476 58.6168 34.3424C58.6168 36.9372 59.3088 36.9372 60.3468 37.9751C58.7898 38.8401 57.2329 40.3968 57.2329 42.8187C57.2329 45.2405 57.4059 44.3757 57.9248 45.0676C57.0599 45.5866 56.5409 46.4516 56.5409 47.3165C56.5409 48.8734 57.9249 50.0843 59.3088 50.0843C60.6927 50.0843 59.6548 50.0843 59.8278 50.0843C59.4818 50.7763 59.1358 51.6413 59.1358 52.5062C59.1358 55.101 60.6927 57.1768 62.7686 58.9067C61.2117 60.2906 59.1358 61.6745 55.33 61.6745C51.5242 61.6745 49.6213 60.2906 48.0644 58.9067C50.3133 57.1768 51.8702 54.9279 51.8702 52.333C51.8702 49.7382 51.6972 50.6033 51.1782 49.9114H51.5242C53.0811 49.9114 54.2921 48.7005 54.2921 47.3165C54.2921 45.9326 53.7731 45.4136 52.9081 45.0676C53.2541 44.3757 53.6001 43.5106 53.6001 42.8187C53.6001 40.5698 52.2162 38.8401 50.4863 37.9751C51.3512 36.9372 52.2162 35.7263 52.2162 34.3424C52.2162 31.7476 50.3133 29.8445 47.5454 29.8445C44.7776 29.8445 45.6426 30.1905 44.7776 30.7095C44.7776 27.7687 42.8747 25.693 40.1068 25.693C37.339 25.693 34.9172 27.0767 32.6683 28.1147C32.1493 28.2877 30.5924 29.1527 28.8625 30.3636H28.6895ZM22.8078 73.0916C27.1326 72.0537 31.4573 69.8049 35.6091 67.037C36.993 76.7244 45.6425 84.1629 55.503 84.1629C65.3634 84.1629 74.013 76.7244 75.3969 67.037C79.5487 69.6319 83.8734 72.0537 88.1982 73.0916C80.5866 82.952 68.4773 89.5255 55.503 89.5255C42.5287 89.5255 30.2464 82.952 22.8078 73.0916ZM22.2888 23.79C29.9004 13.4107 42.1827 6.83722 55.503 6.83722C68.8233 6.83722 81.4516 13.4107 88.7172 23.79C87.6792 24.8279 87.3332 26.5579 87.3332 28.6337C87.3332 30.7096 88.0252 32.7854 88.7172 35.0342C88.1982 34.6882 87.8522 34.3423 87.3332 33.9963C85.9493 24.136 77.8188 17.0436 67.9583 17.0436C58.0979 17.0436 59.1358 18.6005 55.676 21.3683C52.0432 18.6005 47.8914 17.0436 43.3937 17.0436C33.3602 17.0436 25.4027 24.4819 24.0188 34.1693C23.4998 34.5152 23.1538 34.8614 22.6348 35.2074C23.3268 32.9585 24.0188 30.7095 24.0188 28.8067C24.0188 26.9038 23.4998 25.001 22.6348 24.1361L22.2888 23.79ZM14.5043 20.6763C14.5043 17.0435 17.4451 14.1026 21.0779 14.1026C24.7107 14.1026 21.9428 14.1026 22.4618 14.1026C19.6939 16.8705 17.2721 19.9843 15.1962 23.2711C14.8502 22.4062 14.5043 21.5413 14.5043 20.5033V20.6763ZM7.41166 20.6763C7.41166 12.8918 13.8123 7.01017 21.0779 7.01017C28.3435 7.01017 26.2676 7.7022 28.5165 9.2591C27.8245 9.95105 26.9596 10.47 26.0946 11.1619C24.7107 10.297 22.9808 9.95088 21.0779 9.95088C15.0232 9.95088 10.1795 14.7946 10.1795 20.8492C10.1795 26.9038 11.2175 26.0388 12.7744 27.9417C12.2554 28.8067 11.9094 29.8445 11.5634 30.7095C8.96856 28.2877 7.41166 24.6549 7.41166 21.0222V20.6763ZM5.68175 56.4848C5.68175 45.2406 12.6014 40.397 15.8882 31.7476C16.9261 29.3258 17.7911 27.2497 18.656 27.2497C19.521 27.2497 19.694 27.7687 19.694 28.9796C19.694 31.2285 18.483 35.3802 16.9261 37.629C16.2342 38.494 16.2342 39.0129 16.2342 39.3589C16.2342 40.3968 17.2721 41.262 18.137 41.262C19.002 41.262 20.3859 40.3969 22.4618 39.186L34.5711 31.7476C36.128 30.8826 38.5499 29.6716 39.7608 29.6716C40.9718 29.6716 40.7988 30.3635 40.7988 30.7095C40.7988 31.4014 40.1068 32.4395 38.3769 33.4775L26.4406 41.4349C25.7486 41.7809 25.4027 42.4728 25.4027 43.3377C25.4027 44.7216 26.6136 45.4135 27.4786 45.4135C28.3435 45.4135 28.1705 45.4136 28.5165 45.0676L43.9127 34.8613C45.2966 33.9963 46.1615 33.6504 46.6805 33.6504C47.1994 33.6504 47.7184 33.9964 47.7184 34.6883C47.7184 35.5532 46.8535 36.5911 44.6046 38.321L30.2464 48.1815C29.7274 48.5275 29.3814 49.2194 29.3814 49.9114C29.3814 51.1223 30.4194 52.1601 31.4573 52.1601C32.4953 52.1601 32.1493 52.1602 32.4953 51.6413L46.1615 42.1269C47.0265 41.4349 47.5455 41.262 48.2374 41.262C48.9294 41.262 49.2753 41.7809 49.2753 42.2998C49.2753 43.1648 48.4104 44.2026 46.6805 45.4135L34.2252 54.0629C33.5332 54.4089 33.3602 55.1009 33.3602 55.7928C33.3602 57.0037 34.2252 58.0417 35.4361 58.0417C36.647 58.0417 36.301 58.0418 36.474 57.6958L44.0856 52.5062C45.1236 51.8142 45.8156 51.2952 46.5075 51.2952C47.1995 51.2952 47.5454 51.6411 47.5454 52.333C47.5454 53.371 45.6426 54.582 43.7397 56.1389L34.3982 62.7123C28.6895 66.6911 23.4998 69.113 17.9641 69.113C12.4284 69.113 5.33575 63.9233 5.33575 56.3119L5.68175 56.4848ZM0.837987 20.6763C0.837987 27.0769 3.77884 32.9583 8.79556 36.7641C5.50874 42.2997 1.52999 47.8354 1.52999 56.4848C1.52999 65.1342 8.96854 72.2268 15.5422 73.4377C24.0187 86.5849 38.7229 95.4072 55.503 95.4072C72.2831 95.4072 87.1603 86.5849 95.4638 73.4377C101.864 72.2268 109.476 66.8641 109.476 56.4848C109.476 46.1055 105.324 42.2997 102.21 36.7641C107.4 32.9583 110.168 27.0769 110.168 20.6763C110.168 9.60503 101.345 0.436523 89.9281 0.436523C78.5107 0.436523 80.0676 2.3394 76.2618 5.62617C70.0342 2.51238 62.9416 0.782627 55.33 0.782627C47.7184 0.782627 40.7988 2.51238 34.3982 5.62617C30.7654 2.3394 25.9216 0.436523 20.9049 0.436523C9.48752 0.436523 0.665039 9.60503 0.665039 20.6763H0.837987ZM55.33 70.67C61.2117 70.67 66.0554 67.0372 66.4014 61.3286L71.2451 64.4422C71.2451 73.0916 64.1525 80.0112 55.503 80.0112C46.8535 80.0112 39.7608 73.0916 39.7608 64.4422L44.4316 61.5015C44.9506 67.2101 49.6213 70.67 55.503 70.67H55.33Z" fill="black"/>
</svg>
