<svg width="93" height="92" viewBox="0 0 93 92" fill="none" xmlns="http://www.w3.org/2000/svg">
<path d="M46.5551 91.4581C71.7025 91.4581 92.1713 70.9857 92.1713 45.834C92.1713 20.6823 71.7025 0.209961 46.5551 0.209961C21.4078 0.209961 0.938965 20.6823 0.938965 45.834C0.938965 70.9857 21.4078 91.4581 46.5551 91.4581Z" fill="#FF3801"/>
<path d="M58.8364 52.5527C58.8364 50.9719 60.0377 49.6755 61.6183 49.6755C62.3137 49.6755 63.0566 50.0075 63.6098 50.5608C65.3643 52.6001 67.83 53.8016 70.7383 53.8016C73.4728 53.8016 74.8163 52.7899 74.8163 51.1616C74.8163 49.6755 73.8838 48.98 71.9396 48.6164L66.9449 47.6046C62.1241 46.6719 59.6741 44.2689 59.6741 39.8741C59.6741 34.7362 63.7521 31.3058 70.1377 31.3058C73.7889 31.3058 76.5708 32.5073 78.4675 33.7087C80.0955 34.8153 80.9174 36.3961 80.9174 37.8822C80.9174 39.463 79.9375 40.712 78.3727 40.712C77.4401 40.712 76.5234 40.4748 75.7331 39.7002C74.437 38.3565 72.2557 36.9179 69.5213 36.9179C67.2926 36.9179 65.8701 37.7083 65.8701 39.3208C65.8701 40.9333 66.9291 41.5024 69.0155 41.9135L73.8363 42.9252C78.183 43.9053 81.0597 45.8499 81.0597 50.6083C81.0597 56.0307 76.7604 59.3663 70.2642 59.3663C66.2811 59.3663 63.4518 58.3545 61.2389 56.6788C59.6583 55.5722 58.8364 54.0388 58.8364 52.5527ZM39.7111 45.3281C39.7111 50.0549 42.2085 53.3906 45.7332 53.3906C49.258 53.3906 51.7079 50.0549 51.7079 45.3281C51.7079 40.6013 49.2106 37.3131 45.7332 37.3131C42.2559 37.3131 39.7111 40.6013 39.7111 45.3281ZM33.7365 45.3281C33.7365 37.1234 38.6047 31.2899 45.7332 31.2899C52.8617 31.2899 57.6826 37.1234 57.6826 45.3281C57.6826 53.5329 52.7669 59.3663 45.7332 59.3663C38.6995 59.3663 33.7365 53.5803 33.7365 45.3281ZM10.1539 52.5527C10.1539 50.9719 11.4025 49.6755 12.9357 49.6755C13.6786 49.6755 14.3741 50.0075 14.9273 50.5608C16.6818 52.6001 19.1475 53.8016 22.0558 53.8016C24.7428 53.8016 26.1812 52.7899 26.1812 51.1616C26.1812 49.6755 25.2012 48.98 23.3045 48.6164L18.3098 47.6046C13.4889 46.6719 10.9916 44.2689 10.9916 39.8741C10.9916 34.7362 15.0695 31.3058 21.4552 31.3058C25.1064 31.3058 27.9356 32.5073 29.785 33.7087C31.413 34.8153 32.2349 36.3961 32.2349 37.8822C32.2349 39.463 31.2549 40.712 29.6901 40.712C28.7576 40.712 27.8408 40.5223 27.0505 39.7002C25.8018 38.4039 23.6206 36.9179 20.8862 36.9179C18.6575 36.9179 17.1876 37.7083 17.1876 39.3208C17.1876 40.9333 18.294 41.5024 20.333 41.9135L25.1538 42.9252C29.5004 43.9053 32.3771 45.8499 32.3771 50.6083C32.3771 56.0307 28.1095 59.3663 21.5816 59.3663C17.5985 59.3663 14.7692 58.3545 12.509 56.6788C11.0232 55.5722 10.1539 54.0388 10.1539 52.5527ZM6.40785 45.834C6.40785 23.6543 24.3793 5.67973 46.5551 5.67973C68.731 5.67973 86.7024 23.6543 86.7024 45.834C86.7024 68.0137 68.731 85.9883 46.5551 85.9883C24.3793 85.9883 6.40785 68.0137 6.40785 45.834ZM46.5551 91.4581C71.7025 91.4581 92.1713 70.9857 92.1713 45.834C92.1713 20.6823 71.7025 0.209961 46.5551 0.209961C21.4078 0.209961 0.938965 20.6823 0.938965 45.834C0.938965 70.9857 21.4078 91.4581 46.5551 91.4581Z" fill="black"/>
</svg>
