<svg width="269" height="231" viewBox="0 0 269 231" fill="none" xmlns="http://www.w3.org/2000/svg">
<path d="M101.121 10.8545H74.4904C58.0911 10.8545 53.8837 19.2708 47.3335 35.7686C42.0264 50.8796 38.7753 56.092 25.4837 66.4689C17.4991 73.068 11.0446 78.0891 11.0446 89.1832C11.0446 102.621 14.5349 108.646 28.8305 122.944C31.2211 125.335 31.5079 127.965 31.5079 130.499C31.5079 132.317 31.2211 134.564 31.2211 136.955C31.3645 161.2 88.6426 188.361 117.521 198.451C146.638 208.828 193.015 219.205 223.28 219.205C239.822 219.205 249.767 208.254 249.767 191.757C249.767 177.172 245.416 148.767 245.416 132.651C245.416 124.522 246.277 121.031 249.624 112.328C253.258 102.238 257.465 90.9047 257.895 79.8106C258.182 69.1468 242.5 67.4731 239.249 53.3184C235.902 39.3072 222.419 26.3003 207.598 18.9838C200.617 15.3495 184.361 12.9586 159.26 11.8587C141.187 10.998 120.581 10.8545 101.121 10.8545Z" fill="white"/>
<path d="M209.653 137.243C215.104 135.426 221.415 132.604 226.865 127.153C226.579 123.662 226.148 120.028 225.766 116.345C221.845 120.41 215.964 123.758 210.084 125.862C210.37 126.866 209.797 132.461 209.653 137.195V137.243ZM208.267 164.117C217.255 162.444 222.419 160.053 225.096 154.458C220.889 155.032 215.152 155.701 208.697 156.418L208.267 164.117ZM194.115 85.5495C194.115 82.4891 196.649 80.0981 199.708 80.0981C202.099 80.0981 204.729 82.776 209.797 82.776C215.964 82.776 220.746 73.6902 231.36 73.6902C237.097 73.6902 244.269 77.7549 244.269 82.6804C244.269 85.5017 242.165 87.9883 238.531 87.9883C235.567 87.9883 233.607 84.7844 228.156 84.7844C222.706 84.7844 217.781 93.8702 207.263 93.8702C203.199 93.8702 194.115 91.3357 194.115 85.5974V85.5495ZM185.317 141.977C189.238 141.69 192.728 141.116 198.465 140.16L199.039 128.97C194.975 129.831 190.481 130.357 185.748 130.93C185.748 133.465 185.604 137.099 185.317 141.977ZM184.026 166.652C188.664 166.365 193.015 165.935 197.174 165.552L197.605 157.423C193.111 157.71 188.76 157.996 184.6 158.14L184.026 166.7V166.652ZM160.933 66.326V66.1825C161.077 63.2177 163.324 60.8745 166.384 60.8745C168.774 60.8745 170.304 62.4048 171.165 64.7958C172.169 67.3302 172.552 70.6776 173.125 73.8815C173.412 75.9856 173.842 77.9462 174.225 79.6199C170.161 80.8632 167.484 81.8674 167.914 81.8674C164.95 81.8674 162.894 80.4806 162.894 76.416C162.894 73.4511 166.24 69.4343 171.165 64.7958L172.169 63.935C179.436 57.4793 186.465 54.132 192.919 54.132C205.542 54.132 221.224 56.5229 221.224 65.6087C221.224 71.634 214.339 73.0208 207.358 73.0208C197.7 73.0208 182.831 76.942 174.321 79.6199C175.038 81.8674 175.707 83.5411 176.568 84.4019C179.915 87.6058 194.927 90.5706 194.927 103.338C194.927 113.285 185.843 119.167 174.464 119.167C168.009 119.167 165.619 116.632 165.619 113.715C165.619 110.798 168.01 108.12 171.069 108.12C180.154 108.12 183.835 106.59 183.835 103.338C183.835 98.1739 172.217 97.0263 167.579 90.8575C165.475 87.7971 163.659 83.0151 162.416 75.8899C161.316 70.4385 161.029 65.8 161.029 66.2303V66.3738L160.933 66.326ZM155.196 141.881C161.651 142.598 166.384 142.598 174.368 142.598L174.942 131.552C166.814 131.696 162.32 131.696 157.156 131.122L155.196 141.929V141.881ZM150.989 165.935C157.443 166.652 164.711 167.034 172.982 167.034L173.556 157.949C166.575 157.805 159.69 157.231 152.662 156.562L150.989 165.935ZM122.541 135.569C131.099 137.817 136.836 139.203 144.247 140.351L146.064 129.687C139.323 128.587 132.342 127.009 125.314 125.192L122.493 135.569H122.541ZM119.194 100.087C119.194 90.5706 129.426 85.1191 136.024 85.1191C141.187 85.1191 142.335 87.7971 142.335 90.0446C142.335 93.2485 139.514 95.0657 136.597 95.783C134.924 96.2133 130.143 97.4566 130.143 100.135C130.143 102.669 133.49 103.912 133.49 107.021C133.49 110.129 130.525 112.329 127.609 112.329C122.828 112.329 119.194 106.59 119.194 100.135V100.087ZM116.517 157.71C123.258 160.674 129.952 162.492 140.183 164.309L141.713 155.079C131.051 153.262 125.027 152.019 118.477 150.441L116.517 157.71ZM88.0687 64.1263C96.3401 62.0222 104.611 60.7789 109.058 60.7789C117.329 60.7789 125.027 62.7395 129.952 63.1699C127.848 59.966 122.541 56.1882 110.062 56.1882C100.548 56.1882 93.8061 58.4357 88.0687 64.1741V64.1263ZM87.5428 123.231C97.631 127.44 104.229 129.831 112.07 132.317L114.891 122.227C106.333 119.693 97.2485 116.632 87.8775 112.998L87.5906 123.231H87.5428ZM85.0088 138.773C92.4196 145.229 99.0175 149.58 106.285 153.214L107.815 147.62C102.364 146.089 92.1327 142.694 84.961 138.773H85.0088ZM75.2074 67.904C75.2074 54.8971 92.8499 45.0462 110.062 45.0462C127.274 45.0462 142 52.3148 142 66.326C142 70.9645 138.366 74.3119 132.199 74.3119C127.274 74.3119 115.513 71.7774 109.106 71.7774C101.408 71.7774 90.0768 75.6987 84.0525 75.6987C79.0323 75.6987 75.2074 72.6382 75.2074 67.8562V67.904ZM55.4613 99.4173C56.4653 101.665 59.8121 108.12 61.1987 110.607C63.1589 111.707 68.6094 114.672 76.594 118.45L76.8808 108.646C68.466 105.156 61.0552 101.904 55.4613 99.4173ZM41.1657 89.0404C41.1657 86.6494 43.4128 83.5889 46.6162 83.5889C49.4371 83.5889 88.0687 101.378 91.4633 102.621C105.472 107.786 118.477 111.994 130.286 115.102C144.869 118.88 157.587 120.697 167.962 120.697C186.178 120.697 214.769 117.732 219.789 105.729C220.889 103.195 222.467 97.0263 222.993 94.9222C223.71 92.5312 225.814 90.7141 228.3 90.7141C230.977 90.7141 233.32 92.6747 233.75 95.3526C233.894 96.4524 238.388 123.375 238.388 143.555C238.388 172.295 215.438 178.176 177.859 178.176C148.311 178.176 130.812 174.686 113.839 168.517C76.1637 154.793 41.1179 113.62 41.1179 89.0882L41.1657 89.0404ZM21.8498 93.1051C21.8498 76.0334 31.6512 63.6959 47.6202 63.6959C65.693 63.6959 72.4344 82.2021 86.2997 82.2021C92.4674 82.2021 95.3839 77.2767 99.4478 77.2767C101.838 77.2767 104.229 78.9504 104.229 82.2021C104.229 87.5101 94.1408 93.1529 86.2997 93.1529C68.9441 93.1529 59.9556 74.7901 47.4768 74.7901C38.3926 74.7901 32.7509 81.9152 32.7509 92.8659C32.7509 97.5045 33.7549 100.565 33.7549 104.343C33.7549 107.308 31.6512 109.794 28.7347 109.794C23.571 109.794 21.8498 103.912 21.8498 93.1051ZM11.0444 89.1838C11.0444 102.621 14.5347 108.646 28.8303 122.945C31.2209 125.336 31.5077 127.966 31.5077 130.5C31.5077 132.317 31.2209 134.565 31.2209 136.956C31.3643 161.2 88.6424 188.362 117.521 198.452C146.638 208.829 193.015 219.206 223.28 219.206C239.822 219.206 249.767 208.255 249.767 191.757C249.767 177.172 245.416 148.767 245.416 132.652C245.416 124.523 246.277 121.032 249.624 112.329C253.257 102.239 257.465 90.9053 257.895 79.8111C258.182 69.1473 242.5 67.4737 239.249 53.319C235.902 39.3078 222.419 26.3009 207.597 18.9844C200.617 15.3501 184.361 12.9592 159.26 11.8593C141.187 10.9985 120.58 10.8551 101.121 10.8551H74.4902C58.0909 10.8551 53.8835 19.2714 47.3333 35.7692C42.0263 50.8802 38.7751 56.0926 25.4835 66.4695C17.499 73.0686 11.0444 78.0897 11.0444 89.1838ZM223.28 230.109C191.628 230.109 144.964 219.875 113.887 208.829C79.9886 196.922 20.1764 168.326 20.1764 137.243C20.1764 135.856 20.4633 132.748 20.6067 130.261C5.068 114.72 0 105.873 0 89.2317C0 72.5904 9.94476 64.987 18.6464 58.0054C30.2646 48.7761 31.938 45.9548 37.1495 32.0871C44.9906 11.3333 52.6882 0 74.5381 0H106.046C124.119 0 143.004 0.143459 159.834 1.00421C187.134 2.24753 203.964 4.78197 212.522 9.13357C230.021 17.8368 244.747 33.3782 250.054 50.8802C253.544 62.5004 269.513 62.5004 268.987 80.2894C268.414 93.2007 263.68 105.203 259.903 116.154C256.843 124.857 256.556 125.24 256.556 132.413C256.556 146.424 260.907 177.65 260.907 191.805C260.907 213.946 246.325 230.204 223.375 230.204L223.28 230.109Z" fill="black"/>
</svg>
