<svg width="182" height="181" viewBox="0 0 182 181" fill="none" xmlns="http://www.w3.org/2000/svg">
<path d="M43.5003 88.5174C43.0402 83.5483 46.8296 79.0768 51.6849 78.653C54.1125 78.4411 56.6332 79.2345 58.5562 81.0356L86.2164 106.447L117.76 52.5293C119.305 49.9333 121.929 48.4301 124.785 48.1808C129.555 47.7644 134.153 51.0982 134.643 56.3833C134.813 58.2216 134.48 60.2197 133.458 61.9304L96.2429 125.493C94.9314 127.808 92.4733 129.557 89.8172 129.789C86.7327 130.058 84.228 129.437 82.2684 127.553L46.3828 94.4621C44.6265 92.9071 43.6738 90.7028 43.4717 88.5199L43.5003 88.5174ZM18.5572 96.8043C14.8259 56.5057 44.2749 21.0128 84.3449 17.5148C124.415 14.0169 159.912 43.8404 163.643 84.139C167.374 124.438 137.925 159.931 97.8552 163.428C57.7853 166.926 22.2885 137.103 18.5572 96.8043ZM8.67536 97.667C12.9067 143.366 53.3362 177.333 98.7754 173.367C144.215 169.4 177.756 128.975 173.525 83.2763C169.293 37.5778 128.864 3.61 83.4247 7.57665C37.9854 11.5433 4.44407 51.9684 8.67536 97.667ZM91.2402 139.249C96.7523 138.768 101.577 135.22 104.41 130.368L141.625 66.8058C143.664 63.3269 144.484 59.4332 144.133 55.6417C143.175 45.3014 134.122 37.6947 123.84 38.5923C118.071 39.0959 112.581 42.6154 109.678 47.6464L83.9713 91.5283L64.9604 74.0194C61.1821 70.5272 56.1168 68.6819 50.9188 69.1357C40.7228 70.0257 33.11 78.9136 34.0834 89.4263C34.5116 94.0507 36.6088 98.3557 40.0071 101.476L75.9705 134.473C80.3081 138.408 85.2425 139.773 91.2687 139.247L91.2402 139.249Z" fill="#FFFF55"/>
<path d="M8.67536 97.667C12.9067 143.366 53.3362 177.333 98.7754 173.367C144.215 169.4 177.756 128.975 173.525 83.2763C169.293 37.5778 128.864 3.61 83.4247 7.57665C37.9854 11.5433 4.44407 51.9684 8.67536 97.667ZM89.8458 129.787C86.7613 130.056 84.2565 129.435 82.297 127.55L46.4113 94.4596C44.655 92.9046 43.7024 90.7003 43.5003 88.5174C43.0402 83.5483 46.8296 79.0768 51.6849 78.653C54.1125 78.4411 56.6332 79.2345 58.5562 81.0356L86.2164 106.447L117.76 52.5293C119.305 49.9333 121.929 48.4301 124.785 48.1808C129.555 47.7644 134.153 51.0982 134.643 56.3833C134.813 58.2216 134.48 60.2197 133.458 61.9304L96.2429 125.493C94.9314 127.808 92.4733 129.557 89.8172 129.789L89.8458 129.787Z" fill="#55FF55"/>
<path d="M89.8446 129.809C86.7587 130.078 84.2527 129.457 82.2923 127.571L46.39 94.4633C44.6329 92.9075 43.6798 90.702 43.4776 88.5179C43.0173 83.5462 46.8085 79.0724 51.666 78.6484C54.0947 78.4363 56.6166 79.2301 58.5405 81.0322L86.2135 106.457L117.772 52.511C119.317 49.9136 121.943 48.4096 124.8 48.1601C129.572 47.7436 134.173 51.0791 134.662 56.367C134.833 58.2062 134.499 60.2053 133.477 61.917L96.2447 125.513C94.9325 127.829 92.4733 129.579 89.816 129.811L89.8446 129.809Z" fill="white"/>
<path d="M43.5003 88.5174C43.0402 83.5483 46.8296 79.0768 51.6849 78.653C54.1125 78.4411 56.6332 79.2345 58.5562 81.0356L86.2164 106.447L117.76 52.5293C119.305 49.9333 121.929 48.4301 124.785 48.1808C129.555 47.7644 134.153 51.0982 134.643 56.3833C134.813 58.2216 134.48 60.2197 133.458 61.9304L96.2429 125.493C94.9314 127.808 92.4733 129.557 89.8172 129.789C86.7327 130.058 84.228 129.437 82.2684 127.553L46.3828 94.4621C44.6265 92.9071 43.6738 90.7028 43.4717 88.5199L43.5003 88.5174ZM18.5572 96.8043C14.8259 56.5057 44.2749 21.0128 84.3449 17.5148C124.415 14.0169 159.912 43.8404 163.643 84.139C167.374 124.438 137.925 159.931 97.8552 163.428C57.7853 166.926 22.2885 137.103 18.5572 96.8043ZM8.67536 97.667C12.9067 143.366 53.3362 177.333 98.7754 173.367C144.215 169.4 177.756 128.975 173.525 83.2763C169.293 37.5778 128.864 3.61 83.4247 7.57665C37.9854 11.5433 4.44407 51.9684 8.67536 97.667ZM91.2402 139.249C96.7523 138.768 101.577 135.22 104.41 130.368L141.625 66.8058C143.664 63.3269 144.484 59.4332 144.133 55.6417C143.175 45.3014 134.122 37.6947 123.84 38.5923C118.071 39.0959 112.581 42.6154 109.678 47.6464L83.9713 91.5283L64.9604 74.0194C61.1821 70.5272 56.1168 68.6819 50.9188 69.1357C40.7228 70.0257 33.11 78.9136 34.0834 89.4263C34.5116 94.0507 36.6088 98.3557 40.0071 101.476L75.9705 134.473C80.3081 138.408 85.2425 139.773 91.2687 139.247L91.2402 139.249Z" fill="black"/>
</svg>
