<svg width="163" height="164" viewBox="0 0 163 164" fill="none" xmlns="http://www.w3.org/2000/svg">
<path d="M120.13 113.092C120.13 114.977 121.543 116.626 123.428 118.275C126.49 116.861 128.374 115.212 128.374 113.092C128.374 110.973 126.725 109.324 124.134 109.324C121.543 109.324 119.894 110.973 119.894 113.328L120.13 113.092ZM117.068 129.345C117.068 126.99 119.188 125.341 122.25 123.928L130.259 131.465C128.61 132.879 126.49 133.821 123.663 133.821C120.837 133.821 117.068 132.172 117.068 129.345ZM111.179 129.816C111.179 125.341 114.241 122.75 118.246 120.63C116.361 118.981 114.477 116.39 114.477 112.857C114.477 109.324 118.717 104.377 124.605 104.377C130.494 104.377 134.263 107.439 134.263 112.621C134.263 117.803 131.907 119.452 127.668 121.572L133.792 127.225C134.263 126.283 134.734 125.341 134.97 124.399C135.441 122.986 136.147 121.337 138.032 121.337C139.916 121.337 140.387 122.514 140.387 123.928C140.387 125.341 139.916 127.225 139.209 128.403C138.738 129.345 138.267 130.288 137.796 130.994L141.094 134.056C141.8 134.763 142.272 135.47 142.272 136.176C142.272 137.825 140.858 138.767 139.681 138.767C138.503 138.767 137.796 138.061 136.854 137.354L134.263 134.999C131.436 137.354 127.668 138.767 123.192 138.767C116.126 138.767 111.179 135.47 111.179 129.581V129.816ZM81.7355 124.87C81.7355 128.403 84.091 130.759 87.3886 130.759C90.6863 130.759 92.8063 128.168 92.8063 124.87C92.8063 121.572 90.4508 118.981 87.3886 118.981C84.3265 118.981 81.7355 121.572 81.7355 124.87ZM69.0158 125.105C69.0158 114.035 76.3178 106.733 87.8597 106.733C99.4016 106.733 105.761 113.092 105.761 124.163C105.761 135.234 103.406 135.705 99.1661 135.705C94.9262 135.705 94.2196 134.292 93.2774 131.701C91.6285 134.056 89.5086 135.234 86.2109 135.234C81.0288 135.234 77.0245 130.994 77.0245 125.105C77.0245 119.217 81.0288 114.977 86.2109 114.977C91.393 114.977 90.9219 115.919 92.3352 117.568C92.3352 115.919 93.2774 114.977 94.6907 114.977C96.104 114.977 96.8106 115.919 96.8106 117.332V129.345C96.8106 131.23 97.7528 132.172 99.1661 132.172C101.286 132.172 101.993 129.581 101.993 124.163C101.993 114.977 96.8106 110.03 87.3886 110.03C77.9667 110.03 72.3135 115.919 72.3135 125.105C72.3135 134.292 78.4378 139.474 88.0953 139.474C97.7528 139.474 95.6329 137.825 96.8106 137.825C97.9883 137.825 98.4594 138.296 98.4594 139.238C98.4594 141.829 91.8641 142.772 87.6242 142.772C76.0823 142.772 68.7803 135.941 68.7803 124.87L69.0158 125.105ZM56.2962 108.381C56.2962 106.262 57.945 104.848 60.065 104.848C62.1849 104.848 63.8337 106.262 63.8337 108.381C63.8337 110.501 62.8915 117.803 61.9493 126.283C61.9493 127.461 61.2427 128.403 60.065 128.403C58.8872 128.403 58.4161 127.461 58.1806 126.283C57.2384 117.803 56.2962 109.795 56.2962 108.381ZM56.2962 134.763C56.2962 132.643 57.945 130.759 60.065 130.759C62.1849 130.759 63.8337 132.407 63.8337 134.763C63.8337 137.118 62.1849 138.767 60.065 138.767C57.945 138.767 56.2962 137.118 56.2962 134.763ZM34.3901 124.399L35.5678 118.51H41.4566L40.2788 124.399H34.3901ZM0.47103 82C0.47103 98.9595 5.6531 114.741 14.3684 127.697V144.185C14.3684 147.012 16.4884 149.131 19.315 149.131H35.5678C48.7586 158.318 64.5404 163.5 81.7355 163.5C98.9306 163.5 114.948 158.318 127.903 149.131H144.156C146.983 149.131 149.102 146.776 149.102 144.185V127.697C158.053 114.741 163 98.9595 163 82C163 37.0101 126.49 0.5 81.4999 0.5C36.51 0.5 -6.10352e-05 37.0101 -6.10352e-05 82H0.47103ZM29.4436 138.767C27.7947 138.767 26.617 137.59 26.8525 135.47L28.0303 129.581H24.9681C23.5548 129.581 22.3771 128.403 22.3771 126.99C22.3771 125.577 23.5548 124.399 24.9681 124.399H29.208L30.3858 118.51H26.8525C25.4392 118.51 24.2615 117.332 24.2615 115.919C24.2615 114.506 25.4392 113.328 26.8525 113.328H31.3279L32.5057 106.497C32.7412 105.084 33.6834 104.377 35.0967 104.377C36.51 104.377 37.9233 105.319 37.4522 107.439L36.2745 113.328H42.1632L43.5765 106.497C43.8121 105.084 44.7543 104.377 46.4031 104.377C48.052 104.377 48.9941 105.555 48.523 107.439L47.3453 113.328H50.643C52.0563 113.328 53.234 114.27 53.234 115.919C53.234 117.568 52.0563 118.51 50.643 118.51H46.4031L45.2254 124.399H48.9941C50.4074 124.399 51.5852 125.577 51.5852 126.99C51.5852 128.403 50.4074 129.581 48.9941 129.581H44.2831L42.8699 136.647C42.6343 138.061 41.6921 138.767 40.2788 138.767C38.8655 138.767 37.4522 137.59 37.6878 135.47L38.8655 129.581H32.9768L31.5635 136.647C31.328 138.061 30.3857 138.767 28.9725 138.767H29.4436Z" fill="#E7401E"/>
<path d="M149.574 144.186V104.849C149.574 102.022 147.454 99.9023 144.628 99.9023H19.551C16.7244 99.9023 14.6045 102.258 14.6045 104.849V144.186C14.6045 147.012 16.7244 149.132 19.551 149.132H144.628C147.454 149.132 149.574 146.777 149.574 144.186Z" fill="white"/>
<path d="M120.13 113.092C120.13 114.977 121.543 116.626 123.428 118.275C126.49 116.861 128.374 115.212 128.374 113.092C128.374 110.973 126.725 109.324 124.134 109.324C121.543 109.324 119.894 110.973 119.894 113.328L120.13 113.092ZM117.068 129.345C117.068 126.99 119.188 125.341 122.25 123.928L130.259 131.465C128.61 132.879 126.49 133.821 123.663 133.821C120.837 133.821 117.068 132.172 117.068 129.345ZM111.179 129.816C111.179 125.341 114.241 122.75 118.246 120.63C116.361 118.981 114.477 116.39 114.477 112.857C114.477 109.324 118.717 104.377 124.605 104.377C130.494 104.377 134.263 107.439 134.263 112.621C134.263 117.803 131.907 119.452 127.668 121.572L133.792 127.225C134.263 126.283 134.734 125.341 134.97 124.399C135.441 122.986 136.147 121.337 138.032 121.337C139.916 121.337 140.387 122.514 140.387 123.928C140.387 125.341 139.916 127.225 139.209 128.403C138.738 129.345 138.267 130.288 137.796 130.994L141.094 134.056C141.8 134.763 142.272 135.47 142.272 136.176C142.272 137.825 140.858 138.767 139.681 138.767C138.503 138.767 137.796 138.061 136.854 137.354L134.263 134.999C131.436 137.354 127.668 138.767 123.192 138.767C116.126 138.767 111.179 135.47 111.179 129.581V129.816ZM96.104 73.5202C96.104 78.4667 100.344 82.7066 105.526 82.7066C110.708 82.7066 114.712 78.4667 114.712 73.5202C114.712 68.5737 110.472 64.0982 105.526 64.0982C100.579 64.0982 96.104 68.3381 96.104 73.5202ZM91.1574 60.0939C91.1574 62.4494 93.0418 65.0405 96.104 65.0405C99.1661 65.0405 97.7528 64.8049 98.4594 64.3338L115.89 54.2052C117.539 53.263 118.481 51.6142 118.481 49.9653C118.481 47.3743 116.597 45.0188 113.535 45.0188C110.472 45.0188 111.886 45.0188 110.944 45.4899L93.5129 55.6185C91.8641 56.5607 91.1574 58.2095 91.1574 59.8584V60.0939ZM81.7355 124.87C81.7355 128.403 84.091 130.759 87.3886 130.759C90.6863 130.759 92.8063 128.168 92.8063 124.87C92.8063 121.572 90.4508 118.981 87.3886 118.981C84.3265 118.981 81.7355 121.572 81.7355 124.87ZM69.7225 92.3641C69.7225 94.9552 71.8424 97.3107 74.669 97.3107C77.4956 97.3107 79.6155 95.1907 79.6155 92.3641C79.6155 89.5375 80.7933 89.7731 82.2066 89.7731C83.6199 89.7731 85.0331 90.9508 85.0331 92.3641C85.0331 94.9552 87.1531 97.3107 89.9797 97.3107C92.8063 97.3107 94.9262 95.1907 94.9262 92.3641C94.9262 85.2977 89.2731 79.8801 82.4421 79.8801C75.6112 79.8801 69.958 85.2977 69.958 92.3641H69.7225ZM69.0158 125.105C69.0158 114.035 76.3178 106.733 87.8597 106.733C99.4016 106.733 105.761 113.092 105.761 124.163C105.761 135.234 103.406 135.705 99.1661 135.705C94.9262 135.705 94.2196 134.292 93.2774 131.701C91.6285 134.056 89.5086 135.234 86.2109 135.234C81.0288 135.234 77.0245 130.994 77.0245 125.105C77.0245 119.217 81.0288 114.977 86.2109 114.977C91.393 114.977 90.9219 115.919 92.3352 117.568C92.3352 115.919 93.2774 114.977 94.6907 114.977C96.104 114.977 96.8106 115.919 96.8106 117.332V129.345C96.8106 131.23 97.7528 132.172 99.1661 132.172C101.286 132.172 101.993 129.581 101.993 124.163C101.993 114.977 96.8106 110.03 87.3886 110.03C77.9667 110.03 72.3135 115.919 72.3135 125.105C72.3135 134.292 78.4378 139.474 88.0953 139.474C97.7528 139.474 95.6329 137.825 96.8106 137.825C97.9883 137.825 98.4594 138.296 98.4594 139.238C98.4594 141.829 91.8641 142.772 87.6242 142.772C76.0823 142.772 68.7803 135.941 68.7803 124.87L69.0158 125.105ZM56.5317 149.131H107.41C99.6372 152.194 90.9219 153.842 81.971 153.842C73.0201 153.842 64.3048 152.194 56.5317 149.131ZM56.2962 108.381C56.2962 106.262 57.945 104.848 60.065 104.848C62.1849 104.848 63.8337 106.262 63.8337 108.381C63.8337 110.501 62.8915 117.803 61.9493 126.283C61.9493 127.461 61.2427 128.403 60.065 128.403C58.8872 128.403 58.4161 127.461 58.1806 126.283C57.2384 117.803 56.2962 109.795 56.2962 108.381ZM56.2962 134.763C56.2962 132.643 57.945 130.759 60.065 130.759C62.1849 130.759 63.8337 132.407 63.8337 134.763C63.8337 137.118 62.1849 138.767 60.065 138.767C57.945 138.767 56.2962 137.118 56.2962 134.763ZM49.2297 73.5202C49.2297 78.4667 53.4696 82.7066 58.6517 82.7066C63.8337 82.7066 67.8381 78.4667 67.8381 73.5202C67.8381 68.5737 63.5982 64.0982 58.6517 64.0982C53.7051 64.0982 49.2297 68.3381 49.2297 73.5202ZM45.932 50.2009C45.932 51.8497 46.8742 53.4986 48.523 54.4408L65.9537 64.5694C66.6603 65.0405 67.6025 65.276 68.3092 65.276C71.1358 65.276 73.2557 62.685 73.2557 60.3295C73.2557 57.974 72.3135 57.0318 70.9002 56.0896L53.4696 45.961C52.5274 45.4899 51.8207 45.4899 50.8785 45.4899C48.0519 45.4899 45.932 47.8454 45.932 50.4364V50.2009ZM34.3901 124.399L35.5678 118.51H41.4566L40.2788 124.399H34.3901ZM10.3641 82C10.3641 42.4277 42.3988 10.1575 82.2066 10.1575C122.014 10.1575 154.049 42.1922 154.049 82C154.049 121.808 152.636 98.724 149.809 106.262V104.613C149.809 101.786 147.689 99.6662 144.863 99.6662H19.7861C16.9595 99.6662 14.8395 102.022 14.8395 104.613V106.262C12.0129 98.724 10.5996 90.4798 10.5996 82H10.3641ZM0.47103 82C0.47103 98.9595 5.6531 114.741 14.3684 127.697V144.185C14.3684 147.012 16.4884 149.131 19.315 149.131H35.5678C48.7586 158.318 64.5404 163.5 81.7355 163.5C98.9306 163.5 114.948 158.318 127.903 149.131H144.156C146.983 149.131 149.102 146.776 149.102 144.185V127.697C158.053 114.741 163 98.9595 163 82C163 37.0101 126.49 0.5 81.4999 0.5C36.51 0.5 -6.10352e-05 37.0101 -6.10352e-05 82H0.47103ZM29.4436 138.767C27.7947 138.767 26.617 137.59 26.8525 135.47L28.0303 129.581H24.9681C23.5548 129.581 22.3771 128.403 22.3771 126.99C22.3771 125.577 23.5548 124.399 24.9681 124.399H29.208L30.3858 118.51H26.8525C25.4392 118.51 24.2615 117.332 24.2615 115.919C24.2615 114.506 25.4392 113.328 26.8525 113.328H31.3279L32.5057 106.497C32.7412 105.084 33.6834 104.377 35.0967 104.377C36.51 104.377 37.9233 105.319 37.4522 107.439L36.2745 113.328H42.1632L43.5765 106.497C43.8121 105.084 44.7543 104.377 46.4031 104.377C48.052 104.377 48.9941 105.555 48.523 107.439L47.3453 113.328H50.643C52.0563 113.328 53.234 114.27 53.234 115.919C53.234 117.568 52.0563 118.51 50.643 118.51H46.4031L45.2254 124.399H48.9941C50.4074 124.399 51.5852 125.577 51.5852 126.99C51.5852 128.403 50.4074 129.581 48.9941 129.581H44.2831L42.8699 136.647C42.6343 138.061 41.6921 138.767 40.2788 138.767C38.8655 138.767 37.4522 137.59 37.6878 135.47L38.8655 129.581H32.9768L31.5635 136.647C31.328 138.061 30.3857 138.767 28.9725 138.767H29.4436Z" fill="black"/>
</svg>
